<?xml version="1.0" encoding="UTF-8" standalone="no"?>
<!-- Generator: Adobe Illustrator 16.0.0, SVG Export Plug-In . SVG Version: 6.00 Build 0)  -->

<svg
   xmlns:dc="http://purl.org/dc/elements/1.1/"
   xmlns:cc="http://creativecommons.org/ns#"
   xmlns:rdf="http://www.w3.org/1999/02/22-rdf-syntax-ns#"
   xmlns:svg="http://www.w3.org/2000/svg"
   xmlns="http://www.w3.org/2000/svg"
   xmlns:sodipodi="http://sodipodi.sourceforge.net/DTD/sodipodi-0.dtd"
   xmlns:inkscape="http://www.inkscape.org/namespaces/inkscape"
   version="1.1"
   id="root"
   x="0px"
   y="0px"
   width="1024"
   height="768"
   viewBox="0 0 1024 768"
   enable-background="new 0 0 1600 1200"
   xml:space="preserve"
   inkscape:version="0.91 r13725"
   sodipodi:docname="1024x768.svg"><metadata
     id="metadata4721"><rdf:RDF><cc:Work
         rdf:about=""><dc:format>image/svg+xml</dc:format><dc:type
           rdf:resource="http://purl.org/dc/dcmitype/StillImage" /><dc:title></dc:title></cc:Work></rdf:RDF></metadata><defs
     id="defs4719" /><sodipodi:namedview
     pagecolor="#ffffff"
     bordercolor="#666666"
     borderopacity="1"
     objecttolerance="10"
     gridtolerance="10"
     guidetolerance="10"
     inkscape:pageopacity="0"
     inkscape:pageshadow="2"
     inkscape:window-width="1920"
     inkscape:window-height="1007"
     id="namedview4717"
     showgrid="false"
     fit-margin-top="0"
     fit-margin-left="0"
     fit-margin-right="0"
     fit-margin-bottom="0"
     inkscape:zoom="0.67083333"
     inkscape:cx="295.71836"
     inkscape:cy="178.42472"
     inkscape:window-x="0"
     inkscape:window-y="0"
     inkscape:window-maximized="1"
     inkscape:current-layer="root" /><g
     id="background_1_"
     transform="matrix(0.64,0,0,0.64,2.9980469e-6,3.1201171e-6)"><linearGradient
       id="SVGID_1_"
       gradientUnits="userSpaceOnUse"
       x1="-877.4668"
       y1="-2237.6353"
       x2="-877.46729"
       y2="-1030.4608"
       gradientTransform="translate(1679.0195,2238.835)"><stop
         offset="0"
         style="stop-color:#133356"
         id="stop4526" /><stop
         offset="0.5025"
         style="stop-color:#7C9999"
         id="stop4528" /><stop
         offset="1"
         style="stop-color:#333333"
         id="stop4530" /></linearGradient><rect
       x="-1.7460001"
       y="-1.7079999"
       width="1606.595"
       height="1209.432"
       id="rect4532"
       style="fill:url(#SVGID_1_)" /><g
       id="Layer_4"><radialGradient
         id="SVGID_2_"
         cx="-964.54492"
         cy="-1398.8472"
         r="779.17908"
         gradientTransform="matrix(1.0062,0,0,1.3528,1696.7471,2463.6682)"
         gradientUnits="userSpaceOnUse"><stop
           offset="0"
           style="stop-color:#E4C8A5;stop-opacity:0.5"
           id="stop4536" /><stop
           offset="0.1429"
           style="stop-color:#AEAB93;stop-opacity:0.4372"
           id="stop4538" /><stop
           offset="0.3797"
           style="stop-color:#587E77;stop-opacity:0.3331"
           id="stop4540" /><stop
           offset="0.4877"
           style="stop-color:#366C6C;stop-opacity:0.2857"
           id="stop4542" /></radialGradient><rect
         x="-2.3729999"
         y="-0.58099997"
         width="1607.222"
         height="1208.304"
         id="rect4544"
         style="fill:url(#SVGID_2_)" /></g></g><g
     id="glows"
     transform="matrix(0.64,0,0,0.64,2.9980469e-6,3.1201171e-6)"><radialGradient
       id="SVGID_3_"
       cx="-438.89011"
       cy="-1639.8506"
       r="230.8933"
       gradientTransform="translate(1679.0195,2238.835)"
       gradientUnits="userSpaceOnUse"><stop
         offset="0"
         style="stop-color:#FFFCDD"
         id="stop4548" /><stop
         offset="1"
         style="stop-color:#FEF9C8;stop-opacity:0"
         id="stop4550" /></radialGradient><circle
       enable-background="new    "
       cx="1240.13"
       cy="598.98401"
       r="230.89301"
       id="circle4552"
       style="opacity:0.2;fill:url(#SVGID_3_)" /><radialGradient
       id="SVGID_4_"
       cx="-567.12109"
       cy="-1719.311"
       r="182.7581"
       gradientTransform="translate(1679.0195,2238.835)"
       gradientUnits="userSpaceOnUse"><stop
         offset="0"
         style="stop-color:#99CCCC"
         id="stop4555" /><stop
         offset="1"
         style="stop-color:#FEF9C8;stop-opacity:0"
         id="stop4557" /></radialGradient><circle
       enable-background="new    "
       cx="1111.8979"
       cy="519.52399"
       r="182.757"
       id="circle4559"
       style="opacity:0.2;fill:url(#SVGID_4_)" /><radialGradient
       id="SVGID_5_"
       cx="-1355.9736"
       cy="-1750.7358"
       r="242.3"
       gradientTransform="translate(1679.0195,2238.835)"
       gradientUnits="userSpaceOnUse"><stop
         offset="0"
         style="stop-color:#FFFCDD"
         id="stop4562" /><stop
         offset="1"
         style="stop-color:#FEF9C8;stop-opacity:0"
         id="stop4564" /></radialGradient><circle
       enable-background="new    "
       cx="323.04599"
       cy="488.099"
       r="242.299"
       id="circle4566"
       style="opacity:0.1;fill:url(#SVGID_5_)" /><radialGradient
       id="SVGID_6_"
       cx="-1200.5039"
       cy="-1594.4028"
       r="242.2991"
       gradientTransform="translate(1679.0195,2238.835)"
       gradientUnits="userSpaceOnUse"><stop
         offset="0"
         style="stop-color:#FFFCDD"
         id="stop4569" /><stop
         offset="1"
         style="stop-color:#FEF9C8;stop-opacity:0"
         id="stop4571" /></radialGradient><circle
       enable-background="new    "
       cx="478.51599"
       cy="644.43201"
       r="242.298"
       id="circle4573"
       style="opacity:0.1;fill:url(#SVGID_6_)" /><radialGradient
       id="SVGID_7_"
       cx="-1120.8428"
       cy="-1517.6328"
       r="309.96881"
       gradientTransform="translate(1679.0195,2238.835)"
       gradientUnits="userSpaceOnUse"><stop
         offset="0"
         style="stop-color:#FFFCDD"
         id="stop4576" /><stop
         offset="1"
         style="stop-color:#FEF9C8;stop-opacity:0"
         id="stop4578" /></radialGradient><path
       enable-background="new    "
       d="m 558.18,411.232 c 171.191,0 309.965,138.778 309.965,309.969 0,171.192 -138.771,309.971 -309.965,309.971 -171.194,0 -309.971,-138.779 -309.971,-309.972 0,-171.188 138.778,-309.968 309.971,-309.968 z"
       id="path4580"
       style="opacity:0.1;fill:url(#SVGID_7_)"
       inkscape:connector-curvature="0" /><radialGradient
       id="SVGID_8_"
       cx="-615.16357"
       cy="-1581.9434"
       r="309.96951"
       gradientTransform="translate(1679.0195,2238.835)"
       gradientUnits="userSpaceOnUse"><stop
         offset="0"
         style="stop-color:#FFFCDD"
         id="stop4583" /><stop
         offset="1"
         style="stop-color:#FEF9C8;stop-opacity:0"
         id="stop4585" /></radialGradient><circle
       enable-background="new    "
       cx="1063.856"
       cy="656.89203"
       r="309.96899"
       id="circle4587"
       style="opacity:0.1;fill:url(#SVGID_8_)" /><radialGradient
       id="SVGID_9_"
       cx="-1149.9077"
       cy="-1705.9863"
       r="309.96799"
       gradientTransform="translate(1679.0195,2238.835)"
       gradientUnits="userSpaceOnUse"><stop
         offset="0"
         style="stop-color:#99CCCC"
         id="stop4590" /><stop
         offset="1"
         style="stop-color:#FEF9C8;stop-opacity:0"
         id="stop4592" /></radialGradient><path
       enable-background="new    "
       d="m 529.114,222.879 c 171.192,0 309.965,138.778 309.965,309.97 0,171.189 -138.772,309.968 -309.965,309.968 -171.19,0 -309.97,-138.777 -309.97,-309.968 0.001,-171.191 138.78,-309.97 309.97,-309.97 z"
       id="path4594"
       style="opacity:0.2;fill:url(#SVGID_9_)"
       inkscape:connector-curvature="0" /><radialGradient
       id="SVGID_10_"
       cx="-377.27979"
       cy="-1691.1021"
       r="309.96921"
       gradientTransform="translate(1679.0195,2238.835)"
       gradientUnits="userSpaceOnUse"><stop
         offset="0"
         style="stop-color:#FFFCDD"
         id="stop4597" /><stop
         offset="1"
         style="stop-color:#FEF9C8;stop-opacity:0"
         id="stop4599" /></radialGradient><circle
       enable-background="new    "
       cx="1301.739"
       cy="547.73297"
       r="309.96799"
       id="circle4601"
       style="opacity:0.2;fill:url(#SVGID_10_)" /><radialGradient
       id="SVGID_11_"
       cx="-468.10599"
       cy="-1472.7861"
       r="309.96951"
       gradientTransform="translate(1679.0195,2238.835)"
       gradientUnits="userSpaceOnUse"><stop
         offset="0"
         style="stop-color:#99CCCC"
         id="stop4604" /><stop
         offset="1"
         style="stop-color:#FEF9C8;stop-opacity:0"
         id="stop4606" /></radialGradient><circle
       enable-background="new    "
       cx="1210.913"
       cy="766.04901"
       r="309.96899"
       id="circle4608"
       style="opacity:0.2;fill:url(#SVGID_11_)" /></g><g
     id="rounds"
     transform="matrix(0.64,0,0,0.64,2.9980469e-6,3.1201171e-6)"><path
       stroke-miterlimit="10"
       d="M 737.515,638.594"
       id="path4611"
       inkscape:connector-curvature="0"
       style="fill:none;stroke:#ffffff;stroke-width:2;stroke-miterlimit:10" /><circle
       enable-background="new    "
       cx="1443.667"
       cy="534.07098"
       r="9.9790001"
       id="circle4613"
       style="opacity:0.5;fill:#ffffff" /><circle
       enable-background="new    "
       cx="1369.167"
       cy="357.505"
       r="9.9790001"
       id="circle4615"
       style="opacity:0.9;fill:#ffffff" /><circle
       enable-background="new    "
       cx="1320.0389"
       cy="871.87097"
       r="9.9799995"
       id="circle4617"
       style="opacity:0.1;fill:#ffffff" /><circle
       enable-background="new    "
       cx="1417.365"
       cy="715.30402"
       r="9.9799995"
       id="circle4619"
       style="opacity:0.3;fill:#ffffff" /></g><g
     id="octopus_3_"
     transform="matrix(0.64,0,0,0.64,2.9980469e-6,3.1201171e-6)"><radialGradient
       id="SVGID_12_"
       cx="-2090.5034"
       cy="527.59082"
       r="613.31702"
       gradientTransform="matrix(1.4647,0.5424,0.5668,-1.7245,3718.4111,2535.0879)"
       gradientUnits="userSpaceOnUse"><stop
         offset="0"
         style="stop-color:#99CCCC"
         id="stop4623" /><stop
         offset="1"
         style="stop-color:#FEF9C8;stop-opacity:0"
         id="stop4625" /></radialGradient><path
       enable-background="new    "
       d="m 1250.21,326.489 c 0,0 49.357,170.24 -29.149,302.468 C 1088.349,852.474 915.656,832.107 679.339,667.035 262.915,376.15 148.227,592.54 143.31,619.057 l -1.412,-1.572 c 4.92,-26.522 110.139,-292.814 526.569,-1.928 236.307,165.075 408.997,185.44 541.713,-38.074 78.509,-132.236 40.03,-250.994 40.03,-250.994"
       id="path4627"
       style="opacity:0.2;fill:url(#SVGID_12_)"
       inkscape:connector-curvature="0" /><radialGradient
       id="SVGID_13_"
       cx="-2105.7437"
       cy="-31.892099"
       r="526.97937"
       gradientTransform="matrix(1.4173,0.672,0.6766,-1.6781,3830.6008,2038.0106)"
       gradientUnits="userSpaceOnUse"><stop
         offset="0"
         style="stop-color:#FFFCDD"
         id="stop4630" /><stop
         offset="1"
         style="stop-color:#FEF9C8;stop-opacity:0"
         id="stop4632" /></radialGradient><path
       enable-background="new    "
       d="m 1265.126,389.986 c 0,0 37.685,174.917 -48.97,300.516 C 1069.667,902.82 899.674,867.248 676.153,681.088 282.26,353.051 129.586,591.632 122.948,617.773 l 1.105,0.597 c 1.386,-48.897 150.828,-317.854 544.717,10.184 223.521,186.16 393.507,221.726 540.001,9.412 86.661,-125.604 56.355,-247.98 56.355,-247.98"
       id="path4634"
       style="opacity:0.1;fill:url(#SVGID_13_)"
       inkscape:connector-curvature="0" /><radialGradient
       id="SVGID_14_"
       cx="-2127.0474"
       cy="655.88379"
       r="197.4427"
       gradientTransform="matrix(1.4792,0.4962,0.5276,-1.7383,3689.3748,2710.8777)"
       gradientUnits="userSpaceOnUse"><stop
         offset="0"
         style="stop-color:#065E7F"
         id="stop4637" /><stop
         offset="1"
         style="stop-color:#FEF9C8;stop-opacity:0"
         id="stop4639" /></radialGradient><path
       enable-background="new    "
       d="m 1228.985,277.176 c 0,0 53.366,168.376 -22.191,302.735 C 1079.08,807.043 905.683,792.013 665.228,634.541 654.68,627.631 193.22,229.957 116.275,705.301 L 125.9,601.584 c 4.312,-26.615 103.504,-295.582 527.241,-18.078 240.458,157.473 413.856,172.492 541.574,-54.63 75.548,-134.367 34.27,-251.7 34.27,-251.7"
       id="path4641"
       style="opacity:0.5;fill:url(#SVGID_14_)"
       inkscape:connector-curvature="0" /><linearGradient
       id="SVGID_15_"
       gradientUnits="userSpaceOnUse"
       x1="1710.5244"
       y1="1668.6641"
       x2="2752.6348"
       y2="1668.6641"
       gradientTransform="matrix(0.9907,-0.4864,-0.4732,-0.9638,-641.7357,3310.3447)"><stop
         offset="0"
         style="stop-color:#ABCCB3;stop-opacity:0.7"
         id="stop4644" /><stop
         offset="0.33"
         style="stop-color:#B4CFB5;stop-opacity:0.05"
         id="stop4646" /><stop
         offset="0.803"
         style="stop-color:#C1D4B7;stop-opacity:0.5"
         id="stop4648" /><stop
         offset="1"
         style="stop-color:#FEF9C8;stop-opacity:0"
         id="stop4650" /></linearGradient><path
       d="m 1348.567,470.911 c 0,0 24.443,119.184 -77.295,223.708 C 1087.576,900.627 860.405,775.781 686.646,625.432 671.289,612.145 632.672,578.486 563.373,511.675 471.84,423.428 418.719,447.671 313.198,526.129 c -159.356,127.938 -192.2,31.48 -195.036,22.42 l -2.761,18.827 c 2.834,9.06 35.681,105.518 195.037,-22.421 99.263,-77.712 165.353,-79.615 236.821,-13.412 71.472,66.205 74.896,68.312 141.429,128.964 228.245,208.094 394.443,253.874 587.017,84.428 101.734,-104.533 72.862,-274.024 72.862,-274.024"
       id="path4652"
       style="fill:url(#SVGID_15_)"
       inkscape:connector-curvature="0" /></g><g
     id="bubble"
     transform="matrix(0.64,0,0,0.64,2.9980469e-6,3.1201171e-6)"><radialGradient
       id="SVGID_16_"
       cx="516.20209"
       cy="-537.57812"
       r="58.319801"
       gradientTransform="matrix(2.398,0,0,2.4744,-1150.9595,2306.7349)"
       gradientUnits="userSpaceOnUse"><stop
         offset="0.0592"
         style="stop-color:#AEAB93;stop-opacity:0.4372"
         id="stop4656" /><stop
         offset="0.5718"
         style="stop-color:#587E77;stop-opacity:0.3331"
         id="stop4658" /><stop
         offset="1"
         style="stop-color:#366C6C;stop-opacity:0"
         id="stop4660" /></radialGradient><ellipse
       cx="86.893997"
       cy="976.552"
       rx="139.853"
       ry="144.306"
       id="ellipse4662"
       style="fill:url(#SVGID_16_)" /><radialGradient
       id="SVGID_17_"
       cx="478.97751"
       cy="-525.63959"
       r="85.209999"
       gradientTransform="matrix(2.398,0,0,2.4744,-1150.9595,2306.7349)"
       gradientUnits="userSpaceOnUse"><stop
         offset="3.896629e-004"
         style="stop-color:#587E77;stop-opacity:0.3331"
         id="stop4665" /><stop
         offset="0.5616"
         style="stop-color:#AEAB93;stop-opacity:0.3"
         id="stop4667" /><stop
         offset="1"
         style="stop-color:#366C6C;stop-opacity:0"
         id="stop4669" /></radialGradient><path
       d="m -2.372,795.252 c 112.852,0 204.336,94.395 204.336,210.838 0,116.445 -91.483,210.844 -204.336,210.844 -112.851,0 -204.334,-94.396 -204.334,-210.844 -0.001,-116.444 91.483,-210.838 204.334,-210.838 z"
       id="path4671"
       style="fill:url(#SVGID_17_)"
       inkscape:connector-curvature="0" /><radialGradient
       id="SVGID_18_"
       cx="990.10352"
       cy="-394.168"
       r="85.207001"
       gradientTransform="matrix(3.1212,0,0,3.2305,-2888.3462,2144.6453)"
       gradientUnits="userSpaceOnUse"><stop
         offset="3.896629e-004"
         style="stop-color:#587E77;stop-opacity:0.3331"
         id="stop4674" /><stop
         offset="0.5468"
         style="stop-color:#AEAB93;stop-opacity:0.1"
         id="stop4676" /><stop
         offset="0.67"
         style="stop-color:#366C6C;stop-opacity:0"
         id="stop4678" /></radialGradient><path
       d="m 201.965,596.024 c 146.878,0 265.948,123.232 265.948,275.254 0,152.032 -119.067,275.267 -265.948,275.267 -146.881,0 -265.952,-123.234 -265.952,-275.266 0.001,-152.021 119.07,-275.255 265.952,-275.255 z"
       id="path4680"
       style="fill:url(#SVGID_18_)"
       inkscape:connector-curvature="0" /><linearGradient
       id="SVGID_19_"
       gradientUnits="userSpaceOnUse"
       x1="748.0166"
       y1="-697.9707"
       x2="840.68073"
       y2="-697.9707"
       gradientTransform="matrix(2.398,0,0,2.4744,-1150.9595,2306.7349)"><stop
         offset="0.5468"
         style="stop-color:#99CCCC;stop-opacity:0"
         id="stop4683" /><stop
         offset="0.7931"
         style="stop-color:#C8E1CA;stop-opacity:0.8"
         id="stop4685" /><stop
         offset="1"
         style="stop-color:#FEF9C8;stop-opacity:0"
         id="stop4687" /></linearGradient><path
       enable-background="new    "
       d="m 753.892,465.032 c 61.355,0 111.102,51.33 111.102,114.646 0,63.313 -49.745,114.643 -111.102,114.643 -61.363,0 -111.107,-51.329 -111.107,-114.643 -10e-4,-63.317 49.743,-114.646 111.107,-114.646 z"
       id="path4689"
       style="opacity:0.1;fill:url(#SVGID_19_)"
       inkscape:connector-curvature="0" /></g><g
     id="logoGroup_1_"
     transform="matrix(0.64,0,0,0.64,2.9980469e-6,3.1201171e-6)"
     style="opacity:0.8"><g
       id="logo_1_"
       enable-background="new    "><path
         d="m 1022.329,448.932 c -3.476,0.046 0.66,1.788 5.203,2.49 1.258,-0.982 2.392,-1.971 3.399,-2.936 -2.82,0.691 -5.698,0.709 -8.602,0.446"
         id="path4693"
         inkscape:connector-curvature="0"
         style="fill:#ffffff" /><path
         d="m 1040.999,444.277 c 2.077,-2.867 3.584,-5.991 4.118,-9.226 -0.466,2.303 -1.716,4.291 -2.897,6.399 -6.502,4.099 -0.615,-2.43 0,-4.915 -6.989,8.807 -0.966,5.279 -1.218,7.742"
         id="path4695"
         inkscape:connector-curvature="0"
         style="fill:#ffffff" /><path
         d="m 1047.896,426.338 c 0.423,-6.261 -1.229,-4.277 -1.787,-1.896 0.646,0.345 1.159,4.421 1.787,1.896"
         id="path4697"
         inkscape:connector-curvature="0"
         style="fill:#ffffff" /><path
         d="m 1009.134,340.712 c 1.859,0.335 4.015,0.588 3.703,1.036 2.037,-0.455 2.5,-0.856 -3.703,-1.036"
         id="path4699"
         inkscape:connector-curvature="0"
         style="fill:#ffffff" /><path
         d="m 1012.835,341.743 -1.303,0.274 1.224,-0.115 0.079,-0.159"
         id="path4701"
         inkscape:connector-curvature="0"
         style="fill:#ffffff" /><path
         d="m 1070.743,428.717 c 0.208,5.623 -1.646,8.354 -3.322,13.19 l -3.008,1.499 c -2.464,4.777 0.246,3.036 -1.522,6.835 -3.842,3.416 -11.656,10.688 -14.147,11.354 -1.827,-0.041 1.232,-2.156 1.639,-2.981 -5.148,3.531 -4.13,5.3 -11.995,7.45 l -0.231,-0.516 c -19.396,9.128 -46.332,-8.956 -45.983,-33.63 -0.203,1.567 -0.588,1.178 -1.017,1.809 -1.003,-12.692 5.87,-25.438 17.439,-30.653 11.318,-5.6 24.597,-3.312 32.698,4.26 -4.453,-5.834 -13.317,-12.018 -23.823,-11.449 -10.293,0.169 -19.926,6.713 -23.139,13.811 -5.274,3.323 -5.889,12.796 -8.185,14.532 -3.091,22.723 5.812,32.535 20.888,44.083 2.363,1.604 0.668,1.844 0.981,3.063 -5.007,-2.339 -9.588,-5.88 -13.354,-10.213 2,2.921 4.154,5.765 6.946,8.006 -4.726,-1.598 -11.034,-11.438 -12.869,-11.838 8.142,14.569 33.007,25.55 46.048,20.101 -6.034,0.225 -13.691,0.126 -20.463,-2.381 -2.849,-1.466 -6.715,-4.495 -6.027,-5.058 17.784,6.639 36.143,5.025 51.526,-7.307 3.912,-3.048 8.191,-8.231 9.425,-8.303 -1.863,2.801 0.32,1.347 -1.113,3.813 3.894,-6.288 -1.695,-2.562 4.026,-10.854 l 2.119,2.905 c -0.79,-5.224 6.487,-11.56 5.741,-19.813 1.671,-2.525 1.858,2.718 0.089,8.52 2.459,-6.442 0.654,-7.475 1.28,-12.796 0.672,1.789 1.575,3.691 2.035,5.571 -1.601,-6.225 1.638,-10.477 2.44,-14.099 -0.794,-0.349 -2.468,2.75 -2.854,-4.598 0.059,-3.197 0.891,-1.676 1.212,-2.463 -0.621,-0.362 -2.265,-2.812 -3.266,-7.506 0.722,-1.102 1.938,2.861 2.921,3.02 -0.629,-3.73 -1.725,-6.579 -1.775,-9.444 -2.88,-6.03 -1.02,0.807 -3.357,-2.587 -3.073,-9.582 2.543,-2.223 2.933,-6.575 4.649,6.743 7.299,17.193 8.52,21.521 -0.933,-5.276 -2.43,-10.389 -4.269,-15.338 1.417,0.601 -2.287,-10.856 1.839,-3.27 -4.396,-16.171 -18.81,-31.28 -32.066,-38.367 1.617,1.482 3.671,3.346 2.938,3.64 -6.6,-3.918 -5.44,-4.23 -6.386,-5.891 -5.369,-2.184 -5.728,0.181 -9.272,0.01 -10.128,-5.375 -12.078,-4.804 -21.4,-8.17 l 0.42,1.99 c -6.701,-2.24 -7.813,0.835 -15.068,0.006 -0.432,-0.348 2.328,-1.249 4.601,-1.579 -6.483,0.858 -6.179,-1.28 -12.523,0.239 1.559,-1.096 3.218,-1.83 4.884,-2.758 -5.286,0.324 -12.629,3.077 -10.362,0.564 -8.633,3.854 -23.95,9.257 -32.549,17.318 l -0.269,-1.807 c -3.938,4.732 -17.178,14.123 -18.235,20.258 l -1.051,0.239 c -2.052,3.473 -3.382,7.407 -5.005,10.974 -2.685,4.573 -3.934,1.762 -3.551,2.477 -5.272,10.693 -7.896,19.672 -10.158,27.048 1.613,2.403 0.038,14.506 0.651,24.188 -2.647,47.829 33.564,94.274 73.15,104.989 5.802,2.085 14.429,2.004 21.764,2.21 -8.656,-2.474 -9.774,-1.313 -18.211,-4.255 -6.081,-2.864 -7.42,-6.129 -11.729,-9.875 l 1.707,3.014 c -8.449,-2.993 -4.911,-3.705 -11.796,-5.879 l 1.827,-2.376 c -2.738,-0.206 -7.256,-4.612 -8.493,-7.062 l -3.001,0.121 c -3.6,-4.438 -5.521,-7.643 -5.374,-10.127 l -0.974,1.729 c -1.098,-1.879 -13.247,-16.664 -6.943,-13.224 -1.171,-1.068 -2.73,-1.739 -4.414,-4.811 l 1.28,-1.46 c -3.026,-3.9 -5.587,-8.913 -5.389,-10.578 1.618,2.185 2.739,2.594 3.85,2.968 -7.657,-19.007 -8.088,-1.043 -13.893,-19.345 l 1.23,-0.099 c -0.941,-1.429 -1.516,-2.955 -2.271,-4.468 l 0.534,-5.319 c -5.513,-6.367 -1.536,-27.11 -0.741,-38.483 0.551,-4.626 4.6,-9.55 7.686,-17.272 l -1.88,-0.325 c 3.599,-6.254 20.493,-25.142 28.332,-24.174 3.793,-4.764 -0.758,-0.018 -1.5,-1.214 8.337,-8.622 10.952,-6.088 16.575,-7.647 6.063,-3.593 -5.202,1.408 -2.326,-1.363 10.482,-2.679 7.426,-6.086 21.104,-7.445 1.441,0.817 -3.344,1.265 -4.543,2.326 8.732,-4.273 27.636,-3.294 39.919,2.372 14.246,6.666 30.249,26.347 30.883,44.858 l 0.72,0.19 c -0.358,7.359 1.132,15.874 -1.462,23.693 l 1.754,-3.719"
         id="path4703"
         inkscape:connector-curvature="0"
         style="fill:#ffffff" /><path
         d="m 984.355,453.701 -0.491,2.439 c 2.284,3.105 4.103,6.478 7.021,8.892 -2.101,-4.088 -3.658,-5.785 -6.53,-11.331"
         id="path4705"
         inkscape:connector-curvature="0"
         style="fill:#ffffff" /><path
         d="m 989.759,453.491 c -1.215,-1.334 -1.929,-2.946 -2.734,-4.552 0.771,2.821 2.344,5.243 3.803,7.713 l -1.069,-3.161"
         id="path4707"
         inkscape:connector-curvature="0"
         style="fill:#ffffff" /><path
         d="m 1085.408,432.702 -0.499,1.285 c -0.934,6.655 -2.969,13.243 -6.065,19.348 3.422,-6.444 5.627,-13.49 6.564,-20.633"
         id="path4709"
         inkscape:connector-curvature="0"
         style="fill:#ffffff" /><path
         d="m 1009.825,339.042 c 2.352,-0.857 5.78,-0.472 8.281,-1.04 -3.256,0.277 -6.494,0.439 -9.689,0.844 l 1.408,0.196"
         id="path4711"
         inkscape:connector-curvature="0"
         style="fill:#ffffff" /><path
         d="m 927.238,382.957 c 0.543,5.015 -3.771,6.962 0.951,3.651 2.54,-5.712 -0.983,-1.576 -0.951,-3.651"
         id="path4713"
         inkscape:connector-curvature="0"
         style="fill:#ffffff" /><path
         d="m 921.68,406.178 c 1.085,-3.343 1.291,-5.353 1.705,-7.288 -3.013,3.85 -1.391,4.669 -1.705,7.288"
         id="path4715"
         inkscape:connector-curvature="0"
         style="fill:#ffffff" /></g></g><rect
     style="opacity:1;fill:none;fill-opacity:1;stroke:none"
     id="rect4723"
     width="1024"
     height="768"
     x="0"
     y="0" /></svg>
