<?xml version="1.0" encoding="utf-8"?>
<!-- Generator: Adobe Illustrator 16.0.0, SVG Export Plug-In . SVG Version: 6.00 Build 0)  -->
<!DOCTYPE svg PUBLIC "-//W3C//DTD SVG 1.1//EN" "http://www.w3.org/Graphics/SVG/1.1/DTD/svg11.dtd">
<svg version="1.1" id="root" xmlns="http://www.w3.org/2000/svg" xmlns:xlink="http://www.w3.org/1999/xlink" x="0px" y="0px"
	 width="1280px" height="1024px" viewBox="0 0 1280 1024" enable-background="new 0 0 1280 1024" xml:space="preserve">
<g id="background_1_">

		<linearGradient id="SVGID_1_" gradientUnits="userSpaceOnUse" x1="-1144.5933" y1="2672.5723" x2="-1144.5938" y2="1645.9907" gradientTransform="matrix(1 0 0 -1 1786.6797 2673.7949)">
		<stop  offset="0" style="stop-color:#133356"/>
		<stop  offset="0.5025" style="stop-color:#7C9999"/>
		<stop  offset="1" style="stop-color:#333333"/>
	</linearGradient>
	<rect x="-5.049" y="-1.25" fill="url(#SVGID_1_)" width="1294.27" height="1028.5"/>
	<g id="Layer_4">

			<radialGradient id="SVGID_2_" cx="-1221.3677" cy="1936.0215" r="634.4088" gradientTransform="matrix(0.9956 0 0 -1.4143 1797.3708 3223.5886)" gradientUnits="userSpaceOnUse">
			<stop  offset="0" style="stop-color:#E4C8A5;stop-opacity:0.5"/>
			<stop  offset="0.1429" style="stop-color:#AEAB93;stop-opacity:0.4372"/>
			<stop  offset="0.3797" style="stop-color:#587E77;stop-opacity:0.3331"/>
			<stop  offset="0.4877" style="stop-color:#366C6C;stop-opacity:0.2857"/>
		</radialGradient>
		<rect x="-5.554" y="-1.25" fill="url(#SVGID_2_)" width="1294.775" height="1028.5"/>
	</g>
</g>
<g id="glows">

		<radialGradient id="SVGID_3_" cx="-787.1577" cy="2170.0283" r="187.9939" gradientTransform="matrix(1 0 0 -1 1786.6797 2673.7949)" gradientUnits="userSpaceOnUse">
		<stop  offset="0" style="stop-color:#FFFCDD"/>
		<stop  offset="1" style="stop-color:#FEF9C8;stop-opacity:0"/>
	</radialGradient>
	<circle opacity="0.2" fill="url(#SVGID_3_)" enable-background="new    " cx="999.522" cy="503.767" r="187.994"/>

		<radialGradient id="SVGID_4_" cx="-891.5625" cy="2234.7246" r="148.8022" gradientTransform="matrix(1 0 0 -1 1786.6797 2673.7949)" gradientUnits="userSpaceOnUse">
		<stop  offset="0" style="stop-color:#99CCCC"/>
		<stop  offset="1" style="stop-color:#FEF9C8;stop-opacity:0"/>
	</radialGradient>
	<circle opacity="0.2" fill="url(#SVGID_4_)" enable-background="new    " cx="895.117" cy="439.07" r="148.802"/>

		<radialGradient id="SVGID_5_" cx="-1533.8511" cy="2260.3105" r="197.2812" gradientTransform="matrix(1 0 0 -1 1786.6797 2673.7949)" gradientUnits="userSpaceOnUse">
		<stop  offset="0" style="stop-color:#FFFCDD"/>
		<stop  offset="1" style="stop-color:#FEF9C8;stop-opacity:0"/>
	</radialGradient>
	<circle opacity="0.1" fill="url(#SVGID_5_)" enable-background="new    " cx="252.829" cy="413.484" r="197.281"/>

		<radialGradient id="SVGID_6_" cx="-1407.2681" cy="2133.0254" r="197.2812" gradientTransform="matrix(1 0 0 -1 1786.6797 2673.7949)" gradientUnits="userSpaceOnUse">
		<stop  offset="0" style="stop-color:#FFFCDD"/>
		<stop  offset="1" style="stop-color:#FEF9C8;stop-opacity:0"/>
	</radialGradient>
	<circle opacity="0.1" fill="url(#SVGID_6_)" enable-background="new    " cx="379.412" cy="540.77" r="197.281"/>

		<radialGradient id="SVGID_7_" cx="-1342.4053" cy="2070.5176" r="252.3784" gradientTransform="matrix(1 0 0 -1 1786.6797 2673.7949)" gradientUnits="userSpaceOnUse">
		<stop  offset="0" style="stop-color:#FFFCDD"/>
		<stop  offset="1" style="stop-color:#FEF9C8;stop-opacity:0"/>
	</radialGradient>
	<circle opacity="0.1" fill="url(#SVGID_7_)" enable-background="new    " cx="444.275" cy="603.277" r="252.378"/>

		<radialGradient id="SVGID_8_" cx="-930.6787" cy="2122.8799" r="252.3775" gradientTransform="matrix(1 0 0 -1 1786.6797 2673.7949)" gradientUnits="userSpaceOnUse">
		<stop  offset="0" style="stop-color:#FFFCDD"/>
		<stop  offset="1" style="stop-color:#FEF9C8;stop-opacity:0"/>
	</radialGradient>
	<path opacity="0.1" fill="url(#SVGID_8_)" enable-background="new    " d="M856.002,298.538
		c139.384,0,252.376,112.994,252.376,252.377c0,139.383-112.992,252.378-252.376,252.378
		c-139.387,0-252.378-112.994-252.378-252.378C603.624,411.531,716.615,298.538,856.002,298.538z"/>

		<radialGradient id="SVGID_9_" cx="-1366.0693" cy="2223.877" r="252.377" gradientTransform="matrix(1 0 0 -1 1786.6797 2673.7949)" gradientUnits="userSpaceOnUse">
		<stop  offset="0" style="stop-color:#99CCCC"/>
		<stop  offset="1" style="stop-color:#FEF9C8;stop-opacity:0"/>
	</radialGradient>
	<circle opacity="0.2" fill="url(#SVGID_9_)" enable-background="new    " cx="420.611" cy="449.918" r="252.377"/>

		<radialGradient id="SVGID_10_" cx="-736.9937" cy="2211.7559" r="252.3787" gradientTransform="matrix(1 0 0 -1 1786.6797 2673.7949)" gradientUnits="userSpaceOnUse">
		<stop  offset="0" style="stop-color:#FFFCDD"/>
		<stop  offset="1" style="stop-color:#FEF9C8;stop-opacity:0"/>
	</radialGradient>
	<circle opacity="0.2" fill="url(#SVGID_10_)" enable-background="new    " cx="1049.687" cy="462.039" r="252.378"/>

		<radialGradient id="SVGID_11_" cx="-810.9453" cy="2034.0039" r="252.377" gradientTransform="matrix(1 0 0 -1 1786.6797 2673.7949)" gradientUnits="userSpaceOnUse">
		<stop  offset="0" style="stop-color:#99CCCC"/>
		<stop  offset="1" style="stop-color:#FEF9C8;stop-opacity:0"/>
	</radialGradient>
	<circle opacity="0.2" fill="url(#SVGID_11_)" enable-background="new    " cx="975.734" cy="639.792" r="252.377"/>
</g>
<g id="rounds">
	<path fill="none" stroke="#FFFFFF" stroke-width="2" stroke-miterlimit="10" d="M590.29,536.019"/>
	<circle opacity="0.5" fill="#FFFFFF" enable-background="new    " cx="1165.244" cy="450.913" r="8.125"/>
	<circle opacity="0.9" fill="#FFFFFF" enable-background="new    " cx="1104.585" cy="307.153" r="8.125"/>
	<circle opacity="0.1" fill="#FFFFFF" enable-background="new    " cx="1064.586" cy="725.952" r="8.127"/>
	<circle opacity="0.3" fill="#FFFFFF" enable-background="new    " cx="1143.827" cy="598.476" r="8.126"/>
</g>
<g id="octopus_3_">

		<radialGradient id="SVGID_12_" cx="-2595.9648" cy="152.7437" r="499.3659" gradientTransform="matrix(1.4647 0.5424 -0.5668 1.7245 4656.6519 1560.7892)" gradientUnits="userSpaceOnUse">
		<stop  offset="0" style="stop-color:#99CCCC"/>
		<stop  offset="1" style="stop-color:#FEF9C8;stop-opacity:0"/>
	</radialGradient>
	<path opacity="0.2" fill="url(#SVGID_12_)" enable-background="new    " d="M1007.729,281.899c0,0,40.188,138.609-23.732,246.271
		C875.942,710.16,735.335,693.577,542.921,559.175c-339.051-236.84-432.431-60.657-436.435-39.063l-1.149-1.279
		c4.006-21.597,89.675-238.413,428.732-1.569c192.405,134.404,333.011,150.986,441.066-31.002
		C1039.062,378.591,1007.729,281.899,1007.729,281.899"/>

		<radialGradient id="SVGID_13_" cx="-2607.9165" cy="656.9785" r="429.0697" gradientTransform="matrix(1.4173 0.672 -0.6766 1.6781 4801.8696 1216.9027)" gradientUnits="userSpaceOnUse">
		<stop  offset="0" style="stop-color:#FFFCDD"/>
		<stop  offset="1" style="stop-color:#FEF9C8;stop-opacity:0"/>
	</radialGradient>
	<path opacity="0.1" fill="url(#SVGID_13_)" enable-background="new    " d="M1019.875,333.598c0,0,30.684,142.419-39.87,244.683
		c-119.272,172.87-257.683,143.906-439.676-7.665c-320.708-267.091-445.015-72.837-450.42-51.552l0.899,0.484
		c1.128-39.815,122.805-258.799,443.51,8.291c181.996,151.571,320.397,180.53,439.672,7.664
		C1044.549,433.238,1019.875,333.598,1019.875,333.598"/>

		<radialGradient id="SVGID_14_" cx="-2625.3027" cy="31.3066" r="160.7579" gradientTransform="matrix(1.4792 0.4962 -0.5276 1.7383 4613.5698 1683.896)" gradientUnits="userSpaceOnUse">
		<stop  offset="0" style="stop-color:#065E7F"/>
		<stop  offset="1" style="stop-color:#FEF9C8;stop-opacity:0"/>
	</radialGradient>
	<path opacity="0.5" fill="url(#SVGID_14_)" enable-background="new    " d="M990.449,241.749c0,0,43.448,137.092-18.068,246.489
		c-103.983,184.933-245.166,172.696-440.949,44.48c-8.588-5.625-384.31-329.416-446.958,57.613l7.836-84.447
		c3.512-21.673,84.272-240.664,429.279-14.722c195.785,128.218,336.966,140.447,440.956-44.479
		C1024.058,337.282,990.449,241.749,990.449,241.749"/>

		<linearGradient id="SVGID_15_" gradientUnits="userSpaceOnUse" x1="1352.4902" y1="-550.7227" x2="2200.9805" y2="-550.7227" gradientTransform="matrix(0.9907 -0.4864 0.4732 0.9638 -875.1523 1913.1396)">
		<stop  offset="0" style="stop-color:#ABCCB3;stop-opacity:0.7"/>
		<stop  offset="0.33" style="stop-color:#B4CFB5;stop-opacity:0.05"/>
		<stop  offset="0.803" style="stop-color:#C1D4B7;stop-opacity:0.5"/>
		<stop  offset="1" style="stop-color:#FEF9C8;stop-opacity:0"/>
	</linearGradient>
	<path fill="url(#SVGID_15_)" d="M1087.812,399.489c0,0,19.902,97.039-62.932,182.145
		c-149.566,167.731-334.528,66.082-476.006-56.331c-12.505-10.816-43.946-38.226-100.37-92.625
		c-74.527-71.85-117.779-52.111-203.693,11.77c-129.747,104.17-156.487,25.633-158.798,18.255l-2.249,15.329
		c2.309,7.377,29.053,85.917,158.8-18.255c80.819-63.271,134.631-64.823,192.819-10.92c58.192,53.903,60.981,55.622,115.15,105.005
		c185.841,169.432,321.161,206.705,477.954,68.741C1111.32,537.491,1087.812,399.489,1087.812,399.489"/>
</g>
<g id="bubble">

		<radialGradient id="SVGID_16_" cx="-82.1465" cy="1198.7871" r="47.4844" gradientTransform="matrix(2.398 0 0 -2.4744 257.5409 3777.4614)" gradientUnits="userSpaceOnUse">
		<stop  offset="0.0592" style="stop-color:#AEAB93;stop-opacity:0.4372"/>
		<stop  offset="0.5718" style="stop-color:#587E77;stop-opacity:0.3331"/>
		<stop  offset="1" style="stop-color:#366C6C;stop-opacity:0"/>
	</radialGradient>
	<ellipse fill="url(#SVGID_16_)" cx="60.552" cy="811.183" rx="113.87" ry="117.494"/>

		<radialGradient id="SVGID_17_" cx="-112.4541" cy="1189.0664" r="69.3779" gradientTransform="matrix(2.398 0 0 -2.4744 257.5409 3777.4614)" gradientUnits="userSpaceOnUse">
		<stop  offset="3.896629e-004" style="stop-color:#587E77;stop-opacity:0.3331"/>
		<stop  offset="0.5616" style="stop-color:#AEAB93;stop-opacity:0.3"/>
		<stop  offset="1" style="stop-color:#366C6C;stop-opacity:0"/>
	</radialGradient>
	<path fill="url(#SVGID_17_)" d="M-12.126,663.568c91.884,0,166.371,76.856,166.371,171.665c0,94.81-74.486,171.669-166.371,171.669
		c-91.884,0-166.369-76.857-166.369-171.669C-178.496,740.426-104.01,663.568-12.126,663.568z"/>

		<radialGradient id="SVGID_18_" cx="307.9443" cy="1058.9883" r="69.3755" gradientTransform="matrix(3.1212 0 0 -3.2305 -806.9092 4146.5317)" gradientUnits="userSpaceOnUse">
		<stop  offset="3.896629e-004" style="stop-color:#587E77;stop-opacity:0.3331"/>
		<stop  offset="0.5468" style="stop-color:#AEAB93;stop-opacity:0.1"/>
		<stop  offset="0.67" style="stop-color:#366C6C;stop-opacity:0"/>
	</radialGradient>
	<path fill="url(#SVGID_18_)" d="M154.245,501.355c119.588,0,216.536,100.337,216.536,224.116
		c0,123.782-96.946,224.121-216.536,224.121c-119.591,0-216.538-100.339-216.538-224.12
		C-62.293,601.694,34.654,501.355,154.245,501.355z"/>

		<linearGradient id="SVGID_19_" gradientUnits="userSpaceOnUse" x1="106.5977" y1="1329.3789" x2="182.0464" y2="1329.3789" gradientTransform="matrix(2.398 0 0 -2.4744 257.5409 3777.4614)">
		<stop  offset="0.5468" style="stop-color:#99CCCC;stop-opacity:0"/>
		<stop  offset="0.7931" style="stop-color:#C8E1CA;stop-opacity:0.8"/>
		<stop  offset="1" style="stop-color:#FEF9C8;stop-opacity:0"/>
	</linearGradient>
	<ellipse opacity="0.1" fill="url(#SVGID_19_)" enable-background="new    " cx="603.624" cy="488.047" rx="90.462" ry="93.345"/>
</g>
<g id="logoGroup_1_" opacity="0.8">
	<g id="logo_1_" enable-background="new    ">
		<path fill="#FFFFFF" d="M822.187,381.591c-2.826,0.038,0.541,1.456,4.24,2.028c1.022-0.799,1.943-1.604,2.767-2.39
			C826.896,381.792,824.555,381.806,822.187,381.591"/>
		<path fill="#FFFFFF" d="M837.39,377.803c1.69-2.335,2.917-4.878,3.354-7.512c-0.378,1.875-1.396,3.493-2.358,5.21
			c-5.294,3.337-0.501-1.978-0.002-4C832.69,378.669,837.597,375.797,837.39,377.803"/>
		<path fill="#FFFFFF" d="M843.005,363.197c0.345-5.099-1-3.482-1.455-1.542C842.076,361.933,842.495,365.252,843.005,363.197"/>
		<path fill="#FFFFFF" d="M811.447,293.48c1.512,0.272,3.267,0.478,3.013,0.843C816.12,293.955,816.494,293.625,811.447,293.48"/>
		<path fill="#FFFFFF" d="M814.46,294.318l-1.062,0.223l0.995-0.093L814.46,294.318"/>
		<path fill="#FFFFFF" d="M861.607,365.133c0.17,4.579-1.341,6.803-2.705,10.74l-2.447,1.221c-2.008,3.891,0.2,2.473-1.241,5.565
			c-3.129,2.78-9.488,8.702-11.518,9.244c-1.49-0.033,1.004-1.756,1.332-2.43c-4.19,2.875-3.361,4.316-9.766,6.066l-0.189-0.42
			c-15.791,7.431-37.724-7.292-37.439-27.382c-0.166,1.275-0.479,0.959-0.826,1.472c-0.817-10.334,4.777-20.71,14.198-24.958
			c9.216-4.559,20.026-2.696,26.623,3.468c-3.626-4.75-10.844-9.784-19.396-9.32c-8.379,0.138-16.224,5.465-18.841,11.243
			c-4.292,2.706-4.791,10.419-6.661,11.833c-2.519,18.501,4.729,26.49,17.006,35.894c1.925,1.306,0.543,1.501,0.8,2.493
			c-4.076-1.904-7.806-4.788-10.874-8.314c1.629,2.377,3.386,4.693,5.657,6.519c-3.847-1.301-8.982-9.313-10.479-9.64
			c6.629,11.863,26.873,20.803,37.49,16.365c-4.911,0.182-11.146,0.102-16.659-1.938c-2.318-1.193-5.467-3.658-4.909-4.116
			c14.482,5.402,29.429,4.091,41.954-5.95c3.188-2.481,6.669-6.701,7.671-6.76c-1.516,2.28,0.262,1.097-0.904,3.104
			c3.171-5.119-1.382-2.085,3.277-8.837l1.727,2.367c-0.645-4.253,5.283-9.412,4.675-16.132c1.359-2.057,1.513,2.214,0.072,6.937
			c2.003-5.246,0.532-6.086,1.044-10.419c0.548,1.457,1.283,3.005,1.654,4.537c-1.303-5.069,1.334-8.53,1.988-11.479
			c-0.646-0.283-2.009,2.239-2.326-3.743c0.049-2.604,0.728-1.364,0.991-2.005c-0.51-0.296-1.846-2.29-2.661-6.112
			c0.587-0.897,1.579,2.329,2.377,2.458c-0.512-3.036-1.401-5.356-1.445-7.689c-2.346-4.909-0.829,0.657-2.732-2.105
			c-2.504-7.801,2.068-1.81,2.387-5.352c3.786,5.49,5.943,13.998,6.937,17.522c-0.759-4.296-1.979-8.458-3.475-12.489
			c1.153,0.489-1.862-8.84,1.496-2.663c-3.58-13.166-15.314-25.468-26.105-31.238c1.313,1.206,2.986,2.724,2.389,2.963
			c-5.372-3.19-4.429-3.445-5.197-4.796c-4.373-1.778-4.663,0.146-7.55,0.008c-8.247-4.376-9.836-3.911-17.426-6.653l0.342,1.622
			c-5.456-1.825-6.361,0.68-12.268,0.004c-0.353-0.283,1.896-1.017,3.744-1.285c-5.277,0.698-5.03-1.043-10.195,0.194
			c1.27-0.892,2.617-1.49,3.975-2.246c-4.303,0.264-10.28,2.506-8.438,0.46c-7.026,3.138-19.498,7.537-26.499,14.1l-0.221-1.471
			c-3.204,3.853-13.984,11.498-14.848,16.494l-0.854,0.195c-1.671,2.828-2.753,6.031-4.074,8.935
			c-2.185,3.723-3.202,1.435-2.892,2.016c-4.293,8.707-6.43,16.019-8.27,22.022c1.313,1.957,0.029,11.812,0.529,19.695
			c-2.155,38.941,27.329,76.759,59.561,85.481c4.724,1.698,11.747,1.631,17.72,1.8c-7.05-2.014-7.96-1.067-14.828-3.465
			c-4.95-2.333-6.041-4.991-9.55-8.041l1.388,2.453c-6.88-2.437-3.996-3.016-9.604-4.787l1.488-1.934
			c-2.23-0.168-5.906-3.756-6.915-5.75l-2.443,0.1c-2.93-3.613-4.494-6.223-4.374-8.245l-0.794,1.407
			c-0.893-1.53-10.785-13.568-5.653-10.766c-0.951-0.871-2.223-1.417-3.593-3.917l1.042-1.188c-2.465-3.176-4.548-7.257-4.387-8.614
			c1.317,1.779,2.23,2.113,3.135,2.417c-6.234-15.476-6.586-0.849-11.312-15.75l1.001-0.08c-0.767-1.162-1.231-2.405-1.846-3.637
			l0.434-4.332c-4.488-5.185-1.251-22.073-0.604-31.333c0.448-3.765,3.747-7.774,6.257-14.063l-1.529-0.266
			c2.929-5.092,16.686-20.47,23.065-19.682c3.089-3.878-0.614-0.014-1.22-0.988c6.786-7.02,8.916-4.957,13.496-6.226
			c4.936-2.925-4.235,1.146-1.896-1.11c8.536-2.181,6.048-4.954,17.184-6.061c1.174,0.665-2.72,1.029-3.699,1.893
			c7.111-3.479,22.502-2.682,32.501,1.932c11.601,5.428,24.629,21.451,25.146,36.523l0.585,0.155
			c-0.291,5.992,0.922,12.924-1.187,19.291L861.607,365.133"/>
		<path fill="#FFFFFF" d="M791.271,385.476l-0.398,1.987c1.859,2.529,3.34,5.273,5.716,7.239
			C794.877,391.374,793.608,389.993,791.271,385.476"/>
		<path fill="#FFFFFF" d="M795.671,385.305c-0.989-1.086-1.568-2.399-2.227-3.707c0.628,2.296,1.907,4.27,3.096,6.281
			L795.671,385.305"/>
		<path fill="#FFFFFF" d="M873.55,368.378l-0.406,1.045c-0.762,5.418-2.42,10.782-4.941,15.753
			C870.988,379.929,872.786,374.193,873.55,368.378"/>
		<path fill="#FFFFFF" d="M812.01,292.121c1.912-0.698,4.705-0.384,6.742-0.848c-2.652,0.226-5.288,0.357-7.89,0.687L812.01,292.121
			"/>
		<path fill="#FFFFFF" d="M744.766,327.875c0.442,4.083-3.07,5.669,0.774,2.974C747.607,326.199,744.74,329.564,744.766,327.875"/>
		<path fill="#FFFFFF" d="M740.241,346.782c0.883-2.723,1.05-4.357,1.389-5.934C739.175,343.983,740.496,344.649,740.241,346.782"/>
	</g>
</g>
</svg>
