<?xml version="1.0" encoding="utf-8"?>
<!-- Generator: Adobe Illustrator 16.0.0, SVG Export Plug-In . SVG Version: 6.00 Build 0)  -->
<!DOCTYPE svg PUBLIC "-//W3C//DTD SVG 1.1//EN" "http://www.w3.org/Graphics/SVG/1.1/DTD/svg11.dtd">
<svg version="1.1" id="root" xmlns="http://www.w3.org/2000/svg" xmlns:xlink="http://www.w3.org/1999/xlink" x="0px" y="0px"
	 width="1600px" height="1200px" viewBox="0 0 1600 1200" enable-background="new 0 0 1600 1200" xml:space="preserve">
<g id="background_1_">

		<linearGradient id="SVGID_1_" gradientUnits="userSpaceOnUse" x1="-877.4668" y1="-2237.6353" x2="-877.4673" y2="-1030.4608" gradientTransform="matrix(1 0 0 1 1679.0195 2238.835)">
		<stop  offset="0" style="stop-color:#133356"/>
		<stop  offset="0.5025" style="stop-color:#7C9999"/>
		<stop  offset="1" style="stop-color:#333333"/>
	</linearGradient>
	<rect x="-1.746" y="-1.708" fill="url(#SVGID_1_)" width="1606.595" height="1209.432"/>
	<g id="Layer_4">

			<radialGradient id="SVGID_2_" cx="-964.5449" cy="-1398.8472" r="779.1791" gradientTransform="matrix(1.0062 0 0 1.3528 1696.7471 2463.6682)" gradientUnits="userSpaceOnUse">
			<stop  offset="0" style="stop-color:#E4C8A5;stop-opacity:0.5"/>
			<stop  offset="0.1429" style="stop-color:#AEAB93;stop-opacity:0.4372"/>
			<stop  offset="0.3797" style="stop-color:#587E77;stop-opacity:0.3331"/>
			<stop  offset="0.4877" style="stop-color:#366C6C;stop-opacity:0.2857"/>
		</radialGradient>
		<rect x="-2.373" y="-0.581" fill="url(#SVGID_2_)" width="1607.222" height="1208.304"/>
	</g>
</g>
<g id="glows">

		<radialGradient id="SVGID_3_" cx="-438.8901" cy="-1639.8506" r="230.8933" gradientTransform="matrix(1 0 0 1 1679.0195 2238.835)" gradientUnits="userSpaceOnUse">
		<stop  offset="0" style="stop-color:#FFFCDD"/>
		<stop  offset="1" style="stop-color:#FEF9C8;stop-opacity:0"/>
	</radialGradient>
	<circle opacity="0.2" fill="url(#SVGID_3_)" enable-background="new    " cx="1240.13" cy="598.984" r="230.893"/>

		<radialGradient id="SVGID_4_" cx="-567.1211" cy="-1719.311" r="182.7581" gradientTransform="matrix(1 0 0 1 1679.0195 2238.835)" gradientUnits="userSpaceOnUse">
		<stop  offset="0" style="stop-color:#99CCCC"/>
		<stop  offset="1" style="stop-color:#FEF9C8;stop-opacity:0"/>
	</radialGradient>
	<circle opacity="0.2" fill="url(#SVGID_4_)" enable-background="new    " cx="1111.898" cy="519.524" r="182.757"/>

		<radialGradient id="SVGID_5_" cx="-1355.9736" cy="-1750.7358" r="242.3" gradientTransform="matrix(1 0 0 1 1679.0195 2238.835)" gradientUnits="userSpaceOnUse">
		<stop  offset="0" style="stop-color:#FFFCDD"/>
		<stop  offset="1" style="stop-color:#FEF9C8;stop-opacity:0"/>
	</radialGradient>
	<circle opacity="0.1" fill="url(#SVGID_5_)" enable-background="new    " cx="323.046" cy="488.099" r="242.299"/>

		<radialGradient id="SVGID_6_" cx="-1200.5039" cy="-1594.4028" r="242.2991" gradientTransform="matrix(1 0 0 1 1679.0195 2238.835)" gradientUnits="userSpaceOnUse">
		<stop  offset="0" style="stop-color:#FFFCDD"/>
		<stop  offset="1" style="stop-color:#FEF9C8;stop-opacity:0"/>
	</radialGradient>
	<circle opacity="0.1" fill="url(#SVGID_6_)" enable-background="new    " cx="478.516" cy="644.432" r="242.298"/>

		<radialGradient id="SVGID_7_" cx="-1120.8428" cy="-1517.6328" r="309.9688" gradientTransform="matrix(1 0 0 1 1679.0195 2238.835)" gradientUnits="userSpaceOnUse">
		<stop  offset="0" style="stop-color:#FFFCDD"/>
		<stop  offset="1" style="stop-color:#FEF9C8;stop-opacity:0"/>
	</radialGradient>
	<path opacity="0.1" fill="url(#SVGID_7_)" enable-background="new    " d="M558.18,411.232
		c171.191,0,309.965,138.778,309.965,309.969c0,171.192-138.771,309.971-309.965,309.971S248.209,892.393,248.209,721.2
		C248.209,550.012,386.987,411.232,558.18,411.232z"/>

		<radialGradient id="SVGID_8_" cx="-615.1636" cy="-1581.9434" r="309.9695" gradientTransform="matrix(1 0 0 1 1679.0195 2238.835)" gradientUnits="userSpaceOnUse">
		<stop  offset="0" style="stop-color:#FFFCDD"/>
		<stop  offset="1" style="stop-color:#FEF9C8;stop-opacity:0"/>
	</radialGradient>
	<circle opacity="0.1" fill="url(#SVGID_8_)" enable-background="new    " cx="1063.856" cy="656.892" r="309.969"/>

		<radialGradient id="SVGID_9_" cx="-1149.9077" cy="-1705.9863" r="309.968" gradientTransform="matrix(1 0 0 1 1679.0195 2238.835)" gradientUnits="userSpaceOnUse">
		<stop  offset="0" style="stop-color:#99CCCC"/>
		<stop  offset="1" style="stop-color:#FEF9C8;stop-opacity:0"/>
	</radialGradient>
	<path opacity="0.2" fill="url(#SVGID_9_)" enable-background="new    " d="M529.114,222.879
		c171.192,0,309.965,138.778,309.965,309.97c0,171.189-138.772,309.968-309.965,309.968c-171.19,0-309.97-138.777-309.97-309.968
		C219.145,361.658,357.924,222.879,529.114,222.879z"/>

		<radialGradient id="SVGID_10_" cx="-377.2798" cy="-1691.1021" r="309.9692" gradientTransform="matrix(1 0 0 1 1679.0195 2238.835)" gradientUnits="userSpaceOnUse">
		<stop  offset="0" style="stop-color:#FFFCDD"/>
		<stop  offset="1" style="stop-color:#FEF9C8;stop-opacity:0"/>
	</radialGradient>
	<circle opacity="0.2" fill="url(#SVGID_10_)" enable-background="new    " cx="1301.739" cy="547.733" r="309.968"/>

		<radialGradient id="SVGID_11_" cx="-468.106" cy="-1472.7861" r="309.9695" gradientTransform="matrix(1 0 0 1 1679.0195 2238.835)" gradientUnits="userSpaceOnUse">
		<stop  offset="0" style="stop-color:#99CCCC"/>
		<stop  offset="1" style="stop-color:#FEF9C8;stop-opacity:0"/>
	</radialGradient>
	<circle opacity="0.2" fill="url(#SVGID_11_)" enable-background="new    " cx="1210.913" cy="766.049" r="309.969"/>
</g>
<g id="rounds">
	<path fill="none" stroke="#FFFFFF" stroke-width="2" stroke-miterlimit="10" d="M737.515,638.594"/>
	<circle opacity="0.5" fill="#FFFFFF" enable-background="new    " cx="1443.667" cy="534.071" r="9.979"/>
	<circle opacity="0.9" fill="#FFFFFF" enable-background="new    " cx="1369.167" cy="357.505" r="9.979"/>
	<circle opacity="0.1" fill="#FFFFFF" enable-background="new    " cx="1320.039" cy="871.871" r="9.98"/>
	<circle opacity="0.3" fill="#FFFFFF" enable-background="new    " cx="1417.365" cy="715.304" r="9.98"/>
</g>
<g id="octopus_3_">

		<radialGradient id="SVGID_12_" cx="-2090.5034" cy="527.5908" r="613.317" gradientTransform="matrix(1.4647 0.5424 0.5668 -1.7245 3718.4111 2535.0879)" gradientUnits="userSpaceOnUse">
		<stop  offset="0" style="stop-color:#99CCCC"/>
		<stop  offset="1" style="stop-color:#FEF9C8;stop-opacity:0"/>
	</radialGradient>
	<path opacity="0.2" fill="url(#SVGID_12_)" enable-background="new    " d="M1250.21,326.489c0,0,49.357,170.24-29.149,302.468
		c-132.712,223.517-305.405,203.15-541.722,38.078C262.915,376.15,148.227,592.54,143.31,619.057l-1.412-1.572
		c4.92-26.522,110.139-292.814,526.569-1.928c236.307,165.075,408.997,185.44,541.713-38.074
		C1288.689,445.247,1250.21,326.489,1250.21,326.489"/>

		<radialGradient id="SVGID_13_" cx="-2105.7437" cy="-31.8921" r="526.9794" gradientTransform="matrix(1.4173 0.672 0.6766 -1.6781 3830.6008 2038.0106)" gradientUnits="userSpaceOnUse">
		<stop  offset="0" style="stop-color:#FFFCDD"/>
		<stop  offset="1" style="stop-color:#FEF9C8;stop-opacity:0"/>
	</radialGradient>
	<path opacity="0.1" fill="url(#SVGID_13_)" enable-background="new    " d="M1265.126,389.986c0,0,37.685,174.917-48.97,300.516
		c-146.489,212.318-316.482,176.746-540.003-9.414c-393.893-328.037-546.567-89.456-553.205-63.315l1.105,0.597
		c1.386-48.897,150.828-317.854,544.717,10.184c223.521,186.16,393.507,221.726,540.001,9.412
		C1295.432,512.362,1265.126,389.986,1265.126,389.986"/>

		<radialGradient id="SVGID_14_" cx="-2127.0474" cy="655.8838" r="197.4427" gradientTransform="matrix(1.4792 0.4962 0.5276 -1.7383 3689.3748 2710.8777)" gradientUnits="userSpaceOnUse">
		<stop  offset="0" style="stop-color:#065E7F"/>
		<stop  offset="1" style="stop-color:#FEF9C8;stop-opacity:0"/>
	</radialGradient>
	<path opacity="0.5" fill="url(#SVGID_14_)" enable-background="new    " d="M1228.985,277.176c0,0,53.366,168.376-22.191,302.735
		c-127.714,227.132-301.111,212.102-541.566,54.63c-10.548-6.91-472.008-404.584-548.953,70.76l9.625-103.717
		c4.312-26.615,103.504-295.582,527.241-18.078c240.458,157.473,413.856,172.492,541.574-54.63
		C1270.263,394.509,1228.985,277.176,1228.985,277.176"/>

		<linearGradient id="SVGID_15_" gradientUnits="userSpaceOnUse" x1="1710.5244" y1="1668.6641" x2="2752.6348" y2="1668.6641" gradientTransform="matrix(0.9907 -0.4864 -0.4732 -0.9638 -641.7357 3310.3447)">
		<stop  offset="0" style="stop-color:#ABCCB3;stop-opacity:0.7"/>
		<stop  offset="0.33" style="stop-color:#B4CFB5;stop-opacity:0.05"/>
		<stop  offset="0.803" style="stop-color:#C1D4B7;stop-opacity:0.5"/>
		<stop  offset="1" style="stop-color:#FEF9C8;stop-opacity:0"/>
	</linearGradient>
	<path fill="url(#SVGID_15_)" d="M1348.567,470.911c0,0,24.443,119.184-77.295,223.708
		c-183.696,206.008-410.867,81.162-584.626-69.187c-15.357-13.287-53.974-46.946-123.273-113.757
		c-91.533-88.247-144.654-64.004-250.175,14.454c-159.356,127.938-192.2,31.48-195.036,22.42l-2.761,18.827
		c2.834,9.06,35.681,105.518,195.037-22.421c99.263-77.712,165.353-79.615,236.821-13.412
		c71.472,66.205,74.896,68.312,141.429,128.964c228.245,208.094,394.443,253.874,587.017,84.428
		C1377.439,640.402,1348.567,470.911,1348.567,470.911"/>
</g>
<g id="bubble">

		<radialGradient id="SVGID_16_" cx="516.2021" cy="-537.5781" r="58.3198" gradientTransform="matrix(2.398 0 0 2.4744 -1150.9595 2306.7349)" gradientUnits="userSpaceOnUse">
		<stop  offset="0.0592" style="stop-color:#AEAB93;stop-opacity:0.4372"/>
		<stop  offset="0.5718" style="stop-color:#587E77;stop-opacity:0.3331"/>
		<stop  offset="1" style="stop-color:#366C6C;stop-opacity:0"/>
	</radialGradient>
	<ellipse fill="url(#SVGID_16_)" cx="86.894" cy="976.552" rx="139.853" ry="144.306"/>

		<radialGradient id="SVGID_17_" cx="478.9775" cy="-525.6396" r="85.21" gradientTransform="matrix(2.398 0 0 2.4744 -1150.9595 2306.7349)" gradientUnits="userSpaceOnUse">
		<stop  offset="3.896629e-004" style="stop-color:#587E77;stop-opacity:0.3331"/>
		<stop  offset="0.5616" style="stop-color:#AEAB93;stop-opacity:0.3"/>
		<stop  offset="1" style="stop-color:#366C6C;stop-opacity:0"/>
	</radialGradient>
	<path fill="url(#SVGID_17_)" d="M-2.372,795.252c112.852,0,204.336,94.395,204.336,210.838
		c0,116.445-91.483,210.844-204.336,210.844c-112.851,0-204.334-94.396-204.334-210.844
		C-206.707,889.646-115.223,795.252-2.372,795.252z"/>

		<radialGradient id="SVGID_18_" cx="990.1035" cy="-394.168" r="85.207" gradientTransform="matrix(3.1212 0 0 3.2305 -2888.3462 2144.6453)" gradientUnits="userSpaceOnUse">
		<stop  offset="3.896629e-004" style="stop-color:#587E77;stop-opacity:0.3331"/>
		<stop  offset="0.5468" style="stop-color:#AEAB93;stop-opacity:0.1"/>
		<stop  offset="0.67" style="stop-color:#366C6C;stop-opacity:0"/>
	</radialGradient>
	<path fill="url(#SVGID_18_)" d="M201.965,596.024c146.878,0,265.948,123.232,265.948,275.254
		c0,152.032-119.067,275.267-265.948,275.267c-146.881,0-265.952-123.234-265.952-275.266
		C-63.986,719.258,55.083,596.024,201.965,596.024z"/>

		<linearGradient id="SVGID_19_" gradientUnits="userSpaceOnUse" x1="748.0166" y1="-697.9707" x2="840.6807" y2="-697.9707" gradientTransform="matrix(2.398 0 0 2.4744 -1150.9595 2306.7349)">
		<stop  offset="0.5468" style="stop-color:#99CCCC;stop-opacity:0"/>
		<stop  offset="0.7931" style="stop-color:#C8E1CA;stop-opacity:0.8"/>
		<stop  offset="1" style="stop-color:#FEF9C8;stop-opacity:0"/>
	</linearGradient>
	<path opacity="0.1" fill="url(#SVGID_19_)" enable-background="new    " d="M753.892,465.032
		c61.355,0,111.102,51.33,111.102,114.646c0,63.313-49.745,114.643-111.102,114.643c-61.363,0-111.107-51.329-111.107-114.643
		C642.784,516.361,692.528,465.032,753.892,465.032z"/>
</g>
<g id="logoGroup_1_" opacity="0.8">
	<g id="logo_1_" enable-background="new    ">
		<path fill="#FFFFFF" d="M1022.329,448.932c-3.476,0.046,0.66,1.788,5.203,2.49c1.258-0.982,2.392-1.971,3.399-2.936
			C1028.111,449.177,1025.233,449.195,1022.329,448.932"/>
		<path fill="#FFFFFF" d="M1040.999,444.277c2.077-2.867,3.584-5.991,4.118-9.226c-0.466,2.303-1.716,4.291-2.897,6.399
			c-6.502,4.099-0.615-2.43-0.003-4.915C1035.228,445.342,1041.251,441.814,1040.999,444.277"/>
		<path fill="#FFFFFF" d="M1047.896,426.338c0.423-6.261-1.229-4.277-1.787-1.896
			C1046.755,424.787,1047.268,428.863,1047.896,426.338"/>
		<path fill="#FFFFFF" d="M1009.134,340.712c1.859,0.335,4.015,0.588,3.703,1.036
			C1014.874,341.293,1015.337,340.892,1009.134,340.712"/>
		<path fill="#FFFFFF" d="M1012.835,341.743l-1.303,0.274l1.224-0.115L1012.835,341.743"/>
		<path fill="#FFFFFF" d="M1070.743,428.717c0.208,5.623-1.646,8.354-3.322,13.19l-3.008,1.499
			c-2.464,4.777,0.246,3.036-1.522,6.835c-3.842,3.416-11.656,10.688-14.147,11.354c-1.827-0.041,1.232-2.156,1.639-2.981
			c-5.148,3.531-4.13,5.3-11.995,7.45l-0.231-0.516c-19.396,9.128-46.332-8.956-45.983-33.63c-0.203,1.567-0.588,1.178-1.017,1.809
			c-1.003-12.692,5.87-25.438,17.439-30.653c11.318-5.6,24.597-3.312,32.698,4.26c-4.453-5.834-13.317-12.018-23.823-11.449
			c-10.293,0.169-19.926,6.713-23.139,13.811c-5.274,3.323-5.889,12.796-8.185,14.532c-3.091,22.723,5.812,32.535,20.888,44.083
			c2.363,1.604,0.668,1.844,0.981,3.063c-5.007-2.339-9.588-5.88-13.354-10.213c2,2.921,4.154,5.765,6.946,8.006
			c-4.726-1.598-11.034-11.438-12.869-11.838c8.142,14.569,33.007,25.55,46.048,20.101c-6.034,0.225-13.691,0.126-20.463-2.381
			c-2.849-1.466-6.715-4.495-6.027-5.058c17.784,6.639,36.143,5.025,51.526-7.307c3.912-3.048,8.191-8.231,9.425-8.303
			c-1.863,2.801,0.32,1.347-1.113,3.813c3.894-6.288-1.695-2.562,4.026-10.854l2.119,2.905c-0.79-5.224,6.487-11.56,5.741-19.813
			c1.671-2.525,1.858,2.718,0.089,8.52c2.459-6.442,0.654-7.475,1.28-12.796c0.672,1.789,1.575,3.691,2.035,5.571
			c-1.601-6.225,1.638-10.477,2.44-14.099c-0.794-0.349-2.468,2.75-2.854-4.598c0.059-3.197,0.891-1.676,1.212-2.463
			c-0.621-0.362-2.265-2.812-3.266-7.506c0.722-1.102,1.938,2.861,2.921,3.02c-0.629-3.73-1.725-6.579-1.775-9.444
			c-2.88-6.03-1.02,0.807-3.357-2.587c-3.073-9.582,2.543-2.223,2.933-6.575c4.649,6.743,7.299,17.193,8.52,21.521
			c-0.933-5.276-2.43-10.389-4.269-15.338c1.417,0.601-2.287-10.856,1.839-3.27c-4.396-16.171-18.81-31.28-32.066-38.367
			c1.617,1.482,3.671,3.346,2.938,3.64c-6.6-3.918-5.44-4.23-6.386-5.891c-5.369-2.184-5.728,0.181-9.272,0.01
			c-10.128-5.375-12.078-4.804-21.4-8.17l0.42,1.99c-6.701-2.24-7.813,0.835-15.068,0.006c-0.432-0.348,2.328-1.249,4.601-1.579
			c-6.483,0.858-6.179-1.28-12.523,0.239c1.559-1.096,3.218-1.83,4.884-2.758c-5.286,0.324-12.629,3.077-10.362,0.564
			c-8.633,3.854-23.95,9.257-32.549,17.318l-0.269-1.807c-3.938,4.732-17.178,14.123-18.235,20.258l-1.051,0.239
			c-2.052,3.473-3.382,7.407-5.005,10.974c-2.685,4.573-3.934,1.762-3.551,2.477c-5.272,10.693-7.896,19.672-10.158,27.048
			c1.613,2.403,0.038,14.506,0.651,24.188c-2.647,47.829,33.564,94.274,73.15,104.989c5.802,2.085,14.429,2.004,21.764,2.21
			c-8.656-2.474-9.774-1.313-18.211-4.255c-6.081-2.864-7.42-6.129-11.729-9.875l1.707,3.014c-8.449-2.993-4.911-3.705-11.796-5.879
			l1.827-2.376c-2.738-0.206-7.256-4.612-8.493-7.062l-3.001,0.121c-3.6-4.438-5.521-7.643-5.374-10.127l-0.974,1.729
			c-1.098-1.879-13.247-16.664-6.943-13.224c-1.171-1.068-2.73-1.739-4.414-4.811l1.28-1.46c-3.026-3.9-5.587-8.913-5.389-10.578
			c1.618,2.185,2.739,2.594,3.85,2.968c-7.657-19.007-8.088-1.043-13.893-19.345l1.23-0.099c-0.941-1.429-1.516-2.955-2.271-4.468
			l0.534-5.319c-5.513-6.367-1.536-27.11-0.741-38.483c0.551-4.626,4.6-9.55,7.686-17.272l-1.88-0.325
			c3.599-6.254,20.493-25.142,28.332-24.174c3.793-4.764-0.758-0.018-1.5-1.214c8.337-8.622,10.952-6.088,16.575-7.647
			c6.063-3.593-5.202,1.408-2.326-1.363c10.482-2.679,7.426-6.086,21.104-7.445c1.441,0.817-3.344,1.265-4.543,2.326
			c8.732-4.273,27.636-3.294,39.919,2.372c14.246,6.666,30.249,26.347,30.883,44.858l0.72,0.19
			c-0.358,7.359,1.132,15.874-1.462,23.693L1070.743,428.717"/>
		<path fill="#FFFFFF" d="M984.355,453.701l-0.491,2.439c2.284,3.105,4.103,6.478,7.021,8.892
			C988.784,460.944,987.227,459.247,984.355,453.701"/>
		<path fill="#FFFFFF" d="M989.759,453.491c-1.215-1.334-1.929-2.946-2.734-4.552c0.771,2.821,2.344,5.243,3.803,7.713
			L989.759,453.491"/>
		<path fill="#FFFFFF" d="M1085.408,432.702l-0.499,1.285c-0.934,6.655-2.969,13.243-6.065,19.348
			C1082.266,446.891,1084.471,439.845,1085.408,432.702"/>
		<path fill="#FFFFFF" d="M1009.825,339.042c2.352-0.857,5.78-0.472,8.281-1.04c-3.256,0.277-6.494,0.439-9.689,0.844
			L1009.825,339.042"/>
		<path fill="#FFFFFF" d="M927.238,382.957c0.543,5.015-3.771,6.962,0.951,3.651C930.729,380.896,927.206,385.032,927.238,382.957"
			/>
		<path fill="#FFFFFF" d="M921.68,406.178c1.085-3.343,1.291-5.353,1.705-7.288C920.372,402.74,921.994,403.559,921.68,406.178"/>
	</g>
</g>
</svg>
