<?xml version="1.0" encoding="UTF-8" standalone="no"?>
<!-- Generator: Adobe Illustrator 16.0.0, SVG Export Plug-In . SVG Version: 6.00 Build 0)  -->

<svg
   xmlns:dc="http://purl.org/dc/elements/1.1/"
   xmlns:cc="http://creativecommons.org/ns#"
   xmlns:rdf="http://www.w3.org/1999/02/22-rdf-syntax-ns#"
   xmlns:svg="http://www.w3.org/2000/svg"
   xmlns="http://www.w3.org/2000/svg"
   xmlns:sodipodi="http://sodipodi.sourceforge.net/DTD/sodipodi-0.dtd"
   xmlns:inkscape="http://www.inkscape.org/namespaces/inkscape"
   version="1.1"
   id="root"
   x="0px"
   y="0px"
   width="2560"
   height="1600"
   viewBox="0 0 2560 1600"
   enable-background="new 0 0 1920 1200"
   xml:space="preserve"
   inkscape:version="0.91 r13725"
   sodipodi:docname="2560x1600.svg"><metadata
     id="metadata4837"><rdf:RDF><cc:Work
         rdf:about=""><dc:format>image/svg+xml</dc:format><dc:type
           rdf:resource="http://purl.org/dc/dcmitype/StillImage" /><dc:title></dc:title></cc:Work></rdf:RDF></metadata><defs
     id="defs4835" /><sodipodi:namedview
     pagecolor="#ffffff"
     bordercolor="#666666"
     borderopacity="1"
     objecttolerance="10"
     gridtolerance="10"
     guidetolerance="10"
     inkscape:pageopacity="0"
     inkscape:pageshadow="2"
     inkscape:window-width="1920"
     inkscape:window-height="1007"
     id="namedview4833"
     showgrid="false"
     inkscape:zoom="0.32291667"
     inkscape:cx="1414.243"
     inkscape:cy="636.56964"
     inkscape:window-x="0"
     inkscape:window-y="0"
     inkscape:window-maximized="1"
     inkscape:current-layer="root"
     fit-margin-top="0"
     fit-margin-left="0"
     fit-margin-right="0"
     fit-margin-bottom="0" /><g
     id="background_1_"
     transform="matrix(1.333333,0,0,1.333333,1.4052734e-5,3.6501953e-4)"><linearGradient
       id="SVGID_1_"
       gradientUnits="userSpaceOnUse"
       x1="-1040.8335"
       y1="2487.3613"
       x2="-1040.834"
       y2="1289.5101"
       gradientTransform="matrix(1,0,0,-1,2002,2490.7148)"><stop
         offset="0"
         style="stop-color:#133356"
         id="stop4642" /><stop
         offset="0.5025"
         style="stop-color:#7C9999"
         id="stop4644" /><stop
         offset="1"
         style="stop-color:#333333"
         id="stop4646" /></linearGradient><rect
       x="0.041000001"
       y="0.46799999"
       width="1922.25"
       height="1200.09"
       id="rect4648"
       style="fill:url(#SVGID_1_)" /></g><g
     id="Layer_4"
     transform="matrix(1.333333,0,0,1.333333,1.4052734e-5,3.6501953e-4)"><radialGradient
       id="SVGID_2_"
       cx="-1141.3408"
       cy="1741.8223"
       r="942.22357"
       gradientTransform="matrix(0.9956,0,0,-1.1101,2007.3188,2502.5781)"
       gradientUnits="userSpaceOnUse"><stop
         offset="0"
         style="stop-color:#E4C8A5;stop-opacity:0.5"
         id="stop4652" /><stop
         offset="0.1429"
         style="stop-color:#AEAB93;stop-opacity:0.4372"
         id="stop4654" /><stop
         offset="0.3797"
         style="stop-color:#587E77;stop-opacity:0.3331"
         id="stop4656" /><stop
         offset="0.4877"
         style="stop-color:#366C6C;stop-opacity:0.2857"
         id="stop4658" /></radialGradient><rect
       x="-0.70899999"
       y="1.5880001"
       width="1923"
       height="1198.97"
       id="rect4660"
       style="fill:url(#SVGID_2_)" /></g><g
     id="glows"
     transform="matrix(1.333333,0,0,1.333333,1.4052734e-5,3.6501953e-4)"><radialGradient
       id="SVGID_3_"
       cx="-509.97269"
       cy="1898.1797"
       r="279.20801"
       gradientTransform="matrix(1,0,0,-1,2002,2490.7148)"
       gradientUnits="userSpaceOnUse"><stop
         offset="0"
         style="stop-color:#FFFCDD"
         id="stop4664" /><stop
         offset="1"
         style="stop-color:#FEF9C8;stop-opacity:0"
         id="stop4666" /></radialGradient><circle
       enable-background="new    "
       cx="1492.027"
       cy="592.53497"
       r="279.20801"
       id="circle4668"
       style="opacity:0.2;fill:url(#SVGID_3_)" /><radialGradient
       id="SVGID_4_"
       cx="-665.03522"
       cy="1994.2656"
       r="221.0005"
       gradientTransform="matrix(1,0,0,-1,2002,2490.7148)"
       gradientUnits="userSpaceOnUse"><stop
         offset="0"
         style="stop-color:#99CCCC"
         id="stop4671" /><stop
         offset="1"
         style="stop-color:#FEF9C8;stop-opacity:0"
         id="stop4673" /></radialGradient><circle
       enable-background="new    "
       cx="1336.965"
       cy="496.448"
       r="221"
       id="circle4675"
       style="opacity:0.2;fill:url(#SVGID_4_)" /><radialGradient
       id="SVGID_5_"
       cx="-1618.96"
       cy="2032.2676"
       r="293.00101"
       gradientTransform="matrix(1,0,0,-1,2002,2490.7148)"
       gradientUnits="userSpaceOnUse"><stop
         offset="0"
         style="stop-color:#FFFCDD"
         id="stop4678" /><stop
         offset="1"
         style="stop-color:#FEF9C8;stop-opacity:0"
         id="stop4680" /></radialGradient><circle
       enable-background="new    "
       cx="383.04001"
       cy="458.448"
       r="293.00101"
       id="circle4682"
       style="opacity:0.1;fill:url(#SVGID_5_)" /><radialGradient
       id="SVGID_6_"
       cx="-1430.959"
       cy="1843.2227"
       r="293.00101"
       gradientTransform="matrix(1,0,0,-1,2002,2490.7148)"
       gradientUnits="userSpaceOnUse"><stop
         offset="0"
         style="stop-color:#FFFCDD"
         id="stop4685" /><stop
         offset="1"
         style="stop-color:#FEF9C8;stop-opacity:0"
         id="stop4687" /></radialGradient><circle
       enable-background="new    "
       cx="571.04102"
       cy="647.492"
       r="293.00101"
       id="circle4689"
       style="opacity:0.1;fill:url(#SVGID_6_)" /><radialGradient
       id="SVGID_7_"
       cx="-1334.625"
       cy="1750.3887"
       r="374.83099"
       gradientTransform="matrix(1,0,0,-1,2002,2490.7148)"
       gradientUnits="userSpaceOnUse"><stop
         offset="0"
         style="stop-color:#FFFCDD"
         id="stop4692" /><stop
         offset="1"
         style="stop-color:#FEF9C8;stop-opacity:0"
         id="stop4694" /></radialGradient><circle
       enable-background="new    "
       cx="667.375"
       cy="740.32599"
       r="374.83099"
       id="circle4696"
       style="opacity:0.1;fill:url(#SVGID_7_)" /><radialGradient
       id="SVGID_8_"
       cx="-723.12988"
       cy="1828.1553"
       r="374.83151"
       gradientTransform="matrix(1,0,0,-1,2002,2490.7148)"
       gradientUnits="userSpaceOnUse"><stop
         offset="0"
         style="stop-color:#FFFCDD"
         id="stop4699" /><stop
         offset="1"
         style="stop-color:#FEF9C8;stop-opacity:0"
         id="stop4701" /></radialGradient><circle
       enable-background="new    "
       cx="1278.87"
       cy="662.56"
       r="374.83099"
       id="circle4703"
       style="opacity:0.1;fill:url(#SVGID_8_)" /><radialGradient
       id="SVGID_9_"
       cx="-1369.7715"
       cy="1978.1543"
       r="374.83099"
       gradientTransform="matrix(1,0,0,-1,2002,2490.7148)"
       gradientUnits="userSpaceOnUse"><stop
         offset="0"
         style="stop-color:#99CCCC"
         id="stop4706" /><stop
         offset="1"
         style="stop-color:#FEF9C8;stop-opacity:0"
         id="stop4708" /></radialGradient><circle
       enable-background="new    "
       cx="632.229"
       cy="512.56097"
       r="374.83099"
       id="circle4710"
       style="opacity:0.2;fill:url(#SVGID_9_)" /><radialGradient
       id="SVGID_10_"
       cx="-435.4707"
       cy="1960.1553"
       r="374.83151"
       gradientTransform="matrix(1,0,0,-1,2002,2490.7148)"
       gradientUnits="userSpaceOnUse"><stop
         offset="0"
         style="stop-color:#FFFCDD"
         id="stop4713" /><stop
         offset="1"
         style="stop-color:#FEF9C8;stop-opacity:0"
         id="stop4715" /></radialGradient><circle
       enable-background="new    "
       cx="1566.5291"
       cy="530.56"
       r="374.83099"
       id="circle4717"
       style="opacity:0.2;fill:url(#SVGID_10_)" /><radialGradient
       id="SVGID_11_"
       cx="-545.30182"
       cy="1696.1562"
       r="374.83151"
       gradientTransform="matrix(1,0,0,-1,2002,2490.7148)"
       gradientUnits="userSpaceOnUse"><stop
         offset="0"
         style="stop-color:#99CCCC"
         id="stop4720" /><stop
         offset="1"
         style="stop-color:#FEF9C8;stop-opacity:0"
         id="stop4722" /></radialGradient><circle
       enable-background="new    "
       cx="1456.698"
       cy="794.55902"
       r="374.83099"
       id="circle4724"
       style="opacity:0.2;fill:url(#SVGID_11_)" /></g><g
     id="rounds"
     transform="matrix(1.333333,0,0,1.333333,1.4052734e-5,3.6501953e-4)"><path
       stroke-miterlimit="10"
       d="M 884.235,640.436"
       id="path4727"
       inkscape:connector-curvature="0"
       style="fill:none;stroke:#ffffff;stroke-width:2;stroke-miterlimit:10" /><circle
       enable-background="new    "
       cx="1738.156"
       cy="514.03699"
       r="12.067"
       id="circle4729"
       style="opacity:0.5;fill:#ffffff" /><circle
       enable-background="new    "
       cx="1648.067"
       cy="300.526"
       r="12.068"
       id="circle4731"
       style="opacity:0.9;fill:#ffffff" /><circle
       enable-background="new    "
       cx="1588.658"
       cy="922.52502"
       r="12.069"
       id="circle4733"
       style="opacity:0.1;fill:#ffffff" /><circle
       enable-background="new    "
       cx="1706.35"
       cy="733.19702"
       r="12.069"
       id="circle4735"
       style="opacity:0.3;fill:#ffffff" /></g><g
     id="octopus_3_"
     transform="matrix(1.333333,0,0,1.333333,1.4052734e-5,3.6501953e-4)"><radialGradient
       id="SVGID_12_"
       cx="-2910.0483"
       cy="139.51221"
       r="741.65399"
       gradientTransform="matrix(1.4647,0.5424,-0.5668,1.7245,5489.249,1800.223)"
       gradientUnits="userSpaceOnUse"><stop
         offset="0"
         style="stop-color:#99CCCC"
         id="stop4739" /><stop
         offset="1"
         style="stop-color:#FEF9C8;stop-opacity:0"
         id="stop4741" /></radialGradient><path
       enable-background="new    "
       d="m 1504.219,263.019 c 0,0 59.683,205.863 -35.25,365.762 C 1308.486,899.068 1099.658,874.442 813.886,674.828 310.327,323.073 171.64,584.74 165.694,616.811 l -1.707,-1.903 c 5.949,-32.076 133.185,-354.088 636.752,-2.331 285.761,199.617 494.587,224.244 655.071,-46.044 94.938,-159.906 48.409,-303.514 48.409,-303.514"
       id="path4743"
       style="opacity:0.2;fill:url(#SVGID_12_)"
       inkscape:connector-curvature="0" /><radialGradient
       id="SVGID_13_"
       cx="-2945.4902"
       cy="623.88672"
       r="637.25208"
       gradientTransform="matrix(1.4173,0.672,-0.6766,1.6781,5586.2544,1618.6605)"
       gradientUnits="userSpaceOnUse"><stop
         offset="0"
         style="stop-color:#FFFCDD"
         id="stop4746" /><stop
         offset="1"
         style="stop-color:#FEF9C8;stop-opacity:0"
         id="stop4748" /></radialGradient><path
       enable-background="new    "
       d="m 1522.256,339.803 c 0,0 45.568,211.519 -59.217,363.4 C 1285.896,959.95 1080.332,916.934 810.035,691.819 333.721,295.138 149.1,583.642 141.073,615.255 l 1.336,0.721 c 1.676,-59.132 182.389,-384.368 658.698,12.315 270.3,225.113 475.856,268.121 653,11.382 104.794,-151.886 68.149,-299.87 68.149,-299.87"
       id="path4750"
       style="opacity:0.1;fill:url(#SVGID_13_)"
       inkscape:connector-curvature="0" /><radialGradient
       id="SVGID_14_"
       cx="-2951.291"
       cy="51.8218"
       r="238.75751"
       gradientTransform="matrix(1.4792,0.4962,-0.5276,1.7383,5460.4214,1865.7061)"
       gradientUnits="userSpaceOnUse"><stop
         offset="0"
         style="stop-color:#065E7F"
         id="stop4753" /><stop
         offset="1"
         style="stop-color:#FEF9C8;stop-opacity:0"
         id="stop4755" /></radialGradient><path
       enable-background="new    "
       d="m 1478.551,203.387 c 0,0 64.533,203.609 -26.834,366.085 -154.438,274.66 -364.119,256.487 -654.896,66.062 -12.755,-8.355 -570.774,-489.246 -663.819,85.567 L 144.64,595.682 c 5.214,-32.189 125.162,-357.434 637.565,-21.866 290.779,190.428 500.462,208.59 654.904,-66.06 91.358,-162.484 41.442,-304.369 41.442,-304.369"
       id="path4757"
       style="opacity:0.5;fill:url(#SVGID_14_)"
       inkscape:connector-curvature="0" /><linearGradient
       id="SVGID_15_"
       gradientUnits="userSpaceOnUse"
       x1="849.67822"
       y1="384.21091"
       x2="2109.8516"
       y2="384.21091"
       gradientTransform="matrix(0.9907,-0.4864,0.4732,0.9638,-712.8286,963.3502)"><stop
         offset="0"
         style="stop-color:#ABCCB3;stop-opacity:0.7"
         id="stop4760" /><stop
         offset="0.33"
         style="stop-color:#B4CFB5;stop-opacity:0.05"
         id="stop4762" /><stop
         offset="0.803"
         style="stop-color:#C1D4B7;stop-opacity:0.5"
         id="stop4764" /><stop
         offset="1"
         style="stop-color:#FEF9C8;stop-opacity:0"
         id="stop4766" /></linearGradient><path
       d="m 1623.155,437.662 c 0,0 29.559,144.122 -93.468,270.521 C 1307.554,957.298 1032.849,806.33 822.725,624.521 804.153,608.453 757.457,567.747 673.656,486.956 562.97,380.244 498.732,409.559 371.133,504.436 178.431,659.147 138.716,542.505 135.286,531.548 l -3.339,22.765 c 3.427,10.957 43.147,127.602 235.848,-27.113 120.033,-93.971 199.952,-96.273 286.375,-16.218 86.427,80.059 90.568,82.611 171.021,155.954 276.011,251.637 476.988,306.997 709.857,102.094 123.021,-126.408 88.107,-331.368 88.107,-331.368"
       id="path4768"
       style="fill:url(#SVGID_15_)"
       inkscape:connector-curvature="0" /></g><g
     id="bubble"
     transform="matrix(1.333333,0,0,1.333333,1.4052734e-5,3.6501953e-4)"><radialGradient
       id="SVGID_16_"
       cx="-868.36719"
       cy="1081.0781"
       r="70.523399"
       gradientTransform="matrix(2.398,0,0,-2.4744,2179.8184,3724.1284)"
       gradientUnits="userSpaceOnUse"><stop
         offset="0.0592"
         style="stop-color:#AEAB93;stop-opacity:0.4372"
         id="stop4772" /><stop
         offset="0.5718"
         style="stop-color:#587E77;stop-opacity:0.3331"
         id="stop4774" /><stop
         offset="1"
         style="stop-color:#366C6C;stop-opacity:0"
         id="stop4776" /></radialGradient><ellipse
       cx="97.473"
       cy="1049.109"
       rx="169.118"
       ry="174.502"
       id="ellipse4778"
       style="fill:url(#SVGID_16_)" /><radialGradient
       id="SVGID_17_"
       cx="-913.38092"
       cy="1066.6406"
       r="103.04"
       gradientTransform="matrix(2.398,0,0,-2.4744,2179.8184,3724.1284)"
       gradientUnits="userSpaceOnUse"><stop
         offset="3.896629e-004"
         style="stop-color:#587E77;stop-opacity:0.3331"
         id="stop4781" /><stop
         offset="0.5616"
         style="stop-color:#AEAB93;stop-opacity:0.3"
         id="stop4783" /><stop
         offset="1"
         style="stop-color:#366C6C;stop-opacity:0"
         id="stop4785" /></radialGradient><path
       d="m -10.47,829.873 c 136.466,0 247.093,114.147 247.093,254.955 0,140.813 -110.626,254.963 -247.093,254.963 -136.465,0 -247.091,-114.148 -247.091,-254.963 0,-140.808 110.626,-254.955 247.091,-254.955 z"
       id="path4787"
       style="fill:url(#SVGID_17_)"
       inkscape:connector-curvature="0" /><radialGradient
       id="SVGID_18_"
       cx="-564.45361"
       cy="1002.2988"
       r="103.0369"
       gradientTransform="matrix(3.1212,0,0,-3.2305,1998.3965,4159.7373)"
       gradientUnits="userSpaceOnUse"><stop
         offset="3.896629e-004"
         style="stop-color:#587E77;stop-opacity:0.3331"
         id="stop4790" /><stop
         offset="0.5468"
         style="stop-color:#AEAB93;stop-opacity:0.1"
         id="stop4792" /><stop
         offset="0.67"
         style="stop-color:#366C6C;stop-opacity:0"
         id="stop4794" /></radialGradient><path
       d="m 236.623,588.955 c 177.612,0 321.599,149.021 321.599,332.854 0,183.842 -143.985,332.864 -321.599,332.864 -177.615,0 -321.602,-149.022 -321.602,-332.864 0.001,-183.831 143.987,-332.854 321.602,-332.854 z"
       id="path4796"
       style="fill:url(#SVGID_18_)"
       inkscape:connector-curvature="0" /><linearGradient
       id="SVGID_19_"
       gradientUnits="userSpaceOnUse"
       x1="-588.0459"
       y1="1275.0312"
       x2="-475.98929"
       y2="1275.0312"
       gradientTransform="matrix(2.398,0,0,-2.4744,2179.8184,3724.1284)"><stop
         offset="0.5468"
         style="stop-color:#99CCCC;stop-opacity:0"
         id="stop4799" /><stop
         offset="0.7931"
         style="stop-color:#C8E1CA;stop-opacity:0.8"
         id="stop4801" /><stop
         offset="1"
         style="stop-color:#FEF9C8;stop-opacity:0"
         id="stop4803" /></linearGradient><ellipse
       enable-background="new    "
       cx="904.039"
       cy="569.18799"
       rx="134.355"
       ry="138.63499"
       id="ellipse4805"
       style="opacity:0.1;fill:url(#SVGID_19_)" /></g><g
     id="logoGroup_1_"
     transform="matrix(1.333333,0,0,1.333333,1.4052734e-5,3.6501953e-4)"
     style="opacity:0.8"><g
       id="logo_1_"
       enable-background="new    "><path
         d="m 1228.652,411.082 c -4.202,0.056 0.799,2.162 6.293,3.012 1.521,-1.188 2.89,-2.382 4.111,-3.549 -3.411,0.834 -6.891,0.857 -10.404,0.537"
         id="path4809"
         inkscape:connector-curvature="0"
         style="fill:#ffffff" /><path
         d="m 1251.229,405.455 c 2.511,-3.467 4.334,-7.244 4.981,-11.156 -0.563,2.784 -2.075,5.188 -3.505,7.739 -7.863,4.956 -0.745,-2.938 0,-5.943 -8.45,10.646 -1.165,6.382 -1.472,9.36"
         id="path4811"
         inkscape:connector-curvature="0"
         style="fill:#ffffff" /><path
         d="m 1259.568,383.761 c 0.512,-7.571 -1.485,-5.172 -2.16,-2.291 0.781,0.416 1.403,5.345 2.16,2.291"
         id="path4813"
         inkscape:connector-curvature="0"
         style="fill:#ffffff" /><path
         d="m 1212.697,280.219 c 2.249,0.405 4.854,0.711 4.479,1.253 2.463,-0.55 3.021,-1.037 -4.479,-1.253"
         id="path4815"
         inkscape:connector-curvature="0"
         style="fill:#ffffff" /><path
         d="m 1217.173,281.464 -1.575,0.332 1.479,-0.139 0.096,-0.193"
         id="path4817"
         inkscape:connector-curvature="0"
         style="fill:#ffffff" /><path
         d="m 1287.198,386.638 c 0.251,6.8 -1.992,10.104 -4.018,15.951 l -3.636,1.813 c -2.979,5.777 0.298,3.671 -1.842,8.265 -4.646,4.13 -14.096,12.925 -17.107,13.729 -2.211,-0.049 1.49,-2.608 1.98,-3.607 -6.225,4.271 -4.994,6.409 -14.506,9.009 l -0.28,-0.624 c -23.454,11.038 -56.027,-10.83 -55.605,-40.667 -0.247,1.896 -0.711,1.424 -1.229,2.187 -1.213,-15.349 7.098,-30.76 21.088,-37.067 13.688,-6.772 29.743,-4.005 39.541,5.151 -5.385,-7.055 -16.104,-14.532 -28.808,-13.844 -12.447,0.204 -24.094,8.117 -27.981,16.7 -6.377,4.018 -7.119,15.474 -9.896,17.573 -3.737,27.478 7.028,39.343 25.258,53.308 2.859,1.939 0.807,2.229 1.188,3.702 -6.055,-2.827 -11.594,-7.111 -16.15,-12.349 2.419,3.53 5.026,6.97 8.402,9.68 -5.714,-1.931 -13.343,-13.832 -15.563,-14.316 9.844,17.619 39.914,30.897 55.682,24.306 -7.296,0.272 -16.556,0.152 -24.743,-2.879 -3.446,-1.773 -8.12,-5.434 -7.29,-6.115 21.506,8.026 43.706,6.076 62.309,-8.836 4.732,-3.686 9.904,-9.953 11.396,-10.04 -2.254,3.388 0.387,1.629 -1.347,4.611 4.709,-7.602 -2.051,-3.098 4.87,-13.125 l 2.563,3.515 c -0.956,-6.317 7.844,-13.979 6.942,-23.959 2.021,-3.054 2.247,3.287 0.108,10.302 2.974,-7.791 0.791,-9.039 1.548,-15.474 0.813,2.163 1.906,4.463 2.461,6.737 -1.933,-7.527 1.982,-12.669 2.952,-17.049 -0.96,-0.422 -2.984,3.326 -3.453,-5.56 0.072,-3.866 1.077,-2.027 1.466,-2.979 -0.752,-0.438 -2.738,-3.4 -3.949,-9.077 0.872,-1.332 2.346,3.459 3.531,3.652 -0.76,-4.51 -2.084,-7.955 -2.146,-11.42 -3.484,-7.292 -1.234,0.976 -4.06,-3.128 -3.718,-11.587 3.075,-2.688 3.545,-7.951 5.623,8.155 8.826,20.791 10.302,26.025 -1.128,-6.38 -2.938,-12.563 -5.161,-18.548 1.713,0.726 -2.766,-13.128 2.223,-3.954 -5.317,-19.554 -22.746,-37.825 -38.776,-46.395 1.954,1.792 4.438,4.046 3.551,4.401 -7.979,-4.739 -6.579,-5.116 -7.721,-7.124 -6.493,-2.641 -6.926,0.218 -11.214,0.012 -12.247,-6.5 -14.605,-5.809 -25.877,-9.88 l 0.506,2.407 c -8.104,-2.709 -9.448,1.01 -18.222,0.007 -0.521,-0.42 2.817,-1.51 5.565,-1.909 -7.841,1.038 -7.472,-1.548 -15.146,0.289 1.886,-1.325 3.891,-2.212 5.907,-3.335 -6.392,0.392 -15.271,3.721 -12.532,0.683 -10.437,4.661 -28.961,11.193 -39.358,20.941 l -0.326,-2.185 c -4.761,5.723 -20.771,17.078 -22.051,24.497 l -1.271,0.289 c -2.479,4.2 -4.087,8.957 -6.05,13.271 -3.245,5.529 -4.756,2.13 -4.293,2.995 -6.377,12.931 -9.549,23.788 -12.284,32.708 1.952,2.906 0.046,17.542 0.788,29.25 -3.202,57.837 40.589,114.001 88.457,126.958 7.014,2.521 17.447,2.423 26.317,2.673 -10.468,-2.99 -11.821,-1.586 -22.021,-5.147 -7.355,-3.464 -8.973,-7.412 -14.184,-11.941 l 2.062,3.643 c -10.216,-3.619 -5.938,-4.478 -14.261,-7.109 l 2.209,-2.873 c -3.313,-0.249 -8.776,-5.577 -10.27,-8.539 l -3.63,0.146 c -4.351,-5.366 -6.676,-9.241 -6.498,-12.246 l -1.176,2.091 c -1.328,-2.272 -16.02,-20.15 -8.396,-15.989 -1.416,-1.293 -3.304,-2.104 -5.338,-5.818 l 1.548,-1.765 c -3.661,-4.716 -6.756,-10.778 -6.516,-12.792 1.957,2.642 3.313,3.137 4.656,3.59 -9.261,-22.986 -9.782,-1.262 -16.8,-23.393 l 1.489,-0.119 c -1.139,-1.727 -1.833,-3.573 -2.746,-5.402 l 0.648,-6.434 c -6.666,-7.699 -1.859,-32.783 -0.898,-46.535 0.666,-5.594 5.564,-11.549 9.293,-20.887 l -2.272,-0.393 c 4.349,-7.563 24.781,-30.403 34.258,-29.232 4.587,-5.76 -0.915,-0.021 -1.813,-1.468 10.081,-10.426 13.244,-7.362 20.044,-9.247 7.331,-4.345 -6.29,1.703 -2.815,-1.649 12.677,-3.239 8.982,-7.359 25.52,-9.003 1.743,0.988 -4.043,1.529 -5.494,2.813 10.56,-5.168 33.418,-3.984 48.271,2.868 17.228,8.061 36.578,31.86 37.346,54.245 l 0.869,0.23 c -0.433,8.899 1.369,19.195 -1.765,28.651 l 2.125,-4.497"
         id="path4819"
         inkscape:connector-curvature="0"
         style="fill:#ffffff" /><path
         d="m 1182.734,416.851 -0.594,2.95 c 2.762,3.756 4.96,7.833 8.489,10.753 -2.54,-4.945 -4.424,-6.997 -7.895,-13.703"
         id="path4821"
         inkscape:connector-curvature="0"
         style="fill:#ffffff" /><path
         d="m 1189.268,416.597 c -1.468,-1.613 -2.331,-3.564 -3.307,-5.504 0.932,3.411 2.834,6.34 4.599,9.327 l -1.292,-3.823"
         id="path4823"
         inkscape:connector-curvature="0"
         style="fill:#ffffff" /><path
         d="m 1304.932,391.458 -0.605,1.553 c -1.129,8.048 -3.59,16.014 -7.336,23.396 4.14,-7.793 6.807,-16.313 7.941,-24.949"
         id="path4825"
         inkscape:connector-curvature="0"
         style="fill:#ffffff" /><path
         d="m 1213.533,278.199 c 2.842,-1.036 6.988,-0.57 10.014,-1.258 -3.938,0.336 -7.854,0.531 -11.719,1.021 l 1.705,0.237"
         id="path4827"
         inkscape:connector-curvature="0"
         style="fill:#ffffff" /><path
         d="m 1113.665,331.303 c 0.657,6.064 -4.562,8.419 1.15,4.416 3.071,-6.907 -1.189,-1.907 -1.15,-4.416"
         id="path4829"
         inkscape:connector-curvature="0"
         style="fill:#ffffff" /><path
         d="m 1106.943,359.383 c 1.313,-4.043 1.562,-6.473 2.063,-8.813 -3.645,4.655 -1.683,5.645 -2.063,8.813"
         id="path4831"
         inkscape:connector-curvature="0"
         style="fill:#ffffff" /></g></g><rect
     style="opacity:1;fill:none;fill-opacity:1;stroke:none"
     id="rect4745"
     width="2559.9993"
     height="1599.9996"
     x="0"
     y="0.00036621094" /></svg>
