<?xml version="1.0" encoding="UTF-8" standalone="no"?>
<!-- Generator: Adobe Illustrator 16.0.0, SVG Export Plug-In . SVG Version: 6.00 Build 0)  -->

<svg
   xmlns:dc="http://purl.org/dc/elements/1.1/"
   xmlns:cc="http://creativecommons.org/ns#"
   xmlns:rdf="http://www.w3.org/1999/02/22-rdf-syntax-ns#"
   xmlns:svg="http://www.w3.org/2000/svg"
   xmlns="http://www.w3.org/2000/svg"
   xmlns:sodipodi="http://sodipodi.sourceforge.net/DTD/sodipodi-0.dtd"
   xmlns:inkscape="http://www.inkscape.org/namespaces/inkscape"
   version="1.1"
   id="root"
   x="0px"
   y="0px"
   width="1280"
   height="800"
   viewBox="0 0 1279.9999 800.00001"
   enable-background="new 0 0 1920 1200"
   xml:space="preserve"
   inkscape:version="0.91 r13725"
   sodipodi:docname="1280x800.svg"><metadata
     id="metadata190"><rdf:RDF><cc:Work
         rdf:about=""><dc:format>image/svg+xml</dc:format><dc:type
           rdf:resource="http://purl.org/dc/dcmitype/StillImage" /><dc:title /></cc:Work></rdf:RDF></metadata><defs
     id="defs188" /><sodipodi:namedview
     pagecolor="#ffffff"
     bordercolor="#666666"
     borderopacity="1"
     objecttolerance="10"
     gridtolerance="10"
     guidetolerance="10"
     inkscape:pageopacity="0"
     inkscape:pageshadow="2"
     inkscape:window-width="1920"
     inkscape:window-height="1007"
     id="namedview186"
     showgrid="false"
     inkscape:zoom="0.55625733"
     inkscape:cx="583.44924"
     inkscape:cy="393.68001"
     inkscape:window-x="0"
     inkscape:window-y="0"
     inkscape:window-maximized="1"
     inkscape:current-layer="root"
     fit-margin-top="0"
     fit-margin-left="0"
     fit-margin-right="0"
     fit-margin-bottom="0" /><g
     id="background"
     transform="matrix(0.66667,0,0,0.66667,6.1425781e-6,1.5527344e-6)"><g
       id="background_1_"><linearGradient
         id="SVGID_1_"
         gradientUnits="userSpaceOnUse"
         x1="-1528.6987"
         y1="4317.1143"
         x2="-1528.6992"
         y2="3118.9824"
         gradientTransform="matrix(1,0,0,-1,2488.6992,4319.998)"><stop
           offset="0"
           style="stop-color:#133356"
           id="stop6" /><stop
           offset="0.5025"
           style="stop-color:#7C9999"
           id="stop8" /><stop
           offset="1"
           style="stop-color:#333333"
           id="stop10" /></linearGradient><rect
         y="0"
         x="0"
         style="fill:url(#SVGID_1_)"
         width="1920"
         height="1200.373"
         id="rect12" /></g><g
       id="Layer_4"><radialGradient
         id="SVGID_2_"
         cx="-1656.957"
         cy="3382.6807"
         r="942.22522"
         gradientTransform="matrix(0.994,0,0,-1.1103,2517.4658,4324.1738)"
         gradientUnits="userSpaceOnUse"><stop
           offset="0"
           style="stop-color:#E4C8A5;stop-opacity:0.5"
           id="stop16" /><stop
           offset="0.1429"
           style="stop-color:#AEAB93;stop-opacity:0.4372"
           id="stop18" /><stop
           offset="0.3797"
           style="stop-color:#587E77;stop-opacity:0.3331"
           id="stop20" /><stop
           offset="0.4877"
           style="stop-color:#366C6C;stop-opacity:0.2857"
           id="stop22" /></radialGradient><rect
         x="0"
         style="fill:url(#SVGID_2_)"
         y="0.74900001"
         width="1920"
         height="1199.251"
         id="rect24" /></g></g><g
     id="glows"
     transform="matrix(0.66667,0,0,0.66667,6.1425781e-6,1.5527344e-6)"><radialGradient
       id="SVGID_3_"
       cx="-996.66602"
       cy="3727.2998"
       r="279.20999"
       gradientTransform="matrix(1,0,0,-1,2488.6992,4319.998)"
       gradientUnits="userSpaceOnUse"><stop
         offset="0"
         style="stop-color:#FFFCDD"
         id="stop28" /><stop
         offset="1"
         style="stop-color:#FEF9C8;stop-opacity:0"
         id="stop30" /></radialGradient><circle
       style="opacity:0.2;fill:url(#SVGID_3_)"
       enable-background="new    "
       cx="1492.033"
       cy="592.698"
       r="279.20999"
       id="circle32" /><radialGradient
       id="SVGID_4_"
       cx="-1151.7285"
       cy="3823.3867"
       r="221.00191"
       gradientTransform="matrix(1,0,0,-1,2488.6992,4319.998)"
       gradientUnits="userSpaceOnUse"><stop
         offset="0"
         style="stop-color:#99CCCC"
         id="stop35" /><stop
         offset="1"
         style="stop-color:#FEF9C8;stop-opacity:0"
         id="stop37" /></radialGradient><circle
       style="opacity:0.2;fill:url(#SVGID_4_)"
       enable-background="new    "
       cx="1336.9709"
       cy="496.61099"
       r="221.002"
       id="circle39" /><radialGradient
       id="SVGID_5_"
       cx="-2105.6523"
       cy="3861.3877"
       r="293.0029"
       gradientTransform="matrix(1,0,0,-1,2488.6992,4319.998)"
       gradientUnits="userSpaceOnUse"><stop
         offset="0"
         style="stop-color:#FFFCDD"
         id="stop42" /><stop
         offset="1"
         style="stop-color:#FEF9C8;stop-opacity:0"
         id="stop44" /></radialGradient><circle
       style="opacity:0.1;fill:url(#SVGID_5_)"
       enable-background="new    "
       cx="383.047"
       cy="458.60999"
       r="293.00299"
       id="circle46" /><radialGradient
       id="SVGID_6_"
       cx="-1917.6523"
       cy="3672.3428"
       r="293.0029"
       gradientTransform="matrix(1,0,0,-1,2488.6992,4319.998)"
       gradientUnits="userSpaceOnUse"><stop
         offset="0"
         style="stop-color:#FFFCDD"
         id="stop49" /><stop
         offset="1"
         style="stop-color:#FEF9C8;stop-opacity:0"
         id="stop51" /></radialGradient><circle
       style="opacity:0.1;fill:url(#SVGID_6_)"
       enable-background="new    "
       cx="571.047"
       cy="647.65503"
       r="293.00299"
       id="circle53" /><radialGradient
       id="SVGID_7_"
       cx="-1821.3174"
       cy="3579.5088"
       r="374.83301"
       gradientTransform="matrix(1,0,0,-1,2488.6992,4319.998)"
       gradientUnits="userSpaceOnUse"><stop
         offset="0"
         style="stop-color:#FFFCDD"
         id="stop56" /><stop
         offset="1"
         style="stop-color:#FEF9C8;stop-opacity:0"
         id="stop58" /></radialGradient><circle
       style="opacity:0.1;fill:url(#SVGID_7_)"
       enable-background="new    "
       cx="667.38202"
       cy="740.48901"
       r="374.83301"
       id="circle60" /><radialGradient
       id="SVGID_8_"
       cx="-1209.8223"
       cy="3657.2754"
       r="374.832"
       gradientTransform="matrix(1,0,0,-1,2488.6992,4319.998)"
       gradientUnits="userSpaceOnUse"><stop
         offset="0"
         style="stop-color:#FFFCDD"
         id="stop63" /><stop
         offset="1"
         style="stop-color:#FEF9C8;stop-opacity:0"
         id="stop65" /></radialGradient><path
       inkscape:connector-curvature="0"
       style="opacity:0.1;fill:url(#SVGID_8_)"
       enable-background="new    "
       d="m 1278.877,287.89 c 207.014,0 374.832,167.815 374.832,374.833 0,207.02 -167.818,374.832 -374.832,374.832 -207.014,0 -374.832,-167.816 -374.832,-374.829 0,-207.019 167.818,-374.836 374.832,-374.836 z"
       id="path67" /><radialGradient
       id="SVGID_9_"
       cx="-1856.4629"
       cy="3807.2734"
       r="374.83249"
       gradientTransform="matrix(1,0,0,-1,2488.6992,4319.998)"
       gradientUnits="userSpaceOnUse"><stop
         offset="0"
         style="stop-color:#99CCCC"
         id="stop70" /><stop
         offset="1"
         style="stop-color:#FEF9C8;stop-opacity:0"
         id="stop72" /></radialGradient><circle
       style="opacity:0.2;fill:url(#SVGID_9_)"
       enable-background="new    "
       cx="632.23602"
       cy="512.72498"
       r="374.83301"
       id="circle74" /><radialGradient
       id="SVGID_10_"
       cx="-922.16412"
       cy="3789.2744"
       r="374.83301"
       gradientTransform="matrix(1,0,0,-1,2488.6992,4319.998)"
       gradientUnits="userSpaceOnUse"><stop
         offset="0"
         style="stop-color:#FFFCDD"
         id="stop77" /><stop
         offset="1"
         style="stop-color:#FEF9C8;stop-opacity:0"
         id="stop79" /></radialGradient><circle
       style="opacity:0.2;fill:url(#SVGID_10_)"
       enable-background="new    "
       cx="1566.535"
       cy="530.724"
       r="374.83301"
       id="circle81" /><radialGradient
       id="SVGID_11_"
       cx="-1031.9941"
       cy="3525.2754"
       r="374.83249"
       gradientTransform="matrix(1,0,0,-1,2488.6992,4319.998)"
       gradientUnits="userSpaceOnUse"><stop
         offset="0"
         style="stop-color:#99CCCC"
         id="stop84" /><stop
         offset="1"
         style="stop-color:#FEF9C8;stop-opacity:0"
         id="stop86" /></radialGradient><circle
       style="opacity:0.2;fill:url(#SVGID_11_)"
       enable-background="new    "
       cx="1456.705"
       cy="794.72302"
       r="374.83301"
       id="circle88" /></g><g
     id="octopus_1_"
     transform="matrix(0.66667,0,0,0.66667,6.1425781e-6,1.5527344e-6)"><radialGradient
       id="SVGID_12_"
       cx="12171.727"
       cy="-2777.4507"
       r="704.52502"
       gradientTransform="matrix(-1,0,0,1,13252.984,3630.3369)"
       gradientUnits="userSpaceOnUse"><stop
         offset="0"
         style="stop-color:#BCCCB3"
         id="stop92" /><stop
         offset="1"
         style="stop-color:#FEF9C8;stop-opacity:0"
         id="stop94" /></radialGradient><path
       inkscape:connector-curvature="0"
       style="opacity:0.1;fill:url(#SVGID_12_)"
       enable-background="new    "
       d="m 342.803,350.885 c 0,0 -166.237,203.738 -110.913,420.003 93.525,365.563 376.691,424 835.374,320 808.271,-183.268 836.202,226 830.202,264 l 43.879,-63.617 c 6,-38 -21.938,-447.26 -830.2,-264 -458.687,104 -741.854,45.568 -835.375,-320 -55.323,-216.261 67.033,-356.386 67.033,-356.386"
       id="path96" /><radialGradient
       id="SVGID_13_"
       cx="11962.174"
       cy="-3044.9727"
       r="1411.9426"
       gradientTransform="matrix(-1,0,0,1,13252.984,3630.3369)"
       gradientUnits="userSpaceOnUse"><stop
         offset="0"
         style="stop-color:#BCCCB3"
         id="stop99" /><stop
         offset="1"
         style="stop-color:#FEF9C8;stop-opacity:0"
         id="stop101" /></radialGradient><path
       inkscape:connector-curvature="0"
       style="opacity:0.5;fill:url(#SVGID_13_)"
       enable-background="new    "
       d="m 190.59,246.104 c 0,0 -166.237,203.742 -110.914,420.003 93.523,365.563 376.689,423.999 835.377,320 808.26,-183.266 836.199,225.999 830.199,263.999 l 56.753,-5.73 c 28.162,-64.277 -34.813,-505.146 -843.073,-321.886 -458.687,104 -741.853,45.564 -835.374,-320 C 68.234,386.229 190.59,246.104 190.59,246.104"
       id="path103" /><radialGradient
       id="SVGID_14_"
       cx="12104.23"
       cy="-2803.252"
       r="704.52448"
       gradientTransform="matrix(-1,0,0,1,13252.984,3630.3369)"
       gradientUnits="userSpaceOnUse"><stop
         offset="0"
         style="stop-color:#BCCCB3"
         id="stop106" /><stop
         offset="1"
         style="stop-color:#FEF9C8;stop-opacity:0"
         id="stop108" /></radialGradient><path
       inkscape:connector-curvature="0"
       style="opacity:0.2;fill:url(#SVGID_14_)"
       enable-background="new    "
       d="m 410.301,325.085 c 0,0 -166.237,203.742 -110.914,420.001 93.524,365.567 376.69,423.999 835.374,320 808.263,-183.262 836.201,225.999 830.201,263.999 l 43.879,-63.61 c 6,-38 -21.938,-447.267 -830.2,-264 -458.685,104 -741.852,45.563 -835.373,-320 -55.323,-216.266 67.033,-356.39 67.033,-356.39"
       id="path110" /><linearGradient
       id="SVGID_15_"
       gradientUnits="userSpaceOnUse"
       x1="11310.215"
       y1="-2971.8315"
       x2="13063.793"
       y2="-2971.8315"
       gradientTransform="matrix(-1,0,0,1,13252.984,3630.3369)"><stop
         offset="0"
         style="stop-color:#ABCCB3;stop-opacity:0.7"
         id="stop113" /><stop
         offset="0.33"
         style="stop-color:#B4CFB5;stop-opacity:0.05"
         id="stop115" /><stop
         offset="0.803"
         style="stop-color:#C1D4B7;stop-opacity:0.5"
         id="stop117" /><stop
         offset="1"
         style="stop-color:#FEF9C8;stop-opacity:0"
         id="stop119" /></linearGradient><path
       inkscape:connector-curvature="0"
       style="opacity:0.4;fill:url(#SVGID_15_)"
       enable-background="new    "
       d="m 189.191,479.015 c 0,0 47.39,-179.889 257.465,-255.367 391.015,-159.975 617.139,163.146 752.897,485.594 12,28.498 41.998,100.494 91.495,238.487 65.38,182.266 154.492,184.484 352.063,147.314 304.771,-69.104 284.29,85.22 282.021,99.549 l 16.545,-23.982 c 2.271,-14.327 22.748,-168.652 -282.021,-99.554 -188.504,40.321 -280.207,-1.222 -333.087,-139.832 C 1273.686,792.62 1270.43,787.431 1220.548,659.745 1049.41,221.649 853.077,47.771 474.711,151.639 264.642,227.119 189.191,479.015 189.191,479.015"
       id="path121" /></g><g
     id="rounds"
     transform="matrix(0.66667,0,0,0.66667,6.1425781e-6,1.5527344e-6)"><path
       style="fill:none;stroke:#ffffff;stroke-width:2;stroke-miterlimit:10"
       inkscape:connector-curvature="0"
       stroke-miterlimit="10"
       d="M 1218.335,776.488"
       id="path124" /><circle
       style="opacity:0.3;fill:#ffffff"
       enable-background="new    "
       cx="1148.752"
       cy="815.01501"
       r="13.107"
       id="circle126" /><circle
       style="opacity:0.2;fill:#ffffff"
       enable-background="new    "
       cx="1493.061"
       cy="630.008"
       r="13.109"
       id="circle128" /><circle
       style="opacity:0.1;fill:#ffffff"
       enable-background="new    "
       cx="1726.431"
       cy="365.85699"
       r="13.107"
       id="circle130" /><circle
       style="opacity:0.4;fill:#ffffff"
       enable-background="new    "
       cx="750.62299"
       cy="895.95203"
       r="13.107"
       id="circle132" /></g><g
     id="logoGroup_1_"
     transform="matrix(0.466669,0,0,0.466669,95.198686,120.6392)"><circle
       enable-background="new    "
       cx="475.991"
       cy="603.19299"
       r="147.05701"
       id="circle135"
       style="opacity:0.4;fill:#366c6c" /><g
       id="logo_1_"
       enable-background="new    "><path
         d="m 488.914,610.467 c -2.729,0.03 0.517,1.396 4.08,1.947 0.987,-0.771 1.875,-1.545 2.67,-2.303 -2.215,0.548 -4.473,0.563 -6.75,0.356"
         id="path138"
         inkscape:connector-curvature="0"
         style="fill:#ffffff" /><path
         d="m 503.563,606.814 c 1.635,-2.248 2.813,-4.701 3.229,-7.239 -0.367,1.813 -1.347,3.367 -2.271,5.021 -5.104,3.222 -0.48,-1.9 -0.013,-3.854 -5.473,6.906 -0.746,4.141 -0.945,6.072"
         id="path140"
         inkscape:connector-curvature="0"
         style="fill:#ffffff" /><path
         d="m 508.975,592.736 c 0.332,-4.914 -0.965,-3.354 -1.396,-1.486 0.501,0.269 0.905,3.469 1.396,1.486"
         id="path142"
         inkscape:connector-curvature="0"
         style="fill:#ffffff" /><path
         d="m 478.559,525.543 c 1.459,0.269 3.149,0.463 2.906,0.813 1.598,-0.357 1.961,-0.671 -2.906,-0.813"
         id="path144"
         inkscape:connector-curvature="0"
         style="fill:#ffffff" /><path
         d="m 481.467,526.353 -1.021,0.221 0.957,-0.096 0.064,-0.125"
         id="path146"
         inkscape:connector-curvature="0"
         style="fill:#ffffff" /><path
         d="m 526.902,594.604 c 0.155,4.409 -1.291,6.559 -2.604,10.352 l -2.354,1.18 c -1.938,3.755 0.188,2.393 -1.189,5.361 -3.021,2.687 -9.146,8.389 -11.104,8.906 -1.438,-0.033 0.978,-1.693 1.282,-2.342 -4.032,2.771 -3.229,4.152 -9.412,5.846 l -0.183,-0.403 c -15.219,7.161 -36.354,-7.021 -36.082,-26.386 -0.159,1.229 -0.461,0.922 -0.799,1.414 -0.785,-9.96 4.604,-19.961 13.687,-24.055 8.896,-4.396 19.312,-2.604 25.658,3.344 -3.492,-4.578 -10.449,-9.438 -18.688,-8.98 -8.073,0.142 -15.642,5.271 -18.153,10.84 -4.144,2.604 -4.619,10.04 -6.42,11.398 -2.435,17.83 4.563,25.53 16.39,34.598 1.854,1.264 0.521,1.441 0.771,2.396 -3.938,-1.836 -7.521,-4.615 -10.48,-8.016 1.57,2.294 3.271,4.521 5.455,6.271 -3.707,-1.25 -8.655,-8.979 -10.1,-9.288 6.387,11.438 25.896,20.06 36.13,15.771 -4.733,0.178 -10.741,0.099 -16.063,-1.868 -2.229,-1.146 -5.271,-3.521 -4.729,-3.969 13.951,5.209 28.354,3.938 40.431,-5.732 3.073,-2.393 6.429,-6.459 7.396,-6.515 -1.459,2.19 0.25,1.055 -0.872,2.987 3.057,-4.938 -1.33,-2.01 3.158,-8.521 l 1.652,2.283 c -0.62,-4.104 5.098,-9.071 4.514,-15.551 1.313,-1.979 1.459,2.137 0.063,6.688 1.93,-5.057 0.514,-5.855 1.005,-10.041 0.528,1.402 1.235,2.896 1.604,4.375 -1.258,-4.891 1.28,-8.229 1.916,-11.063 -0.625,-0.274 -1.938,2.152 -2.24,-3.609 0.045,-2.509 0.699,-1.313 0.949,-1.934 -0.488,-0.283 -1.779,-2.206 -2.563,-5.896 0.563,-0.862 1.521,2.243 2.293,2.368 -0.494,-2.929 -1.354,-5.16 -1.394,-7.41 -2.267,-4.729 -0.805,0.637 -2.639,-2.022 -2.408,-7.521 1.997,-1.741 2.303,-5.156 3.646,5.292 5.729,13.488 6.688,16.891 -0.729,-4.142 -1.896,-8.146 -3.351,-12.038 1.104,0.479 -1.794,-8.521 1.438,-2.563 -3.439,-12.69 -14.761,-24.55 -25.161,-30.106 1.271,1.162 2.883,2.624 2.313,2.854 -5.188,-3.076 -4.271,-3.32 -5.019,-4.622 -4.218,-1.72 -4.486,0.142 -7.271,0.007 -7.946,-4.219 -9.479,-3.771 -16.791,-6.408 l 0.33,1.563 c -5.266,-1.76 -6.135,0.653 -11.821,0.006 -0.345,-0.271 1.825,-0.979 3.609,-1.238 -5.092,0.673 -4.854,-1.004 -9.829,0.188 1.226,-0.855 2.521,-1.438 3.834,-2.163 -4.146,0.258 -9.91,2.413 -8.135,0.438 -6.771,3.023 -18.79,7.271 -25.538,13.595 l -0.212,-1.416 c -3.1,3.714 -13.479,11.079 -14.313,15.896 l -0.819,0.188 c -1.604,2.729 -2.646,5.813 -3.931,8.606 -2.104,3.586 -3.084,1.381 -2.782,1.938 -4.14,8.396 -6.191,15.438 -7.974,21.229 1.271,1.893 0.031,11.385 0.511,18.979 -2.072,37.521 26.338,73.977 57.399,82.383 4.551,1.639 11.313,1.572 17.079,1.729 -6.796,-1.938 -7.673,-1.021 -14.291,-3.341 -4.771,-2.247 -5.819,-4.813 -9.202,-7.75 l 1.338,2.361 c -6.629,-2.35 -3.854,-2.902 -9.252,-4.611 l 1.435,-1.856 c -2.146,-0.164 -5.688,-3.619 -6.66,-5.544 l -2.354,0.102 c -2.821,-3.481 -4.332,-5.998 -4.22,-7.945 l -0.77,1.354 c -0.854,-1.479 -10.396,-13.069 -5.441,-10.375 -0.922,-0.84 -2.146,-1.359 -3.475,-3.771 l 1.016,-1.146 c -2.387,-3.063 -4.394,-6.987 -4.229,-8.308 1.271,1.719 2.147,2.034 3.022,2.329 -6.021,-14.914 -6.354,-0.813 -10.899,-15.182 l 0.965,-0.075 c -0.73,-1.118 -1.188,-2.318 -1.777,-3.509 l 0.424,-4.18 c -4.323,-4.998 -1.209,-21.271 -0.584,-30.192 0.434,-3.632 3.605,-7.494 6.021,-13.56 l -1.474,-0.257 c 2.813,-4.903 16.08,-19.729 22.229,-18.974 2.979,-3.729 -0.595,-0.019 -1.179,-0.952 6.541,-6.771 8.6,-4.771 13.008,-5.997 4.765,-2.816 -4.082,1.104 -1.824,-1.067 8.229,-2.104 5.824,-4.771 16.563,-5.848 1.132,0.646 -2.625,0.989 -3.563,1.823 6.854,-3.354 21.688,-2.593 31.319,1.855 11.181,5.229 23.734,20.672 24.232,35.202 l 0.563,0.146 c -0.281,5.774 0.893,12.458 -1.146,18.598 l 1.362,-2.887"
         id="path148"
         inkscape:connector-curvature="0"
         style="fill:#ffffff" /><path
         d="m 459.117,614.209 -0.385,1.913 c 1.793,2.438 3.219,5.081 5.508,6.979 -1.648,-3.209 -2.869,-4.538 -5.123,-8.892"
         id="path150"
         inkscape:connector-curvature="0"
         style="fill:#ffffff" /><path
         d="m 463.354,614.047 c -0.942,-1.055 -1.515,-2.313 -2.146,-3.567 0.604,2.218 1.838,4.106 2.983,6.057 l -0.837,-2.49"
         id="path152"
         inkscape:connector-curvature="0"
         style="fill:#ffffff" /><path
         d="m 538.412,597.731 -0.396,1.008 c -0.729,5.225 -2.321,10.393 -4.762,15.181 2.689,-5.055 4.422,-10.582 5.158,-16.189"
         id="path154"
         inkscape:connector-curvature="0"
         style="fill:#ffffff" /><path
         d="m 479.102,524.231 c 1.854,-0.678 4.535,-0.368 6.498,-0.813 -2.558,0.22 -5.099,0.348 -7.604,0.657 l 1.106,0.156"
         id="path156"
         inkscape:connector-curvature="0"
         style="fill:#ffffff" /><path
         d="m 414.299,558.693 c 0.426,3.937 -2.962,5.463 0.745,2.86 1.995,-4.477 -0.769,-1.231 -0.745,-2.86"
         id="path158"
         inkscape:connector-curvature="0"
         style="fill:#ffffff" /><path
         d="m 409.936,576.916 c 0.854,-2.624 1.018,-4.196 1.344,-5.72 -2.37,3.022 -1.096,3.664 -1.344,5.72"
         id="path160"
         inkscape:connector-curvature="0"
         style="fill:#ffffff" /></g></g><g
     id="debian_1_"
     transform="matrix(0.3733352,0,0,0.3733352,464.03938,226.1605)"><g
       id="g163"><path
         d="m 1439.256,762.536 c -0.104,0.113 -0.104,17.837 -0.328,22.464 -0.217,3.741 -0.552,11.778 -8.479,11.778 -8.15,0 -10.133,-9.36 -10.79,-13.434 -0.772,-4.512 -0.772,-8.261 -0.772,-9.905 0,-5.286 0.33,-20.044 12.772,-20.044 3.746,0 5.838,1.104 7.489,1.979 l 0.108,7.162 z m -31.93,12.997 c 0,31.049 16.517,31.049 18.938,31.049 6.826,0 11.233,-3.745 13.104,-10.239 l 0.222,9.797 c 2.091,-0.107 4.188,-0.328 7.6,-0.328 1.212,0 2.196,0 3.084,0.109 0.882,0 1.761,0.108 2.753,0.219 -1.763,-3.521 -3.083,-11.445 -3.083,-28.63 0,-16.733 0,-45.03 1.433,-53.622 -3.963,1.875 -7.381,3.087 -14.868,3.745 2.977,3.194 2.977,4.847 2.977,19.373 -2.09,-0.656 -4.735,-1.429 -9.249,-1.429 -19.717,0.004 -22.911,17.178 -22.911,29.956"
         id="path165"
         inkscape:connector-curvature="0"
         style="fill:#ffffff" /><path
         d="m 1467.039,769.911 c 0.109,-9.138 1.986,-17.284 9.802,-17.284 8.592,0 9.245,9.464 9.027,17.284 l -18.829,0 z m 29.729,1.105 c 0,-12.883 -2.528,-25.546 -18.822,-25.546 -22.463,0 -22.463,24.89 -22.463,30.17 0,22.354 10.019,31.16 26.863,31.16 7.484,0 11.12,-1.096 13.104,-1.652 -0.105,-3.964 0.439,-6.495 1.104,-9.906 -2.313,1.435 -5.286,3.305 -11.896,3.305 -17.178,0 -17.398,-15.642 -17.398,-21.033 l 29.294,0 0.214,-6.498"
         id="path167"
         inkscape:connector-curvature="0"
         style="fill:#ffffff" /><path
         d="m 1532.591,775.75 c 0,10.238 -1.871,24.003 -14.644,24.003 -1.767,0 -3.965,-0.332 -5.396,-0.662 -0.223,-3.964 -0.223,-10.79 -0.223,-18.718 0,-9.469 0.987,-14.416 1.764,-16.847 2.312,-7.814 7.486,-7.922 8.478,-7.922 8.369,0 10.021,11.559 10.021,20.146 z m -31.601,12.002 c 0,8.149 0,12.772 -1.322,16.296 4.515,1.764 10.13,2.752 16.851,2.752 4.291,0 16.735,0 23.451,-13.762 3.194,-6.386 4.294,-14.977 4.294,-21.474 0,-3.967 -0.439,-12.661 -3.635,-18.169 -3.081,-5.172 -8.038,-7.814 -13.32,-7.814 -10.569,0 -13.649,8.808 -15.3,13.322 0,-5.612 0.105,-25.213 0.983,-35.233 -7.154,3.305 -11.563,3.849 -16.294,4.292 4.297,1.761 4.297,9.033 4.297,32.705 l 0,27.085"
         id="path169"
         inkscape:connector-curvature="0"
         style="fill:#ffffff" /><path
         d="m 1565.431,806.14 c -2.204,-0.328 -3.749,-0.552 -6.939,-0.552 -3.521,0 -5.945,0.224 -8.479,0.552 1.103,-2.092 1.542,-3.085 1.872,-10.235 0.439,-9.802 0.551,-36.013 -0.219,-41.519 -0.554,-4.187 -1.541,-4.846 -3.082,-5.943 9.027,-0.883 11.556,-1.54 15.743,-3.522 -0.877,4.841 -0.994,7.272 -0.994,14.646 -0.219,37.987 -0.329,42.057 2.098,46.573"
         id="path171"
         inkscape:connector-curvature="0"
         style="fill:#ffffff" /><path
         d="m 1600.691,774.976 c -0.223,6.938 -0.332,11.784 -2.206,15.639 -2.315,4.957 -6.168,6.387 -9.027,6.387 -6.614,0 -8.042,-5.5 -8.042,-10.896 0,-10.349 9.254,-11.125 13.431,-11.125 l 5.847,0 0,-0.005 0,0 z m -30.285,13.546 c 0,6.938 2.094,13.87 8.262,16.848 2.752,1.212 5.504,1.212 6.387,1.212 10.131,0 13.541,-7.491 15.637,-12.114 -0.109,4.846 0,7.815 0.327,11.672 1.983,-0.107 3.964,-0.329 7.273,-0.329 1.872,0 3.629,0.222 5.5,0.329 -1.212,-1.87 -1.871,-2.975 -2.203,-7.267 -0.22,-4.183 -0.22,-8.369 -0.22,-14.202 l 0.108,-22.464 c 0,-8.375 -2.202,-16.63 -18.722,-16.63 -10.896,0 -17.284,3.304 -20.479,4.956 1.323,2.422 2.43,4.512 3.416,9.251 4.301,-3.746 9.912,-5.729 15.633,-5.729 9.146,0 9.146,6.063 9.146,14.646 -2.092,-0.107 -3.854,-0.325 -6.83,-0.325 -13.985,-10e-4 -23.235,5.388 -23.235,20.146"
         id="path173"
         inkscape:connector-curvature="0"
         style="fill:#ffffff" /><path
         d="m 1664.111,795.238 c 0.109,3.745 0.109,7.709 1.648,10.903 -2.427,-0.224 -3.855,-0.553 -8.369,-0.553 -2.644,0 -4.07,0.227 -6.167,0.553 0.438,-1.434 0.663,-1.979 0.886,-3.854 0.328,-2.529 0.554,-11.014 0.554,-13.987 l 0,-11.892 c 0,-5.175 0,-12.665 -0.34,-15.303 -0.22,-1.869 -0.763,-6.938 -7.157,-6.938 -6.275,0 -8.364,4.622 -9.139,8.366 -0.877,3.853 -0.877,8.039 -0.877,24.334 0.104,14.096 0.104,15.413 1.207,19.27 -1.871,-0.219 -4.185,-0.436 -7.481,-0.436 -2.646,0 -4.41,0.104 -6.604,0.436 0.771,-1.763 1.211,-2.645 1.43,-8.807 0.225,-6.061 0.664,-35.79 -0.334,-42.833 -0.547,-4.298 -1.652,-5.285 -2.858,-6.39 8.922,-0.441 11.779,-1.871 14.535,-3.303 l 0,11.668 c 1.319,-3.415 4.072,-11.015 15.084,-11.015 13.768,0 13.873,10.021 13.984,16.627 l 0,33.154"
         id="path175"
         inkscape:connector-curvature="0"
         style="fill:#ffffff" /><path
         d="m 1566.36,729.337 -9.122,9.115 -9.114,-9.115 9.114,-9.115 9.122,9.115"
         id="path177"
         inkscape:connector-curvature="0"
         style="fill:#ffffff" /></g><g
       id="_x39_"><g
         id="g180"><g
           id="g182"><path
             d="m 1726.427,790.001 c -16.123,0.476 -30.126,-13.655 -30.126,-28.971 0,-16.961 12.275,-31.856 30.617,-31.856 18.332,0 29.645,14.896 29.645,37.787 0,19.729 -6.609,33.521 -15.444,42.078 -6.892,6.755 -16.413,10.892 -26.063,11.999 -4.41,0.688 -8.269,0.825 -11.167,0.688 0,0 41.182,-12.38 42.477,-46.256 0.284,-7.578 5.52,-37.745 -20.41,-37.055 -10.336,0.271 -17.655,9.102 -17.655,21.789 0,11.164 3.432,19.079 14.75,21.852 7.907,1.938 12.87,-1.126 18.729,-15.447 -0.01,10e-4 2.589,22.866 -15.353,23.392 z"
             id="path184"
             inkscape:connector-curvature="0"
             style="fill:#ffffff" /></g></g></g></g></svg>
