<?xml version="1.0" encoding="UTF-8" standalone="no"?>
<!-- Generator: Adobe Illustrator 16.0.0, SVG Export Plug-In . SVG Version: 6.00 Build 0)  -->

<svg
   xmlns:dc="http://purl.org/dc/elements/1.1/"
   xmlns:cc="http://creativecommons.org/ns#"
   xmlns:rdf="http://www.w3.org/1999/02/22-rdf-syntax-ns#"
   xmlns:svg="http://www.w3.org/2000/svg"
   xmlns="http://www.w3.org/2000/svg"
   xmlns:sodipodi="http://sodipodi.sourceforge.net/DTD/sodipodi-0.dtd"
   xmlns:inkscape="http://www.inkscape.org/namespaces/inkscape"
   version="1.1"
   id="root"
   x="0px"
   y="0px"
   width="1280px"
   height="1024px"
   viewBox="0 0 1280 1024"
   enable-background="new 0 0 1280 1024"
   xml:space="preserve"
   inkscape:version="0.91 r13725"
   sodipodi:docname="1280x1024.svg"><metadata
     id="metadata190"><rdf:RDF><cc:Work
         rdf:about=""><dc:format>image/svg+xml</dc:format><dc:type
           rdf:resource="http://purl.org/dc/dcmitype/StillImage" /></cc:Work></rdf:RDF></metadata><defs
     id="defs188" /><sodipodi:namedview
     pagecolor="#ffffff"
     bordercolor="#666666"
     borderopacity="1"
     objecttolerance="10"
     gridtolerance="10"
     guidetolerance="10"
     inkscape:pageopacity="0"
     inkscape:pageshadow="2"
     inkscape:window-width="1920"
     inkscape:window-height="1007"
     id="namedview186"
     showgrid="false"
     inkscape:zoom="0.921875"
     inkscape:cx="587.44125"
     inkscape:cy="362.35838"
     inkscape:window-x="0"
     inkscape:window-y="0"
     inkscape:window-maximized="1"
     inkscape:current-layer="root" /><g
     id="background"><g
       id="background_1_"><linearGradient
         id="SVGID_1_"
         gradientUnits="userSpaceOnUse"
         x1="-1092.0737"
         y1="-4116.1016"
         x2="-1092.0741"
         y2="-3077.2319"
         gradientTransform="matrix(1 0 0 1 1735.0781 4114.2783)"><stop
           offset="0"
           style="stop-color:#133356"
           id="stop6" /><stop
           offset="0.5025"
           style="stop-color:#7C9999"
           id="stop8" /><stop
           offset="1"
           style="stop-color:#333333"
           id="stop10" /></linearGradient><rect
         x="-2.713"
         y="-4.328"
         fill="url(#SVGID_1_)"
         width="1291.435"
         height="1040.815"
         id="rect12" /></g><g
       id="Layer_4"><radialGradient
         id="SVGID_2_"
         cx="-822.2192"
         cy="-3050.502"
         r="580.9227"
         gradientTransform="matrix(1.0845 0 0 1.5614 1474.3693 5251.749)"
         gradientUnits="userSpaceOnUse"><stop
           offset="0"
           style="stop-color:#E4C8A5;stop-opacity:0.5"
           id="stop16" /><stop
           offset="0.1429"
           style="stop-color:#AEAB93;stop-opacity:0.4372"
           id="stop18" /><stop
           offset="0.3797"
           style="stop-color:#587E77;stop-opacity:0.3331"
           id="stop20" /><stop
           offset="0.4877"
           style="stop-color:#366C6C;stop-opacity:0.2857"
           id="stop22" /></radialGradient><rect
         x="-2.713"
         y="-3.678"
         fill="url(#SVGID_2_)"
         width="1291.435"
         height="1039.841"
         id="rect24" /></g></g><g
     id="glows"><radialGradient
       id="SVGID_3_"
       cx="-814.8936"
       cy="-3624.5308"
       r="167.324"
       gradientTransform="matrix(1 0 0 1 1735.0781 4114.2783)"
       gradientUnits="userSpaceOnUse"><stop
         offset="0"
         style="stop-color:#FFFCDD"
         id="stop28" /><stop
         offset="1"
         style="stop-color:#FEF9C8;stop-opacity:0"
         id="stop30" /></radialGradient><path
       opacity="0.2"
       fill="url(#SVGID_3_)"
       enable-background="new    "
       d="M920.181,322.426c92.412,0,167.33,74.917,167.33,167.329   c0,92.405-74.918,167.315-167.33,167.315c-92.405,0-167.322-74.911-167.322-167.312   C752.854,397.342,827.771,322.426,920.181,322.426z"
       id="path32" /><radialGradient
       id="SVGID_4_"
       cx="-907.8218"
       cy="-3682.1094"
       r="132.4406"
       gradientTransform="matrix(1 0 0 1 1735.0781 4114.2783)"
       gradientUnits="userSpaceOnUse"><stop
         offset="0"
         style="stop-color:#99CCCC"
         id="stop35" /><stop
         offset="1"
         style="stop-color:#FEF9C8;stop-opacity:0"
         id="stop37" /></radialGradient><path
       opacity="0.2"
       fill="url(#SVGID_4_)"
       enable-background="new    "
       d="M827.255,299.728   c73.143,0,132.441,59.296,132.441,132.445c0,73.147-59.3,132.437-132.441,132.437c-73.143,0-132.438-59.29-132.438-132.437   C694.815,359.023,754.112,299.728,827.255,299.728z"
       id="path39" /><radialGradient
       id="SVGID_5_"
       cx="-1479.4873"
       cy="-3704.8848"
       r="175.592"
       gradientTransform="matrix(1 0 0 1 1735.0781 4114.2783)"
       gradientUnits="userSpaceOnUse"><stop
         offset="0"
         style="stop-color:#FFFCDD"
         id="stop42" /><stop
         offset="1"
         style="stop-color:#FEF9C8;stop-opacity:0"
         id="stop44" /></radialGradient><circle
       opacity="0.1"
       fill="url(#SVGID_5_)"
       enable-background="new    "
       cx="255.59"
       cy="409.394"
       r="175.592"
       id="circle46" /><radialGradient
       id="SVGID_6_"
       cx="-1366.8208"
       cy="-3591.5918"
       r="175.5903"
       gradientTransform="matrix(1 0 0 1 1735.0781 4114.2783)"
       gradientUnits="userSpaceOnUse"><stop
         offset="0"
         style="stop-color:#FFFCDD"
         id="stop49" /><stop
         offset="1"
         style="stop-color:#FEF9C8;stop-opacity:0"
         id="stop51" /></radialGradient><path
       opacity="0.1"
       fill="url(#SVGID_6_)"
       enable-background="new    "
       d="M368.257,347.098   c96.978,0,175.592,78.615,175.592,175.592c0,96.972-78.614,175.586-175.592,175.586c-96.977,0-175.592-78.614-175.592-175.586   C192.665,425.712,271.281,347.098,368.257,347.098z"
       id="path53" /><radialGradient
       id="SVGID_7_"
       cx="-1309.0928"
       cy="-3535.96"
       r="224.6294"
       gradientTransform="matrix(1 0 0 1 1735.0781 4114.2783)"
       gradientUnits="userSpaceOnUse"><stop
         offset="0"
         style="stop-color:#FFFCDD"
         id="stop56" /><stop
         offset="1"
         style="stop-color:#FEF9C8;stop-opacity:0"
         id="stop58" /></radialGradient><path
       opacity="0.1"
       fill="url(#SVGID_7_)"
       enable-background="new    "
       d="M425.991,353.691   c124.057,0,224.625,100.573,224.625,224.627c0,124.055-100.569,224.628-224.625,224.628   c-124.063,0-224.636-100.572-224.636-224.628C201.355,454.263,301.927,353.691,425.991,353.691z"
       id="path60" /><radialGradient
       id="SVGID_8_"
       cx="-942.6367"
       cy="-3582.5679"
       r="224.6267"
       gradientTransform="matrix(1 0 0 1 1735.0781 4114.2783)"
       gradientUnits="userSpaceOnUse"><stop
         offset="0"
         style="stop-color:#FFFCDD"
         id="stop63" /><stop
         offset="1"
         style="stop-color:#FEF9C8;stop-opacity:0"
         id="stop65" /></radialGradient><path
       opacity="0.1"
       fill="url(#SVGID_8_)"
       enable-background="new    "
       d="M792.439,307.086   c124.059,0,224.631,100.57,224.631,224.633c0,124.054-100.572,224.616-224.631,224.616c-124.056,0-224.626-100.565-224.626-224.615   C567.812,407.658,668.384,307.086,792.439,307.086z"
       id="path67" /><radialGradient
       id="SVGID_9_"
       cx="-1330.1587"
       cy="-3672.457"
       r="224.6288"
       gradientTransform="matrix(1 0 0 1 1735.0781 4114.2783)"
       gradientUnits="userSpaceOnUse"><stop
         offset="0"
         style="stop-color:#99CCCC"
         id="stop70" /><stop
         offset="1"
         style="stop-color:#FEF9C8;stop-opacity:0"
         id="stop72" /></radialGradient><path
       opacity="0.2"
       fill="url(#SVGID_9_)"
       enable-background="new    "
       d="M404.927,217.193   c124.063,0,224.621,100.573,224.621,224.636c0,124.057-100.559,224.622-224.622,224.622   c-124.063,0-224.636-100.564-224.636-224.623C180.292,317.765,280.865,217.193,404.927,217.193z"
       id="path74" /><radialGradient
       id="SVGID_10_"
       cx="-770.249"
       cy="-3661.6719"
       r="224.6283"
       gradientTransform="matrix(1 0 0 1 1735.0781 4114.2783)"
       gradientUnits="userSpaceOnUse"><stop
         offset="0"
         style="stop-color:#FFFCDD"
         id="stop77" /><stop
         offset="1"
         style="stop-color:#FEF9C8;stop-opacity:0"
         id="stop79" /></radialGradient><path
       opacity="0.2"
       fill="url(#SVGID_10_)"
       enable-background="new    "
       d="M964.827,227.978   c124.063,0,224.63,100.572,224.63,224.634c0,124.06-100.567,224.624-224.63,224.624c-124.061,0-224.626-100.563-224.626-224.624   C740.201,328.55,840.767,227.978,964.827,227.978z"
       id="path81" /><radialGradient
       id="SVGID_11_"
       cx="-836.0649"
       cy="-3503.459"
       r="224.6291"
       gradientTransform="matrix(1 0 0 1 1735.0781 4114.2783)"
       gradientUnits="userSpaceOnUse"><stop
         offset="0"
         style="stop-color:#99CCCC"
         id="stop84" /><stop
         offset="1"
         style="stop-color:#FEF9C8;stop-opacity:0"
         id="stop86" /></radialGradient><path
       opacity="0.2"
       fill="url(#SVGID_11_)"
       enable-background="new    "
       d="M899.004,386.193   c124.068,0,224.641,100.572,224.641,224.623c0,124.056-100.571,224.631-224.641,224.631   c-124.053,0-224.622-100.575-224.622-224.631C674.38,486.764,774.95,386.193,899.004,386.193z"
       id="path88" /></g><g
     id="octopus_1_"><radialGradient
       id="SVGID_12_"
       cx="20180.3516"
       cy="4543.9434"
       r="422.2072"
       gradientTransform="matrix(-1 0 0 -1 20854.3633 5189.6172)"
       gradientUnits="userSpaceOnUse"><stop
         offset="0"
         style="stop-color:#BCCCB3"
         id="stop92" /><stop
         offset="1"
         style="stop-color:#FEF9C8;stop-opacity:0"
         id="stop94" /></radialGradient><path
       opacity="0.1"
       fill="url(#SVGID_12_)"
       enable-background="new    "
       d="M231.471,344.839c0,0-99.625,122.098-66.468,251.693   c56.049,219.073,225.749,254.094,500.625,191.769c484.379-109.83,501.117,135.435,497.523,158.207l26.296-38.127   c3.596-22.77-13.146-268.028-497.524-158.207c-274.876,62.327-444.578,27.309-500.624-191.761   C158.144,428.814,231.471,344.839,231.471,344.839"
       id="path96" /><radialGradient
       id="SVGID_13_"
       cx="20054.7715"
       cy="4704.2627"
       r="846.1494"
       gradientTransform="matrix(-1 0 0 -1 20854.3633 5189.6172)"
       gradientUnits="userSpaceOnUse"><stop
         offset="0"
         style="stop-color:#BCCCB3"
         id="stop99" /><stop
         offset="1"
         style="stop-color:#FEF9C8;stop-opacity:0"
         id="stop101" /></radialGradient><path
       opacity="0.5"
       fill="url(#SVGID_13_)"
       enable-background="new    "
       d="M140.251,282.044c0,0-99.624,122.103-66.469,251.703   c56.046,219.064,225.748,254.086,500.626,191.759c484.375-109.824,501.12,135.441,497.522,158.213l34.013-3.437   c16.877-38.521-20.864-302.723-505.244-192.898c-274.877,62.323-444.576,27.307-500.623-191.758   C66.924,366.02,140.251,282.044,140.251,282.044"
       id="path103" /><radialGradient
       id="SVGID_14_"
       cx="20139.8984"
       cy="4559.4053"
       r="422.2084"
       gradientTransform="matrix(-1 0 0 -1 20854.3633 5189.6172)"
       gradientUnits="userSpaceOnUse"><stop
         offset="0"
         style="stop-color:#BCCCB3"
         id="stop106" /><stop
         offset="1"
         style="stop-color:#FEF9C8;stop-opacity:0"
         id="stop108" /></radialGradient><path
       opacity="0.2"
       fill="url(#SVGID_14_)"
       enable-background="new    "
       d="M271.922,329.377c0,0-99.628,122.103-66.47,251.696   C261.5,800.146,431.2,835.164,706.075,772.84c484.379-109.829,501.12,135.432,497.527,158.207l26.296-38.114   c3.597-22.772-13.147-268.041-497.525-158.215c-274.875,62.329-444.577,27.305-500.624-191.76   C198.594,413.353,271.922,329.377,271.922,329.377"
       id="path110" /><linearGradient
       id="SVGID_15_"
       gradientUnits="userSpaceOnUse"
       x1="19664.0625"
       y1="4660.4346"
       x2="20714.9492"
       y2="4660.4346"
       gradientTransform="matrix(-1 0 0 -1 20854.3633 5189.6172)"><stop
         offset="0"
         style="stop-color:#ABCCB3;stop-opacity:0.7"
         id="stop113" /><stop
         offset="0.33"
         style="stop-color:#B4CFB5;stop-opacity:0.05"
         id="stop115" /><stop
         offset="0.803"
         style="stop-color:#C1D4B7;stop-opacity:0.5"
         id="stop117" /><stop
         offset="1"
         style="stop-color:#FEF9C8;stop-opacity:0"
         id="stop119" /></linearGradient><path
       opacity="0.4"
       fill="url(#SVGID_15_)"
       enable-background="new    "
       d="M139.415,421.625c0,0,28.399-107.808,154.297-153.041   c234.333-95.87,369.836,97.773,451.196,291.011c7.188,17.076,25.169,60.222,54.828,142.913   c39.18,109.229,92.584,110.558,210.988,88.28c182.646-41.413,170.373,51.073,169.007,59.66l9.915-14.372   c1.364-8.586,13.632-101.073-169.01-59.662c-112.972,24.163-167.926-0.733-199.611-83.799   c-31.691-83.058-33.646-86.171-63.535-162.685c-102.563-262.546-220.215-366.75-446.965-304.504   C184.629,270.666,139.415,421.625,139.415,421.625"
       id="path121" /></g><g
     id="rounds"><path
       fill="none"
       stroke="#FFFFFF"
       stroke-width="2"
       stroke-miterlimit="10"
       d="M756.161,599.892"
       id="path124" /><circle
       opacity="0.3"
       fill="#FFFFFF"
       enable-background="new    "
       cx="714.464"
       cy="622.979"
       r="7.854"
       id="circle126" /><path
       opacity="0.2"
       fill="#FFFFFF"
       enable-background="new    "
       d="M920.794,504.259c4.344,0,7.856,3.518,7.856,7.854   c0,4.34-3.519,7.855-7.856,7.855c-4.335,0-7.853-3.518-7.853-7.855C912.942,507.778,916.459,504.259,920.794,504.259z"
       id="path128" /><circle
       opacity="0.1"
       fill="#FFFFFF"
       enable-background="new    "
       cx="1060.651"
       cy="353.81"
       r="7.855"
       id="circle130" /><circle
       opacity="0.4"
       fill="#FFFFFF"
       enable-background="new    "
       cx="475.876"
       cy="671.481"
       r="7.856"
       id="circle132" /></g><g
     id="logoGroup_1_"
     transform="matrix(0.7,0,0,0.7,93.3873,148.8132)"><path
       enable-background="new    "
       d="m 311.289,407.915 c 48.675,0 88.133,39.458 88.133,88.133 0,48.669 -39.458,88.125 -88.133,88.125 -48.672,0 -88.129,-39.455 -88.129,-88.125 0.002,-48.675 39.458,-88.133 88.129,-88.133 z"
       id="path135"
       inkscape:connector-curvature="0"
       style="opacity:0.4;fill:#366c6c" /><g
       id="logo_1_"
       enable-background="new    "><path
         d="m 319.037,500.404 c -1.635,0.021 0.31,0.837 2.444,1.17 0.592,-0.462 1.125,-0.929 1.6,-1.38 -1.329,0.326 -2.681,0.334 -4.044,0.21"
         id="path138"
         inkscape:connector-curvature="0"
         style="fill:#ffffff" /><path
         d="m 327.815,498.216 c 0.98,-1.348 1.686,-2.816 1.936,-4.341 -0.22,1.086 -0.806,2.02 -1.36,3.01 -3.059,1.93 -0.287,-1.141 -0.007,-2.313 -3.283,4.144 -0.453,2.487 -0.569,3.644"
         id="path140"
         inkscape:connector-curvature="0"
         style="fill:#ffffff" /><path
         d="m 331.058,489.779 c 0.199,-2.944 -0.579,-2.011 -0.839,-0.89 0.303,0.162 0.544,2.078 0.839,0.89"
         id="path142"
         inkscape:connector-curvature="0"
         style="fill:#ffffff" /><path
         d="m 312.829,449.511 c 0.876,0.159 1.888,0.274 1.744,0.484 0.956,-0.212 1.173,-0.399 -1.744,-0.484"
         id="path144"
         inkscape:connector-curvature="0"
         style="fill:#ffffff" /><path
         d="m 314.574,449.996 -0.612,0.132 0.573,-0.058 0.039,-0.074"
         id="path146"
         inkscape:connector-curvature="0"
         style="fill:#ffffff" /><path
         d="m 341.801,490.898 c 0.093,2.643 -0.773,3.931 -1.561,6.205 l -1.412,0.707 c -1.161,2.25 0.112,1.432 -0.712,3.213 -1.813,1.608 -5.481,5.028 -6.654,5.336 -0.862,-0.021 0.583,-1.014 0.77,-1.403 -2.418,1.661 -1.938,2.488 -5.641,3.506 l -0.11,-0.241 c -9.12,4.292 -21.786,-4.208 -21.624,-15.813 -0.096,0.736 -0.276,0.55 -0.479,0.846 -0.469,-5.969 2.76,-11.963 8.203,-14.416 5.33,-2.633 11.572,-1.559 15.375,2.006 -2.091,-2.746 -6.264,-5.658 -11.199,-5.386 -4.836,0.085 -9.375,3.159 -10.877,6.499 -2.484,1.559 -2.768,6.019 -3.849,6.833 -1.461,10.686 2.735,15.298 9.821,20.732 1.111,0.757 0.312,0.866 0.462,1.437 -2.361,-1.101 -4.508,-2.766 -6.279,-4.804 0.938,1.375 1.961,2.711 3.267,3.76 -2.221,-0.748 -5.186,-5.381 -6.053,-5.566 3.827,6.855 15.521,12.022 21.652,9.452 -2.836,0.109 -6.438,0.062 -9.625,-1.118 -1.335,-0.688 -3.158,-2.111 -2.833,-2.377 8.358,3.123 16.991,2.36 24.228,-3.436 1.844,-1.432 3.854,-3.871 4.436,-3.906 -0.874,1.314 0.15,0.635 -0.521,1.793 1.833,-2.959 -0.797,-1.204 1.892,-5.107 l 0.991,1.369 c -0.374,-2.459 3.053,-5.436 2.704,-9.32 0.788,-1.187 0.876,1.279 0.037,4.007 1.157,-3.028 0.313,-3.508 0.604,-6.017 0.313,0.839 0.739,1.732 0.96,2.622 -0.753,-2.933 0.768,-4.932 1.147,-6.63 -0.374,-0.167 -1.161,1.291 -1.341,-2.163 0.024,-1.502 0.418,-0.786 0.569,-1.158 -0.294,-0.168 -1.067,-1.321 -1.537,-3.532 0.34,-0.516 0.913,1.344 1.372,1.419 -0.295,-1.754 -0.811,-3.094 -0.834,-4.44 -1.36,-2.834 -0.482,0.382 -1.582,-1.213 -1.446,-4.508 1.196,-1.043 1.38,-3.09 2.183,3.171 3.432,8.082 4.005,10.122 -0.436,-2.481 -1.136,-4.881 -2.007,-7.213 0.662,0.286 -1.076,-5.109 0.859,-1.537 -2.06,-7.605 -8.846,-14.713 -15.079,-18.043 0.763,0.695 1.728,1.571 1.387,1.71 -3.108,-1.843 -2.562,-1.991 -3.005,-2.77 -2.529,-1.033 -2.691,0.084 -4.36,0.004 -4.761,-2.529 -5.681,-2.26 -10.059,-3.841 l 0.195,0.938 c -3.154,-1.055 -3.675,0.393 -7.083,10e-4 -0.208,-0.161 1.096,-0.587 2.162,-0.741 -3.05,0.403 -2.908,-0.602 -5.891,0.112 0.736,-0.512 1.511,-0.86 2.298,-1.295 -2.486,0.155 -5.938,1.445 -4.873,0.263 -4.059,1.812 -11.261,4.357 -15.306,8.146 l -0.126,-0.847 c -1.857,2.225 -8.078,6.64 -8.577,9.526 l -0.493,0.11 c -0.962,1.635 -1.585,3.483 -2.354,5.158 -1.264,2.148 -1.848,0.826 -1.667,1.16 -2.481,5.032 -3.714,9.253 -4.777,12.723 0.761,1.134 0.017,6.822 0.303,11.375 -1.242,22.487 15.786,44.331 34.401,49.367 2.728,0.98 6.781,0.938 10.237,1.033 -4.074,-1.161 -4.601,-0.609 -8.567,-2 -2.86,-1.347 -3.486,-2.882 -5.515,-4.644 l 0.801,1.413 c -3.972,-1.408 -2.309,-1.742 -5.545,-2.76 l 0.861,-1.112 c -1.285,-0.099 -3.408,-2.171 -3.99,-3.323 l -1.412,0.062 c -1.691,-2.087 -2.598,-3.595 -2.527,-4.758 l -0.462,0.809 c -0.51,-0.889 -6.229,-7.832 -3.261,-6.217 -0.553,-0.504 -1.287,-0.814 -2.084,-2.26 l 0.61,-0.684 c -1.432,-1.839 -2.635,-4.19 -2.534,-4.98 0.762,1.031 1.288,1.219 1.813,1.396 -3.614,-8.937 -3.813,-0.488 -6.534,-9.096 l 0.577,-0.046 c -0.437,-0.669 -0.709,-1.39 -1.063,-2.104 l 0.254,-2.504 c -2.592,-2.998 -0.728,-12.747 -0.354,-18.094 0.264,-2.178 2.16,-4.489 3.61,-8.127 l -0.884,-0.153 c 1.685,-2.941 9.637,-11.824 13.319,-11.372 1.786,-2.236 -0.355,-0.013 -0.706,-0.572 3.919,-4.056 5.153,-2.855 7.796,-3.594 2.854,-1.685 -2.445,0.663 -1.092,-0.639 4.931,-1.261 3.49,-2.86 9.925,-3.504 0.681,0.386 -1.572,0.59 -2.134,1.09 4.107,-2.009 12.997,-1.556 18.77,1.112 6.7,3.135 14.224,12.388 14.523,21.097 l 0.334,0.087 c -0.168,3.459 0.536,7.466 -0.687,11.146 l 0.821,-1.736"
         id="path148"
         inkscape:connector-curvature="0"
         style="fill:#ffffff" /><path
         d="m 301.178,502.649 -0.229,1.145 c 1.074,1.463 1.927,3.045 3.299,4.184 -0.989,-1.926 -1.718,-2.721 -3.07,-5.329"
         id="path150"
         inkscape:connector-curvature="0"
         style="fill:#ffffff" /><path
         d="m 303.716,502.551 c -0.564,-0.633 -0.908,-1.385 -1.285,-2.138 0.362,1.33 1.102,2.464 1.787,3.631 l -0.502,-1.493"
         id="path152"
         inkscape:connector-curvature="0"
         style="fill:#ffffff" /><path
         d="m 348.703,492.773 -0.24,0.604 c -0.434,3.131 -1.392,6.229 -2.854,9.097 1.611,-3.029 2.649,-6.34 3.094,-9.701"
         id="path154"
         inkscape:connector-curvature="0"
         style="fill:#ffffff" /><path
         d="m 313.154,448.723 c 1.109,-0.407 2.718,-0.221 3.894,-0.488 -1.532,0.132 -3.053,0.209 -4.556,0.394 l 0.662,0.094"
         id="path156"
         inkscape:connector-curvature="0"
         style="fill:#ffffff" /><path
         d="m 274.319,469.377 c 0.255,2.359 -1.776,3.274 0.448,1.715 1.192,-2.684 -0.463,-0.738 -0.448,-1.715"
         id="path158"
         inkscape:connector-curvature="0"
         style="fill:#ffffff" /><path
         d="m 271.705,480.298 c 0.511,-1.573 0.61,-2.516 0.804,-3.429 -1.42,1.813 -0.655,2.198 -0.804,3.429"
         id="path160"
         inkscape:connector-curvature="0"
         style="fill:#ffffff" /></g></g><g
     id="debian_1_"
     transform="matrix(0.56,0,0,0.56,428.58816,262.50555)"><g
       id="g163"><path
         d="m 888.549,591.532 c -0.061,0.067 -0.061,10.688 -0.196,13.461 -0.128,2.242 -0.329,7.058 -5.082,7.058 -4.881,0 -6.069,-5.609 -6.466,-8.049 -0.457,-2.703 -0.457,-4.95 -0.457,-5.935 0,-3.168 0.196,-12.011 7.652,-12.011 2.248,0 3.501,0.662 4.487,1.187 l 0.062,4.289 z m -19.131,7.786 c 0,18.608 9.898,18.608 11.349,18.608 4.094,0 6.734,-2.246 7.854,-6.136 l 0.129,5.869 c 1.255,-0.067 2.516,-0.195 4.554,-0.195 0.729,0 1.32,0 1.853,0.063 0.525,0 1.055,0.064 1.65,0.133 -1.056,-2.108 -1.85,-6.857 -1.85,-17.156 0,-10.024 0,-26.981 0.862,-32.129 -2.376,1.123 -4.426,1.847 -8.91,2.245 1.782,1.91 1.782,2.903 1.782,11.604 -1.251,-0.393 -2.839,-0.854 -5.543,-0.854 -11.819,0 -13.73,10.292 -13.73,17.948"
         id="path165"
         inkscape:connector-curvature="0"
         style="fill:#ffffff" /><path
         d="m 905.202,595.951 c 0.064,-5.477 1.188,-10.356 5.872,-10.356 5.149,0 5.542,5.674 5.41,10.356 l -11.282,0 z m 17.815,0.661 c 0,-7.721 -1.516,-15.309 -11.278,-15.309 -13.463,0 -13.463,14.914 -13.463,18.08 0,13.395 6.007,18.672 16.097,18.672 4.488,0 6.668,-0.655 7.855,-0.991 -0.063,-2.376 0.266,-3.891 0.658,-5.932 -1.386,0.856 -3.168,1.979 -7.13,1.979 -10.297,0 -10.427,-9.373 -10.427,-12.606 l 17.555,0 0.133,-3.893"
         id="path167"
         inkscape:connector-curvature="0"
         style="fill:#ffffff" /><path
         d="m 944.486,599.449 c 0,6.136 -1.124,14.385 -8.775,14.385 -1.056,0 -2.376,-0.201 -3.231,-0.396 -0.141,-2.377 -0.141,-6.466 -0.141,-11.217 0,-5.678 0.596,-8.642 1.062,-10.094 1.384,-4.686 4.485,-4.75 5.083,-4.75 5.01,-10e-4 6.002,6.926 6.002,12.072 z m -18.94,7.194 c 0,4.88 0,7.654 -0.794,9.766 2.71,1.057 6.071,1.649 10.102,1.649 2.567,0 10.027,0 14.057,-8.247 1.911,-3.825 2.569,-8.975 2.569,-12.867 0,-2.376 -0.266,-7.587 -2.18,-10.888 -1.845,-3.099 -4.817,-4.682 -7.979,-4.682 -6.335,0 -8.185,5.278 -9.175,7.983 0,-3.362 0.066,-15.107 0.592,-21.114 -4.292,1.981 -6.934,2.308 -9.77,2.572 2.576,1.055 2.576,5.411 2.576,19.598 l 0,16.23"
         id="path169"
         inkscape:connector-curvature="0"
         style="fill:#ffffff" /><path
         d="m 964.165,617.659 c -1.318,-0.197 -2.247,-0.33 -4.16,-0.33 -2.104,0 -3.561,0.134 -5.079,0.33 0.662,-1.251 0.926,-1.845 1.124,-6.134 0.264,-5.869 0.329,-21.577 -0.132,-24.878 -0.331,-2.511 -0.924,-2.905 -1.847,-3.563 5.409,-0.529 6.925,-0.927 9.436,-2.111 -0.526,2.904 -0.598,4.358 -0.598,8.775 -0.133,22.769 -0.198,25.207 1.256,27.911"
         id="path171"
         inkscape:connector-curvature="0"
         style="fill:#ffffff" /><path
         d="m 985.298,598.983 c -0.135,4.158 -0.197,7.064 -1.322,9.374 -1.385,2.97 -3.696,3.824 -5.406,3.824 -3.965,0 -4.82,-3.294 -4.82,-6.528 0,-6.205 5.546,-6.667 8.05,-6.667 l 3.503,0 -0.005,-0.003 0,0 z m -18.151,8.121 c 0,4.154 1.253,8.31 4.953,10.096 1.651,0.727 3.298,0.727 3.824,0.727 6.069,0 8.115,-4.486 9.372,-7.26 -0.064,2.903 0,4.684 0.196,6.993 1.188,-0.065 2.377,-0.196 4.357,-0.196 1.119,0 2.176,0.131 3.298,0.196 -0.73,-1.118 -1.122,-1.778 -1.321,-4.354 -0.132,-2.505 -0.132,-5.016 -0.132,-8.515 l 0.065,-13.459 c 0,-5.019 -1.319,-9.965 -11.219,-9.965 -6.531,0 -10.359,1.98 -12.273,2.969 0.795,1.455 1.457,2.705 2.047,5.547 2.581,-2.249 5.941,-3.438 9.369,-3.438 5.48,0 5.48,3.636 5.48,8.777 -1.253,-0.063 -2.311,-0.196 -4.092,-0.196 -8.383,0.003 -13.924,3.231 -13.924,12.078"
         id="path173"
         inkscape:connector-curvature="0"
         style="fill:#ffffff" /><path
         d="m 1023.306,611.127 c 0.068,2.242 0.068,4.616 0.99,6.531 -1.456,-0.136 -2.313,-0.33 -5.02,-0.33 -1.584,0 -2.438,0.138 -3.695,0.33 0.266,-0.856 0.4,-1.184 0.529,-2.307 0.197,-1.518 0.334,-6.603 0.334,-8.384 l 0,-7.127 c 0,-3.1 0,-7.592 -0.206,-9.171 -0.13,-1.121 -0.458,-4.157 -4.29,-4.157 -3.762,0 -5.016,2.77 -5.478,5.015 -0.527,2.311 -0.527,4.818 -0.527,14.58 0.065,8.449 0.065,9.238 0.724,11.549 -1.117,-0.134 -2.503,-0.264 -4.484,-0.264 -1.584,0 -2.642,0.063 -3.953,0.264 0.458,-1.056 0.725,-1.583 0.854,-5.275 0.136,-3.635 0.399,-21.447 -0.198,-25.666 -0.329,-2.577 -0.989,-3.17 -1.714,-3.832 5.346,-0.265 7.061,-1.117 8.71,-1.979 l 0,6.993 c 0.792,-2.044 2.439,-6.601 9.041,-6.601 8.249,0 8.316,6.006 8.381,9.964 l 0,19.867"
         id="path175"
         inkscape:connector-curvature="0"
         style="fill:#ffffff" /><path
         d="m 964.722,571.637 -5.464,5.46 -5.46,-5.46 5.46,-5.461 5.464,5.461"
         id="path177"
         inkscape:connector-curvature="0"
         style="fill:#ffffff" /></g><g
       id="_x39_"><g
         id="g180"><g
           id="g182"><path
             d="m 1060.649,607.987 c -9.659,0.285 -18.051,-8.181 -18.051,-17.356 0,-10.161 7.354,-19.089 18.345,-19.089 10.989,0 17.767,8.927 17.767,22.644 0,11.824 -3.958,20.088 -9.255,25.217 -4.126,4.047 -9.836,6.527 -15.62,7.19 -2.644,0.407 -4.957,0.495 -6.691,0.407 0,0 24.682,-7.414 25.457,-27.714 0.171,-4.541 3.308,-22.617 -12.23,-22.203 -6.195,0.161 -10.581,5.453 -10.581,13.057 0,6.691 2.055,11.435 8.839,13.094 4.737,1.163 7.713,-0.677 11.227,-9.257 -0.01,-0.005 1.545,13.695 -9.207,14.01 z"
             id="path184"
             inkscape:connector-curvature="0"
             style="fill:#ffffff" /></g></g></g></g></svg>
