<?xml version="1.0" encoding="UTF-8" standalone="no"?>
<!-- Generator: Adobe Illustrator 16.0.0, SVG Export Plug-In . SVG Version: 6.00 Build 0)  -->

<svg
   xmlns:dc="http://purl.org/dc/elements/1.1/"
   xmlns:cc="http://creativecommons.org/ns#"
   xmlns:rdf="http://www.w3.org/1999/02/22-rdf-syntax-ns#"
   xmlns:svg="http://www.w3.org/2000/svg"
   xmlns="http://www.w3.org/2000/svg"
   xmlns:sodipodi="http://sodipodi.sourceforge.net/DTD/sodipodi-0.dtd"
   xmlns:inkscape="http://www.inkscape.org/namespaces/inkscape"
   version="1.1"
   id="root"
   x="0px"
   y="0px"
   width="1600"
   height="1200"
   viewBox="0 0 1600 1200"
   enable-background="new 0 0 1024 768"
   xml:space="preserve"
   inkscape:version="0.91 r13725"
   sodipodi:docname="1600x1200.svg"><metadata
     id="metadata190"><rdf:RDF><cc:Work
         rdf:about=""><dc:format>image/svg+xml</dc:format><dc:type
           rdf:resource="http://purl.org/dc/dcmitype/StillImage" /><dc:title /></cc:Work></rdf:RDF></metadata><defs
     id="defs188" /><sodipodi:namedview
     pagecolor="#ffffff"
     bordercolor="#666666"
     borderopacity="1"
     objecttolerance="10"
     gridtolerance="10"
     guidetolerance="10"
     inkscape:pageopacity="0"
     inkscape:pageshadow="2"
     inkscape:window-width="1920"
     inkscape:window-height="1007"
     id="namedview186"
     showgrid="false"
     inkscape:zoom="0.43457604"
     inkscape:cx="997.49872"
     inkscape:cy="598.09344"
     inkscape:window-x="0"
     inkscape:window-y="0"
     inkscape:window-maximized="1"
     inkscape:current-layer="root"
     fit-margin-top="0"
     fit-margin-left="0"
     fit-margin-right="0"
     fit-margin-bottom="0" /><g
     id="background"
     transform="matrix(1.5625,0,0,1.5625,-8.5253906e-6,-5.3417969e-6)"><g
       id="background_1_"><linearGradient
         id="SVGID_1_"
         gradientUnits="userSpaceOnUse"
         x1="-1759.3784"
         y1="4249.1641"
         x2="-1759.3788"
         y2="3474.7119"
         gradientTransform="matrix(1,0,0,-1,2273.3789,4247.0781)"><stop
           offset="0"
           style="stop-color:#133356"
           id="stop6" /><stop
           offset="0.5025"
           style="stop-color:#7C9999"
           id="stop8" /><stop
           offset="1"
           style="stop-color:#333333"
           id="stop10" /></linearGradient><rect
         style="fill:url(#SVGID_1_)"
         x="-1"
         y="-3.95"
         width="1030.001"
         height="775.901"
         id="rect12" /></g><g
       id="Layer_4"><radialGradient
         id="SVGID_2_"
         cx="-1848.6968"
         cy="3394.2793"
         r="504.36789"
         gradientTransform="matrix(0.9962,0,0,-1.3407,2307.5947,4914.2051)"
         gradientUnits="userSpaceOnUse"><stop
           offset="0"
           style="stop-color:#E4C8A5;stop-opacity:0.5"
           id="stop16" /><stop
           offset="0.1429"
           style="stop-color:#AEAB93;stop-opacity:0.4372"
           id="stop18" /><stop
           offset="0.3797"
           style="stop-color:#587E77;stop-opacity:0.3331"
           id="stop20" /><stop
           offset="0.4877"
           style="stop-color:#366C6C;stop-opacity:0.2857"
           id="stop22" /></radialGradient><rect
         style="fill:url(#SVGID_2_)"
         x="-1"
         y="-3.4660001"
         width="1030.001"
         height="775.17401"
         id="rect24" /></g></g><g
     id="glows"
     transform="matrix(1.5625,0,0,1.5625,-8.5253906e-6,-5.3417969e-6)"><radialGradient
       id="SVGID_3_"
       cx="-1507.3711"
       cy="3897.7227"
       r="145.2749"
       gradientTransform="matrix(1,0,0,-1,2273.3789,4247.0781)"
       gradientUnits="userSpaceOnUse"><stop
         offset="0"
         style="stop-color:#FFFCDD"
         id="stop28" /><stop
         offset="1"
         style="stop-color:#FEF9C8;stop-opacity:0"
         id="stop30" /></radialGradient><path
       inkscape:connector-curvature="0"
       style="opacity:0.2;fill:url(#SVGID_3_)"
       enable-background="new    "
       d="m 766.007,204.082 c 80.234,0 145.277,65.042 145.277,145.275 0,80.229 -65.043,145.272 -145.277,145.272 -80.23,0 -145.275,-65.043 -145.275,-145.271 -0.003,-80.234 65.042,-145.276 145.275,-145.276 z"
       id="path32" /><radialGradient
       id="SVGID_4_"
       cx="-1588.0508"
       cy="3947.7168"
       r="114.9883"
       gradientTransform="matrix(1,0,0,-1,2273.3789,4247.0781)"
       gradientUnits="userSpaceOnUse"><stop
         offset="0"
         style="stop-color:#99CCCC"
         id="stop35" /><stop
         offset="1"
         style="stop-color:#FEF9C8;stop-opacity:0"
         id="stop37" /></radialGradient><path
       inkscape:connector-curvature="0"
       style="opacity:0.2;fill:url(#SVGID_4_)"
       enable-background="new    "
       d="m 685.327,184.374 c 63.506,0 114.99,51.481 114.99,114.989 0,63.507 -51.484,114.985 -114.99,114.985 -63.506,0 -114.988,-51.478 -114.988,-114.985 0,-63.508 51.482,-114.989 114.988,-114.989 z"
       id="path39" /><radialGradient
       id="SVGID_5_"
       cx="-2084.3901"
       cy="3967.4893"
       r="152.4512"
       gradientTransform="matrix(1,0,0,-1,2273.3789,4247.0781)"
       gradientUnits="userSpaceOnUse"><stop
         offset="0"
         style="stop-color:#FFFCDD"
         id="stop42" /><stop
         offset="1"
         style="stop-color:#FEF9C8;stop-opacity:0"
         id="stop44" /></radialGradient><circle
       style="opacity:0.1;fill:url(#SVGID_5_)"
       enable-background="new    "
       cx="188.989"
       cy="279.58899"
       r="152.451"
       id="circle46" /><radialGradient
       id="SVGID_6_"
       cx="-1986.5723"
       cy="3869.126"
       r="152.4509"
       gradientTransform="matrix(1,0,0,-1,2273.3789,4247.0781)"
       gradientUnits="userSpaceOnUse"><stop
         offset="0"
         style="stop-color:#FFFCDD"
         id="stop49" /><stop
         offset="1"
         style="stop-color:#FEF9C8;stop-opacity:0"
         id="stop51" /></radialGradient><circle
       style="opacity:0.1;fill:url(#SVGID_6_)"
       enable-background="new    "
       cx="286.806"
       cy="377.952"
       r="152.451"
       id="circle53" /><radialGradient
       id="SVGID_7_"
       cx="-1936.4463"
       cy="3820.8242"
       r="195.0298"
       gradientTransform="matrix(1,0,0,-1,2273.3789,4247.0781)"
       gradientUnits="userSpaceOnUse"><stop
         offset="0"
         style="stop-color:#FFFCDD"
         id="stop56" /><stop
         offset="1"
         style="stop-color:#FEF9C8;stop-opacity:0"
         id="stop58" /></radialGradient><path
       inkscape:connector-curvature="0"
       style="opacity:0.1;fill:url(#SVGID_7_)"
       enable-background="new    "
       d="m 336.93,231.226 c 107.713,0 195.034,87.317 195.034,195.025 0,107.712 -87.321,195.03 -195.034,195.03 -107.711,0 -195.029,-87.318 -195.029,-195.03 C 141.9,318.543 229.218,231.226 336.93,231.226 Z"
       id="path60" /><radialGradient
       id="SVGID_8_"
       cx="-1618.2812"
       cy="3861.2881"
       r="195.02831"
       gradientTransform="matrix(1,0,0,-1,2273.3789,4247.0781)"
       gradientUnits="userSpaceOnUse"><stop
         offset="0"
         style="stop-color:#FFFCDD"
         id="stop63" /><stop
         offset="1"
         style="stop-color:#FEF9C8;stop-opacity:0"
         id="stop65" /></radialGradient><path
       inkscape:connector-curvature="0"
       style="opacity:0.1;fill:url(#SVGID_8_)"
       enable-background="new    "
       d="m 655.099,190.764 c 107.713,0 195.029,87.315 195.029,195.025 0,107.715 -87.316,195.027 -195.029,195.027 -107.709,0 -195.031,-87.314 -195.031,-195.026 -10e-4,-107.71 87.322,-195.026 195.031,-195.026 z"
       id="path67" /><radialGradient
       id="SVGID_9_"
       cx="-1954.7354"
       cy="3939.332"
       r="195.0278"
       gradientTransform="matrix(1,0,0,-1,2273.3789,4247.0781)"
       gradientUnits="userSpaceOnUse"><stop
         offset="0"
         style="stop-color:#99CCCC"
         id="stop70" /><stop
         offset="1"
         style="stop-color:#FEF9C8;stop-opacity:0"
         id="stop72" /></radialGradient><circle
       style="opacity:0.2;fill:url(#SVGID_9_)"
       enable-background="new    "
       cx="318.64301"
       cy="307.746"
       r="195.028"
       id="circle74" /><radialGradient
       id="SVGID_10_"
       cx="-1468.6074"
       cy="3929.9688"
       r="195.0278"
       gradientTransform="matrix(1,0,0,-1,2273.3789,4247.0781)"
       gradientUnits="userSpaceOnUse"><stop
         offset="0"
         style="stop-color:#FFFCDD"
         id="stop77" /><stop
         offset="1"
         style="stop-color:#FEF9C8;stop-opacity:0"
         id="stop79" /></radialGradient><circle
       style="opacity:0.2;fill:url(#SVGID_10_)"
       enable-background="new    "
       cx="804.771"
       cy="317.10999"
       r="195.028"
       id="circle81" /><radialGradient
       id="SVGID_11_"
       cx="-1525.7529"
       cy="3792.6064"
       r="195.02831"
       gradientTransform="matrix(1,0,0,-1,2273.3789,4247.0781)"
       gradientUnits="userSpaceOnUse"><stop
         offset="0"
         style="stop-color:#99CCCC"
         id="stop84" /><stop
         offset="1"
         style="stop-color:#FEF9C8;stop-opacity:0"
         id="stop86" /></radialGradient><path
       inkscape:connector-curvature="0"
       style="opacity:0.2;fill:url(#SVGID_11_)"
       enable-background="new    "
       d="m 747.624,259.444 c 107.715,0 195.031,87.317 195.031,195.024 0,107.712 -87.316,195.03 -195.031,195.03 -107.709,0 -195.027,-87.318 -195.027,-195.03 0,-107.707 87.318,-195.024 195.027,-195.024 z"
       id="path88" /></g><g
     id="octopus_1_"
     transform="matrix(1.5625,0,0,1.5625,-8.5253906e-6,-5.3417969e-6)"><radialGradient
       id="SVGID_12_"
       cx="14671.389"
       cy="-3744.686"
       r="366.57059"
       gradientTransform="matrix(-1,0,0,1,15223.664,4229.417)"
       gradientUnits="userSpaceOnUse"><stop
         offset="0"
         style="stop-color:#BCCCB3"
         id="stop92" /><stop
         offset="1"
         style="stop-color:#FEF9C8;stop-opacity:0"
         id="stop94" /></radialGradient><path
       inkscape:connector-curvature="0"
       style="opacity:0.1;fill:url(#SVGID_12_)"
       enable-background="new    "
       d="m 168.048,223.54 c 0,0 -86.494,106.006 -57.708,218.526 48.662,190.206 195.996,220.612 434.657,166.5 420.549,-95.355 435.082,117.585 431.961,137.355 l 22.83,-33.101 C 1002.909,693.052 988.376,480.113 567.827,575.464 329.164,629.576 181.83,599.174 133.171,408.966 104.385,296.448 168.048,223.54 168.048,223.54"
       id="path96" /><radialGradient
       id="SVGID_13_"
       cx="14562.357"
       cy="-3883.877"
       r="734.64832"
       gradientTransform="matrix(-1,0,0,1,15223.664,4229.417)"
       gradientUnits="userSpaceOnUse"><stop
         offset="0"
         style="stop-color:#BCCCB3"
         id="stop99" /><stop
         offset="1"
         style="stop-color:#FEF9C8;stop-opacity:0"
         id="stop101" /></radialGradient><path
       inkscape:connector-curvature="0"
       style="opacity:0.5;fill:url(#SVGID_13_)"
       enable-background="new    "
       d="m 88.851,169.021 c 0,0 -86.494,106.01 -57.71,218.529 48.661,190.205 195.995,220.61 434.655,166.498 420.548,-95.354 435.085,117.59 431.962,137.36 l 29.531,-2.98 C 941.941,654.983 909.174,425.595 488.623,520.949 249.965,575.06 102.631,544.658 53.971,354.454 25.188,241.93 88.851,169.021 88.851,169.021"
       id="path103" /><radialGradient
       id="SVGID_14_"
       cx="14636.27"
       cy="-3758.1094"
       r="366.5708"
       gradientTransform="matrix(-1,0,0,1,15223.664,4229.417)"
       gradientUnits="userSpaceOnUse"><stop
         offset="0"
         style="stop-color:#BCCCB3"
         id="stop106" /><stop
         offset="1"
         style="stop-color:#FEF9C8;stop-opacity:0"
         id="stop108" /></radialGradient><path
       inkscape:connector-curvature="0"
       style="opacity:0.2;fill:url(#SVGID_14_)"
       enable-background="new    "
       d="m 203.168,210.116 c 0,0 -86.496,106.01 -57.709,218.527 48.66,190.208 195.994,220.61 434.655,166.499 420.549,-95.354 435.084,117.583 431.963,137.356 l 22.83,-33.092 C 1038.03,679.634 1023.493,466.688 602.946,562.044 364.284,616.156 216.95,585.751 168.29,395.546 139.505,283.024 203.168,210.116 203.168,210.116"
       id="path110" /><linearGradient
       id="SVGID_15_"
       gradientUnits="userSpaceOnUse"
       x1="14223.135"
       y1="-3845.8223"
       x2="15135.541"
       y2="-3845.8223"
       gradientTransform="matrix(-1,0,0,1,15223.664,4229.417)"><stop
         offset="0"
         style="stop-color:#ABCCB3;stop-opacity:0.7"
         id="stop113" /><stop
         offset="0.33"
         style="stop-color:#B4CFB5;stop-opacity:0.05"
         id="stop115" /><stop
         offset="0.803"
         style="stop-color:#C1D4B7;stop-opacity:0.5"
         id="stop117" /><stop
         offset="1"
         style="stop-color:#FEF9C8;stop-opacity:0"
         id="stop119" /></linearGradient><path
       inkscape:connector-curvature="0"
       style="opacity:0.4;fill:url(#SVGID_15_)"
       enable-background="new    "
       d="m 88.124,290.207 c 0,0 24.657,-93.599 133.962,-132.87 203.448,-83.235 321.105,84.886 391.744,252.657 6.24,14.827 21.852,52.288 47.604,124.087 34.018,94.833 80.385,95.987 183.184,76.647 158.574,-35.955 147.92,44.341 146.736,51.796 l 8.607,-12.479 c 1.184,-7.454 11.836,-87.751 -146.736,-51.799 C 755.145,619.225 707.43,597.609 679.916,525.489 652.4,453.375 650.705,450.672 624.752,384.237 535.707,156.296 433.547,65.825 236.682,119.868 127.381,159.143 88.124,290.207 88.124,290.207"
       id="path121" /></g><g
     id="rounds"
     transform="matrix(1.5625,0,0,1.5625,-8.5253906e-6,-5.3417969e-6)"><path
       style="fill:none;stroke:#ffffff;stroke-width:2;stroke-miterlimit:10"
       inkscape:connector-curvature="0"
       stroke-miterlimit="10"
       d="M 623.601,444.982"
       id="path124" /><circle
       style="opacity:0.3;fill:#ffffff"
       enable-background="new    "
       cx="587.396"
       cy="465.02899"
       r="6.8200002"
       id="circle126" /><path
       style="opacity:0.2;fill:#ffffff"
       inkscape:connector-curvature="0"
       enable-background="new    "
       d="m 766.542,361.95 c 3.77,0 6.82,3.054 6.82,6.819 0,3.769 -3.053,6.821 -6.82,6.821 -3.766,0 -6.818,-3.053 -6.818,-6.821 0,-3.765 3.052,-6.819 6.818,-6.819 z"
       id="path128" /><circle
       style="opacity:0.1;fill:#ffffff"
       enable-background="new    "
       cx="887.966"
       cy="231.33"
       r="6.8200002"
       id="circle130" /><circle
       style="opacity:0.4;fill:#ffffff"
       enable-background="new    "
       cx="380.241"
       cy="507.14099"
       r="6.8200002"
       id="circle132" /></g><g
     id="logoGroup_1_"
     transform="matrix(1.09375,0,0,1.09375,111.25687,166.32093)"><path
       enable-background="new    "
       d="m 237.346,278.303 c 42.261,0 76.518,34.258 76.518,76.517 0,42.254 -34.257,76.513 -76.518,76.513 -42.256,0 -76.514,-34.259 -76.514,-76.513 0.001,-42.259 34.258,-76.517 76.514,-76.517 z"
       id="path135"
       inkscape:connector-curvature="0"
       style="opacity:0.4;fill:#366c6c" /><g
       id="logo_1_"
       enable-background="new    "><path
         d="m 244.072,358.603 c -1.419,0.018 0.269,0.728 2.123,1.015 0.514,-0.401 0.977,-0.805 1.389,-1.198 -1.153,0.283 -2.328,0.291 -3.512,0.183"
         id="path138"
         inkscape:connector-curvature="0"
         style="fill:#ffffff" /><path
         d="m 251.694,356.703 c 0.852,-1.17 1.464,-2.447 1.681,-3.768 -0.191,0.943 -0.7,1.752 -1.181,2.612 -2.656,1.676 -0.25,-0.989 -0.006,-2.006 -2.85,3.596 -0.392,2.157 -0.494,3.162"
         id="path140"
         inkscape:connector-curvature="0"
         style="fill:#ffffff" /><path
         d="m 254.509,349.378 c 0.173,-2.557 -0.502,-1.746 -0.728,-0.773 0.263,0.14 0.473,1.804 0.728,0.773"
         id="path142"
         inkscape:connector-curvature="0"
         style="fill:#ffffff" /><path
         d="m 238.684,314.417 c 0.76,0.139 1.639,0.24 1.513,0.422 0.83,-0.186 1.019,-0.349 -1.513,-0.422"
         id="path144"
         inkscape:connector-curvature="0"
         style="fill:#ffffff" /><path
         d="m 240.198,314.838 -0.531,0.115 0.497,-0.05 0.034,-0.065"
         id="path146"
         inkscape:connector-curvature="0"
         style="fill:#ffffff" /><path
         d="m 263.837,350.349 c 0.08,2.295 -0.672,3.413 -1.354,5.387 l -1.226,0.613 c -1.009,1.953 0.097,1.245 -0.619,2.79 -1.573,1.397 -4.759,4.365 -5.776,4.633 -0.749,-0.017 0.506,-0.88 0.666,-1.218 -2.099,1.442 -1.682,2.161 -4.897,3.042 l -0.095,-0.21 c -7.918,3.727 -18.915,-3.653 -18.774,-13.729 -0.083,0.64 -0.239,0.479 -0.415,0.736 -0.407,-5.183 2.396,-10.386 7.122,-12.515 4.627,-2.288 10.048,-1.355 13.35,1.74 -1.816,-2.383 -5.438,-4.912 -9.723,-4.674 -4.2,0.074 -8.139,2.742 -9.444,5.641 -2.157,1.354 -2.403,5.224 -3.341,5.931 -1.268,9.277 2.375,13.283 8.527,18.001 0.964,0.657 0.271,0.75 0.401,1.247 -2.05,-0.956 -3.913,-2.4 -5.453,-4.17 0.816,1.193 1.703,2.354 2.838,3.263 -1.929,-0.649 -4.503,-4.671 -5.255,-4.833 3.323,5.953 13.475,10.438 18.799,8.206 -2.463,0.094 -5.588,0.053 -8.357,-0.972 -1.159,-0.596 -2.742,-1.832 -2.46,-2.064 7.258,2.711 14.752,2.05 21.035,-2.982 1.6,-1.244 3.345,-3.36 3.85,-3.391 -0.759,1.141 0.13,0.55 -0.453,1.556 1.59,-2.569 -0.692,-1.046 1.642,-4.435 l 0.86,1.189 c -0.324,-2.136 2.65,-4.72 2.348,-8.092 0.684,-1.03 0.76,1.11 0.032,3.479 1.004,-2.63 0.27,-3.046 0.524,-5.224 0.273,0.729 0.642,1.506 0.833,2.276 -0.654,-2.545 0.667,-4.282 0.997,-5.757 -0.325,-0.144 -1.008,1.12 -1.166,-1.878 0.022,-1.305 0.364,-0.683 0.494,-1.006 -0.254,-0.146 -0.926,-1.147 -1.334,-3.066 0.295,-0.448 0.793,1.167 1.192,1.232 -0.256,-1.523 -0.704,-2.686 -0.724,-3.855 -1.181,-2.461 -0.419,0.332 -1.373,-1.054 -1.255,-3.913 1.038,-0.905 1.198,-2.682 1.895,2.753 2.98,7.017 3.478,8.788 -0.378,-2.155 -0.986,-4.238 -1.742,-6.263 0.574,0.249 -0.934,-4.435 0.747,-1.334 -1.788,-6.604 -7.68,-12.773 -13.092,-15.665 0.662,0.604 1.5,1.364 1.204,1.484 -2.699,-1.6 -2.223,-1.729 -2.61,-2.404 -2.195,-0.896 -2.335,0.073 -3.784,0.004 -4.134,-2.195 -4.933,-1.962 -8.735,-3.334 l 0.171,0.813 c -2.74,-0.916 -3.191,0.341 -6.15,0.002 -0.18,-0.141 0.95,-0.51 1.877,-0.645 -2.648,0.351 -2.524,-0.521 -5.113,0.099 0.638,-0.445 1.312,-0.748 1.996,-1.125 -2.158,0.134 -5.156,1.255 -4.232,0.229 -3.524,1.572 -9.777,3.781 -13.288,7.072 l -0.11,-0.735 c -1.612,1.932 -7.014,5.764 -7.446,8.271 l -0.427,0.097 c -0.836,1.42 -1.377,3.025 -2.044,4.479 -1.097,1.865 -1.604,0.717 -1.447,1.007 -2.155,4.369 -3.224,8.033 -4.149,11.046 0.661,0.985 0.016,5.923 0.265,9.875 -1.079,19.522 13.705,38.488 29.867,42.862 2.368,0.852 5.886,0.816 8.888,0.898 -3.537,-1.01 -3.994,-0.53 -7.438,-1.739 -2.483,-1.169 -3.027,-2.503 -4.788,-4.03 l 0.695,1.229 c -3.447,-1.224 -2.003,-1.512 -4.813,-2.398 l 0.747,-0.966 c -1.116,-0.085 -2.959,-1.884 -3.465,-2.884 l -1.226,0.051 c -1.468,-1.812 -2.254,-3.12 -2.194,-4.131 l -0.401,0.702 c -0.443,-0.77 -5.408,-6.799 -2.831,-5.396 -0.48,-0.438 -1.117,-0.707 -1.809,-1.962 l 0.529,-0.594 c -1.242,-1.595 -2.287,-3.637 -2.201,-4.323 0.662,0.895 1.118,1.058 1.574,1.212 -3.137,-7.76 -3.31,-0.423 -5.673,-7.899 l 0.502,-0.039 c -0.38,-0.581 -0.617,-1.205 -0.925,-1.825 l 0.221,-2.175 c -2.249,-2.602 -0.631,-11.067 -0.306,-15.71 0.228,-1.89 1.875,-3.897 3.134,-7.056 l -0.768,-0.134 c 1.463,-2.551 8.367,-10.265 11.565,-9.872 1.551,-1.94 -0.309,-0.01 -0.613,-0.495 3.403,-3.522 4.475,-2.481 6.769,-3.12 2.479,-1.465 -2.123,0.574 -0.948,-0.556 4.281,-1.095 3.03,-2.483 8.616,-3.042 0.591,0.335 -1.365,0.514 -1.852,0.948 3.565,-1.745 11.284,-1.351 16.294,0.965 5.818,2.722 12.35,10.755 12.61,18.315 l 0.291,0.077 c -0.146,3.003 0.465,6.481 -0.596,9.676 l 0.707,-1.505"
         id="path148"
         inkscape:connector-curvature="0"
         style="fill:#ffffff" /><path
         d="m 228.569,360.551 -0.2,0.994 c 0.933,1.268 1.674,2.643 2.865,3.631 -0.859,-1.669 -1.493,-2.361 -2.665,-4.625"
         id="path150"
         inkscape:connector-curvature="0"
         style="fill:#ffffff" /><path
         d="m 230.772,360.466 c -0.491,-0.549 -0.789,-1.202 -1.116,-1.855 0.314,1.154 0.957,2.138 1.552,3.152 l -0.436,-1.297"
         id="path152"
         inkscape:connector-curvature="0"
         style="fill:#ffffff" /><path
         d="m 269.828,351.977 -0.209,0.525 c -0.377,2.717 -1.207,5.407 -2.477,7.897 1.4,-2.629 2.302,-5.505 2.686,-8.422"
         id="path154"
         inkscape:connector-curvature="0"
         style="fill:#ffffff" /><path
         d="m 238.965,313.733 c 0.964,-0.353 2.36,-0.191 3.381,-0.423 -1.33,0.115 -2.651,0.182 -3.955,0.343 l 0.574,0.08"
         id="path156"
         inkscape:connector-curvature="0"
         style="fill:#ffffff" /><path
         d="m 205.249,331.665 c 0.221,2.048 -1.542,2.842 0.389,1.488 1.036,-2.33 -0.402,-0.641 -0.389,-1.488"
         id="path158"
         inkscape:connector-curvature="0"
         style="fill:#ffffff" /><path
         d="m 202.979,341.146 c 0.444,-1.365 0.53,-2.184 0.699,-2.976 -1.233,1.572 -0.57,1.907 -0.699,2.976"
         id="path160"
         inkscape:connector-curvature="0"
         style="fill:#ffffff" /></g></g><g
     id="debian_1_"
     transform="matrix(0.875,0,0,0.875,558.79277,303.96222)"><g
       id="g163"><path
         d="m 738.546,437.724 c -0.053,0.058 -0.053,9.28 -0.17,11.688 -0.111,1.946 -0.287,6.128 -4.41,6.128 -4.24,0 -5.273,-4.871 -5.615,-6.989 -0.398,-2.348 -0.398,-4.298 -0.398,-5.153 0,-2.751 0.17,-10.43 6.645,-10.43 1.949,0 3.037,0.575 3.896,1.03 l 0.052,3.726 z m -16.611,6.761 c 0,16.155 8.594,16.155 9.854,16.155 3.553,0 5.846,-1.948 6.818,-5.327 l 0.113,5.098 c 1.09,-0.058 2.182,-0.171 3.953,-0.171 0.633,0 1.146,0 1.607,0.056 0.457,0 0.916,0.057 1.434,0.115 -0.918,-1.832 -1.607,-5.955 -1.607,-14.896 0,-8.707 0,-23.43 0.748,-27.898 -2.063,0.976 -3.842,1.604 -7.736,1.947 1.549,1.662 1.549,2.522 1.549,10.079 -1.088,-0.341 -2.465,-0.742 -4.813,-0.742 -10.26,0 -11.92,8.936 -11.92,15.584"
         id="path165"
         inkscape:connector-curvature="0"
         style="fill:#ffffff" /><path
         d="m 753.005,441.561 c 0.055,-4.756 1.031,-8.993 5.098,-8.993 4.473,0 4.811,4.924 4.697,8.993 l -9.795,0 z m 15.467,0.575 c 0,-6.703 -1.316,-13.291 -9.793,-13.291 -11.688,0 -11.688,12.948 -11.688,15.696 0,11.632 5.215,16.213 13.975,16.213 3.896,0 5.789,-0.569 6.82,-0.859 -0.055,-2.063 0.23,-3.379 0.572,-5.153 -1.203,0.745 -2.75,1.72 -6.188,1.72 -8.939,0 -9.053,-8.138 -9.053,-10.944 l 15.24,0 0.115,-3.382"
         id="path167"
         inkscape:connector-curvature="0"
         style="fill:#ffffff" /><path
         d="m 787.11,444.599 c 0,5.327 -0.975,12.489 -7.619,12.489 -0.918,0 -2.063,-0.173 -2.807,-0.345 -0.119,-2.063 -0.119,-5.614 -0.119,-9.739 0,-4.927 0.518,-7.502 0.92,-8.765 1.203,-4.066 3.895,-4.123 4.412,-4.123 4.352,0 5.213,6.014 5.213,10.483 z m -16.443,6.245 c 0,4.238 0,6.646 -0.688,8.479 2.352,0.916 5.271,1.431 8.768,1.431 2.232,0 8.707,0 12.203,-7.16 1.662,-3.322 2.234,-7.792 2.234,-11.173 0,-2.064 -0.23,-6.588 -1.891,-9.454 -1.604,-2.689 -4.184,-4.064 -6.932,-4.064 -5.498,0 -7.104,4.583 -7.963,6.932 0,-2.92 0.059,-13.118 0.514,-18.333 -3.725,1.72 -6.018,2.003 -8.48,2.232 2.238,0.918 2.238,4.7 2.238,17.018 l 0,14.094"
         id="path169"
         inkscape:connector-curvature="0"
         style="fill:#ffffff" /><path
         d="m 804.196,460.41 c -1.146,-0.171 -1.951,-0.287 -3.611,-0.287 -1.83,0 -3.092,0.116 -4.41,0.287 0.574,-1.087 0.803,-1.604 0.975,-5.326 0.229,-5.099 0.287,-18.737 -0.113,-21.602 -0.289,-2.179 -0.801,-2.521 -1.604,-3.093 4.695,-0.46 6.012,-0.803 8.191,-1.833 -0.457,2.521 -0.518,3.784 -0.518,7.621 -0.115,19.767 -0.171,21.885 1.09,24.233"
         id="path171"
         inkscape:connector-curvature="0"
         style="fill:#ffffff" /><path
         d="m 822.544,444.194 c -0.117,3.611 -0.172,6.134 -1.148,8.14 -1.203,2.578 -3.209,3.322 -4.695,3.322 -3.441,0 -4.184,-2.861 -4.184,-5.669 0,-5.387 4.814,-5.789 6.988,-5.789 l 3.041,0 -0.002,-0.004 0,0 z m -15.758,7.051 c 0,3.607 1.088,7.215 4.299,8.766 1.434,0.63 2.863,0.63 3.322,0.63 5.271,0 7.045,-3.896 8.137,-6.303 -0.057,2.521 0,4.065 0.17,6.072 1.031,-0.057 2.064,-0.171 3.783,-0.171 0.973,0 1.887,0.114 2.863,0.171 -0.633,-0.973 -0.975,-1.548 -1.146,-3.781 -0.115,-2.175 -0.115,-4.354 -0.115,-7.391 l 0.057,-11.688 c 0,-4.356 -1.146,-8.652 -9.74,-8.652 -5.67,0 -8.994,1.72 -10.656,2.578 0.689,1.261 1.266,2.349 1.777,4.813 2.24,-1.95 5.16,-2.981 8.135,-2.981 4.758,0 4.758,3.155 4.758,7.621 -1.088,-0.055 -2.004,-0.17 -3.553,-0.17 -7.28,0.002 -12.091,2.804 -12.091,10.486"
         id="path173"
         inkscape:connector-curvature="0"
         style="fill:#ffffff" /><path
         d="m 855.542,454.738 c 0.059,1.947 0.059,4.01 0.857,5.673 -1.262,-0.117 -2.006,-0.287 -4.355,-0.287 -1.375,0 -2.115,0.119 -3.209,0.287 0.23,-0.745 0.348,-1.029 0.461,-2.004 0.17,-1.315 0.289,-5.73 0.289,-7.277 l 0,-6.188 c 0,-2.69 0,-6.59 -0.178,-7.962 -0.113,-0.973 -0.396,-3.61 -3.725,-3.61 -3.266,0 -4.352,2.404 -4.754,4.354 -0.459,2.005 -0.459,4.184 -0.459,12.66 0.057,7.334 0.057,8.021 0.629,10.027 -0.971,-0.115 -2.174,-0.228 -3.891,-0.228 -1.377,0 -2.295,0.055 -3.436,0.228 0.4,-0.918 0.629,-1.375 0.742,-4.582 0.117,-3.154 0.346,-18.622 -0.172,-22.286 -0.285,-2.237 -0.859,-2.752 -1.486,-3.327 4.641,-0.229 6.127,-0.972 7.561,-1.717 l 0,6.069 c 0.688,-1.774 2.119,-5.729 7.85,-5.729 7.162,0 7.219,5.214 7.275,8.651 l 0,17.248"
         id="path175"
         inkscape:connector-curvature="0"
         style="fill:#ffffff" /><path
         d="m 804.681,420.449 -4.746,4.743 -4.742,-4.743 4.742,-4.741 4.746,4.741"
         id="path177"
         inkscape:connector-curvature="0"
         style="fill:#ffffff" /></g><g
       id="_x39_"><g
         id="g180"><g
           id="g182"><path
             d="m 887.964,452.013 c -8.387,0.247 -15.672,-7.104 -15.672,-15.072 0,-8.824 6.385,-16.575 15.928,-16.575 9.539,0 15.424,7.751 15.424,19.66 0,10.267 -3.438,17.441 -8.035,21.894 -3.584,3.516 -8.539,5.667 -13.561,6.243 -2.295,0.356 -4.303,0.432 -5.811,0.356 0,0 21.428,-6.439 22.102,-24.065 0.148,-3.942 2.871,-19.64 -10.619,-19.279 -5.379,0.14 -9.188,4.734 -9.188,11.336 0,5.812 1.785,9.928 7.676,11.37 4.113,1.009 6.695,-0.587 9.746,-8.037 -0.002,-10e-4 1.346,11.895 -7.99,12.169 z"
             id="path184"
             inkscape:connector-curvature="0"
             style="fill:#ffffff" /></g></g></g></g></svg>
