<?xml version="1.0" encoding="UTF-8" standalone="no"?>
<!-- Generator: Adobe Illustrator 16.0.0, SVG Export Plug-In . SVG Version: 6.00 Build 0)  -->

<svg
   xmlns:dc="http://purl.org/dc/elements/1.1/"
   xmlns:cc="http://creativecommons.org/ns#"
   xmlns:rdf="http://www.w3.org/1999/02/22-rdf-syntax-ns#"
   xmlns:svg="http://www.w3.org/2000/svg"
   xmlns="http://www.w3.org/2000/svg"
   xmlns:sodipodi="http://sodipodi.sourceforge.net/DTD/sodipodi-0.dtd"
   xmlns:inkscape="http://www.inkscape.org/namespaces/inkscape"
   version="1.1"
   id="root"
   x="0px"
   y="0px"
   width="2048"
   height="1152"
   viewBox="0 0 1920 1080"
   enable-background="new 0 0 1920 1080"
   xml:space="preserve"
   inkscape:version="0.92.1 r15371"
   sodipodi:docname="1920x1080.svg"><metadata
     id="metadata190"><rdf:RDF><cc:Work
         rdf:about=""><dc:format>image/svg+xml</dc:format><dc:type
           rdf:resource="http://purl.org/dc/dcmitype/StillImage" /></cc:Work></rdf:RDF></metadata><defs
     id="defs188"><filter
       inkscape:collect="always"
       style="color-interpolation-filters:sRGB"
       id="filter992"
       x="-0.156"
       width="1.312"
       y="-0.156"
       height="1.312"><feGaussianBlur
         inkscape:collect="always"
         stdDeviation="13.009816"
         id="feGaussianBlur994" /></filter></defs><sodipodi:namedview
     pagecolor="#ffffff"
     bordercolor="#666666"
     borderopacity="1"
     objecttolerance="10"
     gridtolerance="10"
     guidetolerance="10"
     inkscape:pageopacity="0"
     inkscape:pageshadow="2"
     inkscape:window-width="1920"
     inkscape:window-height="1057"
     id="namedview186"
     showgrid="false"
     inkscape:zoom="0.30903186"
     inkscape:cx="797.81088"
     inkscape:cy="705.03023"
     inkscape:window-x="0"
     inkscape:window-y="23"
     inkscape:window-maximized="1"
     inkscape:current-layer="root" /><g
     id="background"
     style="fill:#000000;fill-opacity:1"><g
       id="background_1_"
       style="fill:#000000;fill-opacity:1"><linearGradient
         id="SVGID_1_"
         gradientUnits="userSpaceOnUse"
         x1="-1423.4111"
         y1="-3714.9932"
         x2="-1423.4116"
         y2="-2611.604"
         gradientTransform="translate(2381.0391,3709.0381)"><stop
           offset="0"
           style="stop-color:#133356"
           id="stop6" /><stop
           offset="0.5025"
           style="stop-color:#7C9999"
           id="stop8" /><stop
           offset="1"
           style="stop-color:#333333"
           id="stop10" /></linearGradient><rect
         x="-9.3599997"
         y="-8.6099997"
         width="1933.976"
         height="1105.453"
         id="rect12"
         style="fill:#000000;fill-opacity:1" /></g><g
       id="Layer_4"
       style="fill:#000000;fill-opacity:1"><radialGradient
         id="SVGID_2_"
         cx="-1527.168"
         cy="-2837.2524"
         r="916.00623"
         gradientTransform="matrix(1.0299,0,0,1.0518,2440.2478,3498.9629)"
         gradientUnits="userSpaceOnUse"><stop
           offset="0"
           style="stop-color:#E4C8A5;stop-opacity:0.5"
           id="stop16" /><stop
           offset="0.1429"
           style="stop-color:#AEAB93;stop-opacity:0.4372"
           id="stop18" /><stop
           offset="0.3797"
           style="stop-color:#587E77;stop-opacity:0.3331"
           id="stop20" /><stop
           offset="0.4877"
           style="stop-color:#366C6C;stop-opacity:0.2857"
           id="stop22" /></radialGradient><rect
         x="-9.3599997"
         y="-7.921"
         width="1933.976"
         height="1104.42"
         id="rect24"
         style="fill:#000000;fill-opacity:1" /></g></g><g
     id="glows"
     transform="matrix(1.1906982,0,0,1.2716285,-227.90738,-141.78177)"
     style="opacity:1;fill:#ff0000;fill-opacity:1"><radialGradient
       id="SVGID_3_"
       cx="-880.3291"
       cy="-3202.9609"
       r="271.4404"
       gradientTransform="translate(2381.0391,3709.0381)"
       gradientUnits="userSpaceOnUse"><stop
         offset="0"
         style="stop-color:#FFFCDD"
         id="stop28" /><stop
         offset="1"
         style="stop-color:#FEF9C8;stop-opacity:0"
         id="stop30" /></radialGradient><circle
       enable-background="new    "
       cx="1500.71"
       cy="506.077"
       r="271.44101"
       id="circle32"
       style="opacity:0.2;fill:#ff0000;fill-opacity:1" /><radialGradient
       id="SVGID_4_"
       cx="-1031.0767"
       cy="-3296.374"
       r="214.85229"
       gradientTransform="translate(2381.0391,3709.0381)"
       gradientUnits="userSpaceOnUse"><stop
         offset="0"
         style="stop-color:#99CCCC"
         id="stop35" /><stop
         offset="1"
         style="stop-color:#FEF9C8;stop-opacity:0"
         id="stop37" /></radialGradient><circle
       enable-background="new    "
       cx="1349.963"
       cy="412.664"
       r="214.853"
       id="circle39"
       style="opacity:0.2;fill:#ff0000;fill-opacity:1" /><radialGradient
       id="SVGID_5_"
       cx="-1958.4556"
       cy="-3333.3179"
       r="284.84991"
       gradientTransform="translate(2381.0391,3709.0381)"
       gradientUnits="userSpaceOnUse"><stop
         offset="0"
         style="stop-color:#FFFCDD"
         id="stop42" /><stop
         offset="1"
         style="stop-color:#FEF9C8;stop-opacity:0"
         id="stop44" /></radialGradient><circle
       enable-background="new    "
       cx="422.58301"
       cy="375.72"
       r="284.85001"
       id="circle46"
       style="opacity:0.1;fill:#ff0000;fill-opacity:1" /><radialGradient
       id="SVGID_6_"
       cx="-1775.687"
       cy="-3149.5332"
       r="284.84961"
       gradientTransform="translate(2381.0391,3709.0381)"
       gradientUnits="userSpaceOnUse"><stop
         offset="0"
         style="stop-color:#FFFCDD"
         id="stop49" /><stop
         offset="1"
         style="stop-color:#FEF9C8;stop-opacity:0"
         id="stop51" /></radialGradient><circle
       enable-background="new    "
       cx="605.35199"
       cy="559.505"
       r="284.85001"
       id="circle53"
       style="opacity:0.1;fill:#ff0000;fill-opacity:1" /><radialGradient
       id="SVGID_7_"
       cx="-1682.0327"
       cy="-3059.2822"
       r="364.40259"
       gradientTransform="translate(2381.0391,3709.0381)"
       gradientUnits="userSpaceOnUse"><stop
         offset="0"
         style="stop-color:#FFFCDD"
         id="stop56" /><stop
         offset="1"
         style="stop-color:#FEF9C8;stop-opacity:0"
         id="stop58" /></radialGradient><circle
       enable-background="new    "
       cx="699.00598"
       cy="649.75598"
       r="364.40302"
       id="circle60"
       style="opacity:0.1;fill:#ff0000;fill-opacity:1" /><radialGradient
       id="SVGID_8_"
       cx="-1087.5537"
       cy="-3134.8853"
       r="364.40161"
       gradientTransform="translate(2381.0391,3709.0381)"
       gradientUnits="userSpaceOnUse"><stop
         offset="0"
         style="stop-color:#FFFCDD"
         id="stop63" /><stop
         offset="1"
         style="stop-color:#FEF9C8;stop-opacity:0"
         id="stop65" /></radialGradient><path
       enable-background="new    "
       d="m 1293.485,209.751 c 201.253,0 364.401,163.145 364.401,364.402 0,201.259 -163.148,364.401 -364.401,364.401 -201.253,0 -364.402,-163.146 -364.402,-364.399 0,-201.257 163.149,-364.404 364.402,-364.404 z"
       id="path67"
       inkscape:connector-curvature="0"
       style="opacity:0.1;fill:#ff0000;fill-opacity:1" /><radialGradient
       id="SVGID_9_"
       cx="-1716.2007"
       cy="-3280.7095"
       r="364.40231"
       gradientTransform="translate(2381.0391,3709.0381)"
       gradientUnits="userSpaceOnUse"><stop
         offset="0"
         style="stop-color:#99CCCC"
         id="stop70" /><stop
         offset="1"
         style="stop-color:#FEF9C8;stop-opacity:0"
         id="stop72" /></radialGradient><circle
       enable-background="new    "
       cx="664.83899"
       cy="428.32901"
       r="364.40201"
       id="circle74"
       style="opacity:0.2;fill:#ff0000;fill-opacity:1" /><radialGradient
       id="SVGID_10_"
       cx="-807.90039"
       cy="-3263.2104"
       r="364.40259"
       gradientTransform="translate(2381.0391,3709.0381)"
       gradientUnits="userSpaceOnUse"><stop
         offset="0"
         style="stop-color:#FFFCDD"
         id="stop77" /><stop
         offset="1"
         style="stop-color:#FEF9C8;stop-opacity:0"
         id="stop79" /></radialGradient><circle
       enable-background="new    "
       cx="1573.139"
       cy="445.828"
       r="364.40302"
       id="circle81"
       style="opacity:0.2;fill:#ff0000;fill-opacity:1" /><radialGradient
       id="SVGID_11_"
       cx="-914.67383"
       cy="-3006.5586"
       r="364.40231"
       gradientTransform="translate(2381.0391,3709.0381)"
       gradientUnits="userSpaceOnUse"><stop
         offset="0"
         style="stop-color:#99CCCC"
         id="stop84" /><stop
         offset="1"
         style="stop-color:#FEF9C8;stop-opacity:0"
         id="stop86" /></radialGradient><circle
       enable-background="new    "
       cx="1466.365"
       cy="702.47998"
       r="364.40201"
       id="circle88"
       style="opacity:0.2;fill:#ff0000;fill-opacity:1" /></g><g
     id="octopus_1_"
     style="fill:#ff0000;fill-opacity:1"><radialGradient
       id="SVGID_12_"
       cx="13584.957"
       cy="3721.3525"
       r="684.92249"
       gradientTransform="rotate(180,7343.1621,2240.1885)"
       gradientUnits="userSpaceOnUse"><stop
         offset="0"
         style="stop-color:#BCCCB3"
         id="stop92" /><stop
         offset="1"
         style="stop-color:#FEF9C8;stop-opacity:0"
         id="stop94" /></radialGradient><path
       enable-background="new    "
       d="m 383.459,270.992 c 0,0 -161.611,198.069 -107.826,408.315 90.922,355.392 366.209,412.201 812.128,311.096 785.779,-178.168 812.933,219.711 807.101,256.653 l 42.657,-61.847 C 1943.352,1148.267 1916.192,750.395 1130.42,928.555 684.498,1029.661 409.211,972.856 318.292,617.46 264.508,407.218 383.459,270.992 383.459,270.992"
       id="path96"
       inkscape:connector-curvature="0"
       style="opacity:0.1;fill:#ff0000;fill-opacity:1" /><radialGradient
       id="SVGID_13_"
       cx="13381.236"
       cy="3981.4307"
       r="1372.6528"
       gradientTransform="rotate(180,7343.1621,2240.1885)"
       gradientUnits="userSpaceOnUse"><stop
         offset="0"
         style="stop-color:#BCCCB3"
         id="stop99" /><stop
         offset="1"
         style="stop-color:#FEF9C8;stop-opacity:0"
         id="stop101" /></radialGradient><path
       enable-background="new    "
       d="m 235.482,169.127 c 0,0 -161.611,198.072 -107.828,408.317 90.921,355.39 366.207,412.199 812.131,311.095 785.769,-178.168 812.931,219.709 807.098,256.652 l 55.174,-5.571 C 1829.435,1077.132 1768.213,648.53 982.444,826.692 536.521,927.798 261.235,870.987 170.316,515.596 116.531,305.353 235.482,169.127 235.482,169.127"
       id="path103"
       inkscape:connector-curvature="0"
       style="opacity:0.5;fill:#ff0000;fill-opacity:1" /><radialGradient
       id="SVGID_14_"
       cx="13519.34"
       cy="3746.4355"
       r="684.92102"
       gradientTransform="rotate(180,7343.1621,2240.1885)"
       gradientUnits="userSpaceOnUse"><stop
         offset="0"
         style="stop-color:#BCCCB3"
         id="stop106" /><stop
         offset="1"
         style="stop-color:#FEF9C8;stop-opacity:0"
         id="stop108" /></radialGradient><path
       enable-background="new    "
       d="m 449.079,245.911 c 0,0 -161.611,198.073 -107.828,408.314 90.922,355.394 366.208,412.199 812.128,311.096 785.771,-178.162 812.933,219.709 807.1,256.651 l 42.658,-61.839 C 2008.97,1123.191 1981.81,725.311 1196.038,903.479 750.117,1004.585 474.83,947.774 383.911,592.384 330.127,382.135 449.079,245.911 449.079,245.911"
       id="path110"
       inkscape:connector-curvature="0"
       style="opacity:0.2;fill:#ff0000;fill-opacity:1" /><linearGradient
       id="SVGID_15_"
       gradientUnits="userSpaceOnUse"
       x1="12747.42"
       y1="3910.3242"
       x2="14452.203"
       y2="3910.3242"
       gradientTransform="rotate(180,7343.1621,2240.1885)"><stop
         offset="0"
         style="stop-color:#ABCCB3;stop-opacity:0.7"
         id="stop113" /><stop
         offset="0.33"
         style="stop-color:#B4CFB5;stop-opacity:0.05"
         id="stop115" /><stop
         offset="0.803"
         style="stop-color:#C1D4B7;stop-opacity:0.5"
         id="stop117" /><stop
         offset="1"
         style="stop-color:#FEF9C8;stop-opacity:0"
         id="stop119" /></linearGradient><path
       enable-background="new    "
       d="m 234.122,395.557 c 0,0 46.072,-174.883 250.301,-248.261 380.134,-155.523 599.966,158.606 731.945,472.082 11.666,27.705 40.83,97.698 88.949,231.851 63.561,177.193 150.193,179.351 342.267,143.215 296.29,-67.183 276.379,82.848 274.173,96.779 l 16.085,-23.315 c 2.208,-13.928 22.115,-163.959 -274.173,-96.784 -183.259,39.2 -272.41,-1.188 -323.818,-135.941 C 1288.439,700.437 1285.274,695.391 1236.78,571.259 1070.404,145.353 879.534,-23.687 511.697,77.291 307.473,150.671 234.122,395.557 234.122,395.557"
       id="path121"
       inkscape:connector-curvature="0"
       style="opacity:0.4;fill:#ff0000;fill-opacity:1" /></g><g
     id="rounds"><path
       stroke-miterlimit="10"
       d="M 1234.628,684.753"
       id="path124"
       inkscape:connector-curvature="0"
       style="fill:none;stroke:#ffffff;stroke-width:2;stroke-miterlimit:10" /><circle
       enable-background="new    "
       cx="1166.981"
       cy="722.20801"
       r="12.742"
       id="circle126"
       style="opacity:0.3;fill:#ffffff" /><circle
       enable-background="new    "
       cx="1501.709"
       cy="542.349"
       r="12.744"
       id="circle128"
       style="opacity:0.2;fill:#ffffff" /><circle
       enable-background="new    "
       cx="1728.585"
       cy="285.548"
       r="12.742"
       id="circle130"
       style="opacity:0.1;fill:#ffffff" /><circle
       enable-background="new    "
       cx="779.93103"
       cy="800.89203"
       r="12.743"
       id="circle132"
       style="opacity:0.4;fill:#ffffff" /></g><circle
     style="opacity:1;fill:#000000;fill-opacity:1;stroke-width:0.69999999;filter:url(#filter992)"
     id="circle135-3"
     r="100.07551"
     cy="524.41211"
     cx="497.6694"
     enable-background="new    " /><circle
     style="opacity:0.4;fill:#fe0000;stroke-width:0.69999999;fill-opacity:1"
     id="circle135"
     r="100.0755"
     cy="516.28003"
     cx="512.94098"
     enable-background="new    " /><g
     enable-background="new    "
     id="logo_1_"
     transform="matrix(0.7,0,0,0.7,153.88229,154.88401)"><path
       style="fill:#ffffff"
       inkscape:connector-curvature="0"
       id="path138"
       d="m 525.504,523.351 c -2.653,0.029 0.502,1.357 3.967,1.893 0.96,-0.75 1.823,-1.502 2.596,-2.239 -2.153,0.533 -4.348,0.547 -6.563,0.346" /><path
       style="fill:#ffffff"
       inkscape:connector-curvature="0"
       id="path140"
       d="m 539.746,519.8 c 1.59,-2.186 2.735,-4.57 3.139,-7.038 -0.357,1.762 -1.309,3.273 -2.207,4.881 -4.962,3.133 -0.467,-1.847 -0.013,-3.747 -5.321,6.715 -0.726,4.026 -0.919,5.904" /><path
       style="fill:#ffffff"
       inkscape:connector-curvature="0"
       id="path142"
       d="m 545.007,506.114 c 0.323,-4.777 -0.938,-3.261 -1.356,-1.445 0.486,0.261 0.879,3.372 1.356,1.445" /><path
       style="fill:#ffffff"
       inkscape:connector-curvature="0"
       id="path144"
       d="m 515.438,440.791 c 1.418,0.261 3.062,0.45 2.825,0.791 1.553,-0.348 1.906,-0.654 -2.825,-0.791" /><path
       style="fill:#ffffff"
       inkscape:connector-curvature="0"
       id="path146"
       d="m 518.265,441.578 -0.992,0.215 0.93,-0.094 0.062,-0.121" /><path
       style="fill:#ffffff"
       inkscape:connector-curvature="0"
       id="path148"
       d="m 562.436,507.93 c 0.15,4.286 -1.255,6.376 -2.532,10.063 l -2.288,1.147 c -1.885,3.65 0.182,2.327 -1.156,5.212 -2.937,2.612 -8.891,8.155 -10.794,8.659 -1.398,-0.032 0.95,-1.646 1.245,-2.277 -3.919,2.693 -3.139,4.036 -9.15,5.683 l -0.178,-0.392 c -14.795,6.962 -35.342,-6.825 -35.078,-25.651 -0.155,1.194 -0.448,0.896 -0.777,1.375 -0.763,-9.683 4.476,-19.405 13.306,-23.385 8.649,-4.274 18.775,-2.532 24.944,3.25 -3.395,-4.451 -10.159,-9.176 -18.167,-8.73 -7.849,0.139 -15.208,5.125 -17.648,10.538 -4.028,2.532 -4.49,9.761 -6.241,11.082 -2.368,17.334 4.436,24.82 15.934,33.635 1.803,1.229 0.507,1.401 0.75,2.33 -3.829,-1.785 -7.312,-4.487 -10.188,-7.793 1.526,2.23 3.18,4.395 5.303,6.096 -3.604,-1.215 -8.415,-8.729 -9.819,-9.03 6.209,11.12 25.175,19.503 35.125,15.333 -4.602,0.173 -10.442,0.096 -15.616,-1.816 -2.167,-1.114 -5.124,-3.423 -4.597,-3.859 13.563,5.064 27.564,3.829 39.306,-5.572 2.988,-2.327 6.251,-6.279 7.191,-6.333 -1.418,2.128 0.243,1.025 -0.848,2.903 2.972,-4.8 -1.293,-1.954 3.07,-8.283 l 1.605,2.219 c -0.603,-3.99 4.957,-8.819 4.388,-15.119 1.277,-1.924 1.418,2.078 0.062,6.502 1.876,-4.917 0.5,-5.693 0.977,-9.762 0.514,1.362 1.201,2.815 1.56,4.253 -1.224,-4.755 1.244,-8 1.862,-10.755 -0.607,-0.266 -1.884,2.092 -2.178,-3.508 0.043,-2.439 0.68,-1.277 0.923,-1.881 -0.475,-0.275 -1.73,-2.145 -2.492,-5.731 0.548,-0.838 1.479,2.181 2.229,2.302 -0.48,-2.848 -1.315,-5.017 -1.354,-7.204 -2.205,-4.598 -0.783,0.619 -2.566,-1.966 -2.34,-7.311 1.941,-1.692 2.24,-5.012 3.544,5.144 5.569,13.112 6.501,16.421 -0.708,-4.027 -1.843,-7.92 -3.257,-11.703 1.073,0.465 -1.744,-8.285 1.397,-2.492 -3.343,-12.336 -14.35,-23.867 -24.461,-29.268 1.236,1.13 2.803,2.551 2.249,2.774 -5.044,-2.99 -4.153,-3.227 -4.88,-4.494 -4.101,-1.672 -4.36,0.139 -7.068,0.008 -7.725,-4.103 -9.215,-3.667 -16.324,-6.23 l 0.321,1.519 c -5.12,-1.711 -5.964,0.635 -11.492,0.006 -0.335,-0.263 1.774,-0.952 3.509,-1.203 -4.95,0.654 -4.719,-0.976 -9.555,0.182 1.191,-0.831 2.45,-1.397 3.727,-2.103 -4.031,0.251 -9.634,2.346 -7.908,0.426 -6.583,2.938 -18.267,7.068 -24.828,13.216 l -0.206,-1.376 c -3.014,3.61 -13.104,10.771 -13.915,15.454 l -0.796,0.182 c -1.559,2.654 -2.572,5.652 -3.821,8.367 -2.045,3.486 -2.999,1.342 -2.705,1.883 -4.024,8.163 -6.018,15.009 -7.751,20.639 1.235,1.84 0.03,11.068 0.496,18.451 -2.014,36.477 25.605,71.918 55.802,80.09 4.424,1.594 10.998,1.529 16.604,1.681 -6.607,-1.884 -7.459,-0.993 -13.894,-3.247 -4.639,-2.186 -5.657,-4.681 -8.946,-7.534 l 1.301,2.294 c -6.445,-2.284 -3.748,-2.819 -8.995,-4.481 l 1.395,-1.806 c -2.086,-0.159 -5.529,-3.519 -6.474,-5.389 l -2.289,0.099 c -2.743,-3.384 -4.211,-5.831 -4.103,-7.724 l -0.749,1.315 c -0.83,-1.438 -10.106,-12.704 -5.289,-10.086 -0.896,-0.816 -2.087,-1.32 -3.379,-3.665 l 0.988,-1.115 c -2.321,-2.977 -4.272,-6.792 -4.112,-8.076 1.236,1.671 2.088,1.978 2.938,2.265 -5.854,-14.5 -6.178,-0.791 -10.596,-14.761 l 0.938,-0.072 c -0.709,-1.087 -1.154,-2.254 -1.727,-3.412 l 0.412,-4.063 c -4.203,-4.859 -1.175,-20.679 -0.567,-29.352 0.421,-3.531 3.504,-7.285 5.853,-13.183 l -1.433,-0.25 c 2.734,-4.767 15.633,-19.181 21.61,-18.447 2.896,-3.625 -0.578,-0.018 -1.146,-0.924 6.359,-6.583 8.361,-4.639 12.646,-5.831 4.633,-2.738 -3.969,1.073 -1.772,-1.038 8,-2.046 5.661,-4.638 16.102,-5.685 1.1,0.628 -2.552,0.961 -3.463,1.772 6.663,-3.26 21.084,-2.521 30.447,1.804 10.871,5.083 23.074,20.097 23.558,34.223 l 0.547,0.141 c -0.273,5.614 0.869,12.111 -1.114,18.081 l 1.321,-2.806" /><path
       style="fill:#ffffff"
       inkscape:connector-curvature="0"
       id="path150"
       d="m 496.537,526.989 -0.374,1.86 c 1.743,2.37 3.129,4.939 5.355,6.784 -1.603,-3.119 -2.79,-4.41 -4.981,-8.644" /><path
       style="fill:#ffffff"
       inkscape:connector-curvature="0"
       id="path152"
       d="m 500.655,526.832 c -0.915,-1.025 -1.473,-2.248 -2.086,-3.468 0.588,2.157 1.787,3.992 2.9,5.889 l -0.814,-2.421" /><path
       style="fill:#ffffff"
       inkscape:connector-curvature="0"
       id="path154"
       d="m 573.625,510.97 -0.385,0.979 c -0.708,5.08 -2.256,10.104 -4.629,14.758 2.614,-4.913 4.298,-10.287 5.014,-15.737" /><path
       style="fill:#ffffff"
       inkscape:connector-curvature="0"
       id="path156"
       d="m 515.965,439.515 c 1.803,-0.66 4.409,-0.358 6.317,-0.791 -2.486,0.213 -4.957,0.338 -7.392,0.639 l 1.075,0.152" /><path
       style="fill:#ffffff"
       inkscape:connector-curvature="0"
       id="path158"
       d="m 452.966,473.019 c 0.414,3.827 -2.88,5.311 0.724,2.78 1.939,-4.353 -0.747,-1.197 -0.724,-2.78" /><path
       style="fill:#ffffff"
       inkscape:connector-curvature="0"
       id="path160"
       d="m 448.724,490.734 c 0.831,-2.551 0.99,-4.08 1.308,-5.561 -2.305,2.938 -1.067,3.562 -1.308,5.561" /></g><g
     id="debian_1_"
     transform="matrix(1.2234042,0,0,1.1683918,-400.91286,-133.714)"><g
       id="g163"><path
         d="m 1449.401,671.188 c -0.101,0.11 -0.101,17.342 -0.319,21.84 -0.21,3.636 -0.536,11.449 -8.242,11.449 -7.924,0 -9.851,-9.099 -10.49,-13.06 -0.751,-4.387 -0.751,-8.032 -0.751,-9.631 0,-5.138 0.321,-19.485 12.417,-19.485 3.643,0 5.676,1.073 7.281,1.924 z m -31.041,12.636 c 0,30.186 16.057,30.186 18.41,30.186 6.637,0 10.921,-3.643 12.74,-9.955 l 0.216,9.523 c 2.032,-0.103 4.071,-0.318 7.389,-0.318 1.178,0 2.134,0 2.998,0.106 0.857,0 1.712,0.105 2.677,0.212 -1.715,-3.421 -2.998,-11.125 -2.998,-27.832 0,-16.267 0,-43.778 1.394,-52.131 -3.853,1.823 -7.176,3.002 -14.455,3.642 2.895,3.104 2.895,4.711 2.895,18.834 -2.031,-0.638 -4.604,-1.39 -8.991,-1.39 -19.17,0.004 -22.275,16.7 -22.275,29.123"
         id="path165"
         inkscape:connector-curvature="0"
         style="fill:#ffffff" /><path
         d="m 1476.411,678.358 c 0.106,-8.883 1.932,-16.803 9.529,-16.803 8.353,0 8.988,9.2 8.776,16.803 z m 28.902,1.075 c 0,-12.524 -2.457,-24.836 -18.297,-24.836 -21.839,0 -21.839,24.198 -21.839,29.33 0,21.733 9.74,30.294 26.115,30.294 7.276,0 10.811,-1.065 12.74,-1.606 -0.103,-3.853 0.426,-6.313 1.072,-9.629 -2.248,1.394 -5.139,3.213 -11.564,3.213 -16.699,0 -16.914,-15.208 -16.914,-20.448 h 28.479 l 0.208,-6.318"
         id="path167"
         inkscape:connector-curvature="0"
         style="fill:#ffffff" /><path
         d="m 1540.139,684.035 c 0,9.954 -1.818,23.334 -14.235,23.334 -1.719,0 -3.854,-0.322 -5.247,-0.644 -0.216,-3.853 -0.216,-10.488 -0.216,-18.195 0,-9.206 0.959,-14.016 1.715,-16.379 2.248,-7.598 7.277,-7.702 8.242,-7.702 8.136,0 9.741,11.238 9.741,19.586 z m -30.721,11.668 c 0,7.922 0,12.416 -1.285,15.842 4.389,1.715 9.848,2.676 16.381,2.676 4.172,0 16.271,0 22.799,-13.379 3.105,-6.207 4.175,-14.561 4.175,-20.875 0,-3.858 -0.427,-12.311 -3.534,-17.665 -2.995,-5.027 -7.814,-7.597 -12.949,-7.597 -10.274,0 -13.269,8.563 -14.874,12.951 0,-5.455 0.103,-24.511 0.956,-34.252 -6.955,3.213 -11.242,3.741 -15.841,4.172 4.178,1.713 4.178,8.782 4.178,31.795 v 26.332"
         id="path169"
         inkscape:connector-curvature="0"
         style="fill:#ffffff" /><path
         d="m 1572.065,713.578 c -2.143,-0.318 -3.645,-0.535 -6.746,-0.535 -3.423,0 -5.779,0.217 -8.243,0.535 1.073,-2.033 1.499,-2.998 1.82,-9.949 0.427,-9.53 0.535,-35.012 -0.213,-40.364 -0.538,-4.069 -1.498,-4.711 -2.996,-5.776 8.776,-0.859 11.234,-1.498 15.305,-3.425 -0.853,4.707 -0.967,7.071 -0.967,14.238 -0.212,36.929 -0.319,40.886 2.04,45.276"
         id="path171"
         inkscape:connector-curvature="0"
         style="fill:#ffffff" /><path
         d="m 1606.345,683.281 c -0.218,6.747 -0.323,11.458 -2.145,15.206 -2.251,4.818 -5.996,6.209 -8.776,6.209 -6.43,0 -7.818,-5.348 -7.818,-10.594 0,-10.062 8.997,-10.815 13.057,-10.815 h 5.686 v -0.006 0 z m -29.443,13.17 c 0,6.745 2.035,13.483 8.032,16.379 2.675,1.18 5.351,1.18 6.209,1.18 9.849,0 13.164,-7.284 15.201,-11.778 -0.105,4.711 0,7.599 0.318,11.347 1.928,-0.103 3.854,-0.318 7.07,-0.318 1.82,0 3.528,0.216 5.348,0.318 -1.179,-1.816 -1.819,-2.892 -2.143,-7.063 -0.213,-4.066 -0.213,-8.136 -0.213,-13.808 l 0.104,-21.838 c 0,-8.142 -2.141,-16.168 -18.201,-16.168 -10.592,0 -16.803,3.213 -19.909,4.819 1.286,2.354 2.362,4.386 3.32,8.992 4.183,-3.642 9.637,-5.569 15.199,-5.569 8.891,0 8.891,5.895 8.891,14.239 -2.033,-0.104 -3.746,-0.317 -6.64,-0.317 -13.593,-10e-4 -22.586,5.238 -22.586,19.585"
         id="path173"
         inkscape:connector-curvature="0"
         style="fill:#ffffff" /><path
         d="m 1668,702.981 c 0.105,3.64 0.105,7.494 1.602,10.599 -2.359,-0.218 -3.747,-0.537 -8.137,-0.537 -2.569,0 -3.956,0.221 -5.995,0.537 0.427,-1.394 0.645,-1.923 0.862,-3.746 0.318,-2.459 0.538,-10.707 0.538,-13.599 v -11.56 c 0,-5.032 0,-12.314 -0.33,-14.879 -0.215,-1.815 -0.743,-6.745 -6.958,-6.745 -6.102,0 -8.132,4.495 -8.885,8.135 -0.853,3.744 -0.853,7.815 -0.853,23.657 0.101,13.703 0.101,14.982 1.174,18.732 -1.819,-0.212 -4.069,-0.423 -7.273,-0.423 -2.572,0 -4.287,0.101 -6.421,0.423 0.75,-1.714 1.179,-2.57 1.391,-8.562 0.219,-5.894 0.646,-34.795 -0.324,-41.642 -0.532,-4.178 -1.606,-5.138 -2.779,-6.211 8.674,-0.429 11.452,-1.819 14.131,-3.213 v 11.344 c 1.283,-3.319 3.959,-10.708 14.664,-10.708 13.385,0 13.487,9.741 13.596,16.165 v 32.233"
         id="path175"
         inkscape:connector-curvature="0"
         style="fill:#ffffff" /><path
         d="m 1572.969,638.913 -8.868,8.861 -8.86,-8.861 8.86,-8.861 8.868,8.861"
         id="path177"
         inkscape:connector-curvature="0"
         style="fill:#ffffff" /></g><g
       id="_x39_"><g
         id="g180"><g
           id="g182"><path
             d="m 1728.581,697.889 c -15.674,0.464 -29.287,-13.274 -29.287,-28.164 0,-16.489 11.934,-30.97 29.765,-30.97 17.822,0 28.82,14.482 28.82,36.736 0,19.18 -6.425,32.587 -15.014,40.907 -6.701,6.565 -15.957,10.587 -25.339,11.664 -4.286,0.668 -8.038,0.803 -10.856,0.668 0,0 40.037,-12.034 41.296,-44.969 0.276,-7.367 5.366,-36.693 -19.842,-36.023 -10.049,0.264 -17.164,8.849 -17.164,21.183 0,10.854 3.337,18.55 14.339,21.244 7.688,1.885 12.513,-1.094 18.209,-15.016 -0.01,0 2.516,22.229 -14.927,22.74 z"
             id="path184"
             inkscape:connector-curvature="0"
             style="fill:#ffffff" /></g></g></g></g></svg>
