<?xml version="1.0" encoding="UTF-8" standalone="no"?>
<!-- Generator: Adobe Illustrator 16.0.0, SVG Export Plug-In . SVG Version: 6.00 Build 0)  -->

<svg
   xmlns:dc="http://purl.org/dc/elements/1.1/"
   xmlns:cc="http://creativecommons.org/ns#"
   xmlns:rdf="http://www.w3.org/1999/02/22-rdf-syntax-ns#"
   xmlns:svg="http://www.w3.org/2000/svg"
   xmlns="http://www.w3.org/2000/svg"
   xmlns:sodipodi="http://sodipodi.sourceforge.net/DTD/sodipodi-0.dtd"
   xmlns:inkscape="http://www.inkscape.org/namespaces/inkscape"
   version="1.1"
   id="root"
   x="0px"
   y="0px"
   width="2560px"
   height="1080px"
   viewBox="-320 60.749 2560 1080"
   enable-background="new -320 60.749 2560 1080"
   xml:space="preserve"
   inkscape:version="0.91 r13725"
   sodipodi:docname="2560x1080.svg"><metadata
     id="metadata190"><rdf:RDF><cc:Work
         rdf:about=""><dc:format>image/svg+xml</dc:format><dc:type
           rdf:resource="http://purl.org/dc/dcmitype/StillImage" /></cc:Work></rdf:RDF></metadata><defs
     id="defs188" /><sodipodi:namedview
     pagecolor="#ffffff"
     bordercolor="#666666"
     borderopacity="1"
     objecttolerance="10"
     gridtolerance="10"
     guidetolerance="10"
     inkscape:pageopacity="0"
     inkscape:pageshadow="2"
     inkscape:window-width="1920"
     inkscape:window-height="1007"
     id="namedview186"
     showgrid="false"
     inkscape:zoom="0.34765625"
     inkscape:cx="965.26469"
     inkscape:cy="713.21782"
     inkscape:window-x="0"
     inkscape:window-y="0"
     inkscape:window-maximized="1"
     inkscape:current-layer="root" /><g
     id="background"><g
       id="background_1_"><linearGradient
         id="SVGID_1_"
         gradientUnits="userSpaceOnUse"
         x1="-1530.4492"
         y1="4257.4385"
         x2="-1530.4497"
         y2="3178.2803"
         gradientTransform="matrix(1 0 0 -1 2488.6992 4319.998)"><stop
           offset="0"
           style="stop-color:#133356"
           id="stop6" /><stop
           offset="0.5025"
           style="stop-color:#7C9999"
           id="stop8" /><stop
           offset="1"
           style="stop-color:#333333"
           id="stop10" /></linearGradient><rect
         x="-323.501"
         y="59.962"
         fill="url(#SVGID_1_)"
         width="2563.501"
         height="1081.177"
         id="rect12" /></g><g
       id="Layer_4"><radialGradient
         id="SVGID_2_"
         cx="-1656.9556"
         cy="3382.6777"
         r="942.2248"
         gradientTransform="matrix(1.3271 0 0 -1 3037.7095 3954.7471)"
         gradientUnits="userSpaceOnUse"><stop
           offset="0"
           style="stop-color:#E4C8A5;stop-opacity:0.5"
           id="stop16" /><stop
           offset="0.1429"
           style="stop-color:#AEAB93;stop-opacity:0.4372"
           id="stop18" /><stop
           offset="0.3797"
           style="stop-color:#587E77;stop-opacity:0.3331"
           id="stop20" /><stop
           offset="0.4877"
           style="stop-color:#366C6C;stop-opacity:0.2857"
           id="stop22" /></radialGradient><rect
         x="-323.501"
         y="60.637"
         fill="url(#SVGID_2_)"
         width="2563.501"
         height="1080.165"
         id="rect24" /></g></g><g
     id="glows"><radialGradient
       id="SVGID_3_"
       cx="-1060.0024"
       cy="3779.9736"
       r="271.3933"
       gradientTransform="matrix(1 0 0 -1 2488.6992 4319.998)"
       gradientUnits="userSpaceOnUse"><stop
         offset="0"
         style="stop-color:#FFFCDD"
         id="stop28" /><stop
         offset="1"
         style="stop-color:#FEF9C8;stop-opacity:0"
         id="stop30" /></radialGradient><circle
       opacity="0.2"
       fill="url(#SVGID_3_)"
       enable-background="new    "
       cx="1428.696"
       cy="540.024"
       r="271.394"
       id="circle32" /><radialGradient
       id="SVGID_4_"
       cx="-1210.7236"
       cy="3873.3701"
       r="214.815"
       gradientTransform="matrix(1 0 0 -1 2488.6992 4319.998)"
       gradientUnits="userSpaceOnUse"><stop
         offset="0"
         style="stop-color:#99CCCC"
         id="stop35" /><stop
         offset="1"
         style="stop-color:#FEF9C8;stop-opacity:0"
         id="stop37" /></radialGradient><circle
       opacity="0.2"
       fill="url(#SVGID_4_)"
       enable-background="new    "
       cx="1277.976"
       cy="446.628"
       r="214.815"
       id="circle39" /><radialGradient
       id="SVGID_5_"
       cx="-2137.9429"
       cy="3910.3076"
       r="284.8003"
       gradientTransform="matrix(1 0 0 -1 2488.6992 4319.998)"
       gradientUnits="userSpaceOnUse"><stop
         offset="0"
         style="stop-color:#FFFCDD"
         id="stop42" /><stop
         offset="1"
         style="stop-color:#FEF9C8;stop-opacity:0"
         id="stop44" /></radialGradient><circle
       opacity="0.1"
       fill="url(#SVGID_5_)"
       enable-background="new    "
       cx="350.757"
       cy="409.69"
       r="284.801"
       id="circle46" /><radialGradient
       id="SVGID_6_"
       cx="-1955.2061"
       cy="3726.5547"
       r="284.8003"
       gradientTransform="matrix(1 0 0 -1 2488.6992 4319.998)"
       gradientUnits="userSpaceOnUse"><stop
         offset="0"
         style="stop-color:#FFFCDD"
         id="stop49" /><stop
         offset="1"
         style="stop-color:#FEF9C8;stop-opacity:0"
         id="stop51" /></radialGradient><circle
       opacity="0.1"
       fill="url(#SVGID_6_)"
       enable-background="new    "
       cx="533.493"
       cy="593.443"
       r="284.801"
       id="circle53" /><radialGradient
       id="SVGID_7_"
       cx="-1861.5669"
       cy="3636.3203"
       r="364.3401"
       gradientTransform="matrix(1 0 0 -1 2488.6992 4319.998)"
       gradientUnits="userSpaceOnUse"><stop
         offset="0"
         style="stop-color:#FFFCDD"
         id="stop56" /><stop
         offset="1"
         style="stop-color:#FEF9C8;stop-opacity:0"
         id="stop58" /></radialGradient><circle
       opacity="0.1"
       fill="url(#SVGID_7_)"
       enable-background="new    "
       cx="627.131"
       cy="683.678"
       r="364.34"
       id="circle60" /><radialGradient
       id="SVGID_8_"
       cx="-1267.1924"
       cy="3711.9102"
       r="364.3383"
       gradientTransform="matrix(1 0 0 -1 2488.6992 4319.998)"
       gradientUnits="userSpaceOnUse"><stop
         offset="0"
         style="stop-color:#FFFCDD"
         id="stop63" /><stop
         offset="1"
         style="stop-color:#FEF9C8;stop-opacity:0"
         id="stop65" /></radialGradient><path
       opacity="0.1"
       fill="url(#SVGID_8_)"
       enable-background="new    "
       d="M1221.508,243.75   c201.219,0,364.338,163.117,364.338,364.339c0,201.225-163.119,364.338-364.338,364.338S857.168,809.311,857.168,608.092   C857.168,406.868,1020.289,243.75,1221.508,243.75z"
       id="path67" /><radialGradient
       id="SVGID_9_"
       cx="-1895.7295"
       cy="3857.707"
       r="364.3401"
       gradientTransform="matrix(1 0 0 -1 2488.6992 4319.998)"
       gradientUnits="userSpaceOnUse"><stop
         offset="0"
         style="stop-color:#99CCCC"
         id="stop70" /><stop
         offset="1"
         style="stop-color:#FEF9C8;stop-opacity:0"
         id="stop72" /></radialGradient><circle
       opacity="0.2"
       fill="url(#SVGID_9_)"
       enable-background="new    "
       cx="592.969"
       cy="462.29"
       r="364.34"
       id="circle74" /><radialGradient
       id="SVGID_10_"
       cx="-987.5864"
       cy="3840.2129"
       r="364.3391"
       gradientTransform="matrix(1 0 0 -1 2488.6992 4319.998)"
       gradientUnits="userSpaceOnUse"><stop
         offset="0"
         style="stop-color:#FFFCDD"
         id="stop77" /><stop
         offset="1"
         style="stop-color:#FEF9C8;stop-opacity:0"
         id="stop79" /></radialGradient><circle
       opacity="0.2"
       fill="url(#SVGID_10_)"
       enable-background="new    "
       cx="1501.112"
       cy="479.785"
       r="364.34"
       id="circle81" /><radialGradient
       id="SVGID_11_"
       cx="-1094.3413"
       cy="3583.6045"
       r="364.3391"
       gradientTransform="matrix(1 0 0 -1 2488.6992 4319.998)"
       gradientUnits="userSpaceOnUse"><stop
         offset="0"
         style="stop-color:#99CCCC"
         id="stop84" /><stop
         offset="1"
         style="stop-color:#FEF9C8;stop-opacity:0"
         id="stop86" /></radialGradient><circle
       opacity="0.2"
       fill="url(#SVGID_11_)"
       enable-background="new    "
       cx="1394.357"
       cy="736.393"
       r="364.339"
       id="circle88" /></g><g
     id="octopus_1_"><radialGradient
       id="SVGID_12_"
       cx="12223.5625"
       cy="-2837.4087"
       r="684.803"
       gradientTransform="matrix(-1 0 0 1 13252.9844 3630.3369)"
       gradientUnits="userSpaceOnUse"><stop
         offset="0"
         style="stop-color:#BCCCB3"
         id="stop92" /><stop
         offset="1"
         style="stop-color:#FEF9C8;stop-opacity:0"
         id="stop94" /></radialGradient><path
       opacity="0.1"
       fill="url(#SVGID_12_)"
       enable-background="new    "
       d="M311.639,304.98c0,0-161.583,198.034-107.808,408.245   c90.906,355.329,366.145,412.13,811.988,311.042c785.643-178.137,812.792,219.673,806.96,256.608l42.65-61.836   c5.831-36.937-21.324-434.738-806.958-256.608c-445.847,101.088-721.086,44.291-811.989-311.042   C192.708,441.182,311.639,304.98,311.639,304.98"
       id="path96" /><radialGradient
       id="SVGID_13_"
       cx="12019.877"
       cy="-3097.4419"
       r="1372.4139"
       gradientTransform="matrix(-1 0 0 1 13252.9844 3630.3369)"
       gradientUnits="userSpaceOnUse"><stop
         offset="0"
         style="stop-color:#BCCCB3"
         id="stop99" /><stop
         offset="1"
         style="stop-color:#FEF9C8;stop-opacity:0"
         id="stop101" /></radialGradient><path
       opacity="0.5"
       fill="url(#SVGID_13_)"
       enable-background="new    "
       d="M163.688,203.133c0,0-161.583,198.038-107.809,408.247   c90.906,355.328,366.144,412.128,811.99,311.041c785.632-178.136,812.79,219.671,806.958,256.606l55.164-5.569   c27.373-62.479-33.838-491.005-819.472-312.874c-445.845,101.088-721.083,44.29-811.986-311.042   C44.757,339.335,163.688,203.133,163.688,203.133"
       id="path103" /><radialGradient
       id="SVGID_14_"
       cx="12157.957"
       cy="-2862.4873"
       r="684.8016"
       gradientTransform="matrix(-1 0 0 1 13252.9844 3630.3369)"
       gradientUnits="userSpaceOnUse"><stop
         offset="0"
         style="stop-color:#BCCCB3"
         id="stop106" /><stop
         offset="1"
         style="stop-color:#FEF9C8;stop-opacity:0"
         id="stop108" /></radialGradient><path
       opacity="0.2"
       fill="url(#SVGID_14_)"
       enable-background="new    "
       d="M377.247,279.903c0,0-161.583,198.039-107.809,408.244   c90.906,355.333,366.145,412.128,811.987,311.041c785.635-178.132,812.791,219.672,806.96,256.609l42.65-61.83   c5.832-36.937-21.324-434.745-806.958-256.61c-445.845,101.089-721.084,44.289-811.987-311.041   C258.316,416.104,377.247,279.903,377.247,279.903"
       id="path110" /><linearGradient
       id="SVGID_15_"
       gradientUnits="userSpaceOnUse"
       x1="11386.1699"
       y1="-3026.3477"
       x2="13090.6563"
       y2="-3026.3477"
       gradientTransform="matrix(-1 0 0 1 13252.9844 3630.3369)"><stop
         offset="0"
         style="stop-color:#ABCCB3;stop-opacity:0.7"
         id="stop113" /><stop
         offset="0.33"
         style="stop-color:#B4CFB5;stop-opacity:0.05"
         id="stop115" /><stop
         offset="0.803"
         style="stop-color:#C1D4B7;stop-opacity:0.5"
         id="stop117" /><stop
         offset="1"
         style="stop-color:#FEF9C8;stop-opacity:0"
         id="stop119" /></linearGradient><path
       opacity="0.4"
       fill="url(#SVGID_15_)"
       enable-background="new    "
       d="M162.328,429.523c0,0,46.063-174.852,250.257-248.218   c380.067-155.496,599.862,158.579,731.82,472.001c11.664,27.699,40.823,97.681,88.935,231.811   c63.549,177.162,150.166,179.318,342.207,143.189c296.237-67.169,276.33,82.834,274.125,96.762l16.081-23.31   c2.207-13.927,22.111-163.931-274.125-96.768c-183.227,39.192-272.362-1.188-323.762-135.917   c-51.402-134.723-54.567-139.769-103.053-263.879C998.466,179.363,807.627,10.353,439.854,111.313   C235.667,184.68,162.328,429.523,162.328,429.523"
       id="path121" /></g><g
     id="rounds"><path
       fill="none"
       stroke="#FFFFFF"
       stroke-width="2"
       stroke-miterlimit="10"
       d="M1162.662,718.67"
       id="path124" /><circle
       opacity="0.3"
       fill="#FFFFFF"
       enable-background="new    "
       cx="1095.026"
       cy="756.118"
       r="12.74"
       id="circle126" /><circle
       opacity="0.2"
       fill="#FFFFFF"
       enable-background="new    "
       cx="1429.696"
       cy="576.29"
       r="12.742"
       id="circle128" /><circle
       opacity="0.1"
       fill="#FFFFFF"
       enable-background="new    "
       cx="1656.532"
       cy="319.534"
       r="12.74"
       id="circle130" /><circle
       opacity="0.4"
       fill="#FFFFFF"
       enable-background="new    "
       cx="708.042"
       cy="834.789"
       r="12.74"
       id="circle132" /></g><g
     id="logoGroup_1_"
     transform="matrix(0.7,0,0,0.7,132.3297,165.0678)"><circle
       enable-background="new    "
       cx="441.099"
       cy="550.22601"
       r="142.94099"
       id="circle135"
       style="opacity:0.4;fill:#366c6c" /><g
       id="logo_1_"
       enable-background="new    "><path
         d="m 453.659,557.295 c -2.653,0.03 0.503,1.357 3.966,1.894 0.959,-0.75 1.823,-1.502 2.595,-2.239 -2.152,0.532 -4.346,0.547 -6.561,0.345"
         id="path138"
         inkscape:connector-curvature="0"
         style="fill:#ffffff" /><path
         d="m 467.898,553.745 c 1.589,-2.185 2.734,-4.57 3.139,-7.036 -0.357,1.761 -1.309,3.272 -2.207,4.879 -4.961,3.132 -0.467,-1.847 -0.012,-3.746 -5.32,6.714 -0.727,4.026 -0.92,5.903"
         id="path140"
         inkscape:connector-curvature="0"
         style="fill:#ffffff" /><path
         d="m 473.158,540.061 c 0.323,-4.776 -0.937,-3.261 -1.356,-1.444 0.487,0.261 0.88,3.371 1.356,1.444"
         id="path142"
         inkscape:connector-curvature="0"
         style="fill:#ffffff" /><path
         d="m 443.594,474.749 c 1.418,0.261 3.062,0.45 2.826,0.791 1.552,-0.348 1.905,-0.654 -2.826,-0.791"
         id="path144"
         inkscape:connector-curvature="0"
         style="fill:#ffffff" /><path
         d="m 446.421,475.536 -0.992,0.214 0.93,-0.093 0.062,-0.121"
         id="path146"
         inkscape:connector-curvature="0"
         style="fill:#ffffff" /><path
         d="m 490.584,541.877 c 0.151,4.285 -1.254,6.375 -2.531,10.062 l -2.288,1.146 c -1.884,3.649 0.182,2.325 -1.156,5.211 -2.937,2.611 -8.89,8.154 -10.793,8.657 -1.398,-0.032 0.95,-1.646 1.246,-2.276 -3.919,2.693 -3.138,4.036 -9.148,5.682 l -0.178,-0.393 c -14.792,6.961 -35.335,-6.824 -35.072,-25.646 -0.155,1.194 -0.448,0.896 -0.776,1.375 -0.764,-9.681 4.474,-19.402 13.303,-23.381 8.646,-4.273 18.771,-2.532 24.94,3.25 -3.395,-4.45 -10.157,-9.174 -18.164,-8.729 -7.848,0.138 -15.204,5.124 -17.645,10.536 -4.028,2.531 -4.49,9.759 -6.24,11.079 -2.367,17.331 4.435,24.815 15.93,33.629 1.803,1.228 0.507,1.401 0.75,2.329 -3.829,-1.784 -7.311,-4.485 -10.187,-7.791 1.526,2.229 3.18,4.394 5.302,6.096 -3.603,-1.215 -8.413,-8.727 -9.817,-9.028 6.208,11.119 25.171,19.499 35.118,15.331 -4.601,0.172 -10.44,0.095 -15.613,-1.816 -2.167,-1.114 -5.123,-3.422 -4.597,-3.857 13.561,5.063 27.56,3.827 39.299,-5.573 2.987,-2.325 6.248,-6.278 7.189,-6.332 -1.418,2.129 0.243,1.025 -0.847,2.904 2.971,-4.799 -1.293,-1.954 3.069,-8.282 l 1.606,2.22 c -0.603,-3.99 4.954,-8.817 4.387,-15.116 1.275,-1.923 1.418,2.077 0.061,6.501 1.875,-4.915 0.5,-5.691 0.977,-9.76 0.514,1.363 1.201,2.814 1.56,4.252 -1.223,-4.753 1.245,-7.999 1.863,-10.753 -0.608,-0.267 -1.884,2.092 -2.178,-3.508 0.043,-2.439 0.68,-1.276 0.922,-1.879 -0.474,-0.275 -1.729,-2.145 -2.492,-5.73 0.548,-0.838 1.479,2.18 2.229,2.302 -0.48,-2.847 -1.315,-5.016 -1.354,-7.203 -2.203,-4.597 -0.782,0.619 -2.565,-1.966 -2.341,-7.31 1.941,-1.692 2.238,-5.011 3.543,5.144 5.568,13.11 6.5,16.417 -0.708,-4.025 -1.842,-7.918 -3.256,-11.701 1.073,0.466 -1.744,-8.282 1.397,-2.491 -3.343,-12.335 -14.347,-23.862 -24.457,-29.264 1.236,1.13 2.802,2.551 2.249,2.774 -5.043,-2.99 -4.152,-3.228 -4.878,-4.493 -4.1,-1.672 -4.361,0.138 -7.068,0.007 -7.724,-4.101 -9.213,-3.667 -16.321,-6.229 l 0.321,1.519 c -5.118,-1.711 -5.963,0.635 -11.49,0.005 -0.335,-0.264 1.774,-0.952 3.508,-1.204 -4.949,0.654 -4.719,-0.976 -9.554,0.183 1.191,-0.832 2.45,-1.397 3.727,-2.102 -4.031,0.25 -9.633,2.345 -7.907,0.425 -6.582,2.939 -18.264,7.067 -24.823,13.214 l -0.206,-1.375 c -3.013,3.609 -13.103,10.768 -13.913,15.451 l -0.796,0.182 c -1.56,2.653 -2.572,5.651 -3.82,8.366 -2.045,3.485 -2.998,1.342 -2.704,1.883 -4.024,8.162 -6.019,15.006 -7.751,20.635 1.235,1.839 0.03,11.066 0.496,18.447 -2.014,36.471 25.601,71.907 55.793,80.077 4.424,1.594 10.997,1.528 16.601,1.682 -6.605,-1.885 -7.458,-0.993 -13.891,-3.248 -4.638,-2.184 -5.656,-4.679 -8.945,-7.532 l 1.3,2.295 c -6.443,-2.284 -3.746,-2.821 -8.993,-4.481 l 1.395,-1.805 c -2.085,-0.159 -5.528,-3.518 -6.474,-5.39 l -2.289,0.099 c -2.742,-3.383 -4.211,-5.83 -4.102,-7.722 l -0.748,1.315 c -0.83,-1.438 -10.104,-12.705 -5.289,-10.084 -0.897,-0.818 -2.087,-1.321 -3.378,-3.666 l 0.987,-1.114 c -2.32,-2.978 -4.271,-6.792 -4.111,-8.076 1.236,1.671 2.087,1.977 2.938,2.264 -5.854,-14.496 -6.177,-0.79 -10.594,-14.756 l 0.938,-0.073 c -0.71,-1.086 -1.154,-2.253 -1.728,-3.41 l 0.412,-4.063 c -4.202,-4.859 -1.176,-20.676 -0.568,-29.348 0.421,-3.53 3.504,-7.284 5.853,-13.18 l -1.433,-0.25 c 2.734,-4.766 15.63,-19.177 21.606,-18.442 2.896,-3.625 -0.578,-0.018 -1.146,-0.925 6.357,-6.582 8.358,-4.638 12.644,-5.83 4.631,-2.737 -3.968,1.073 -1.773,-1.037 7.998,-2.045 5.661,-4.638 16.099,-5.684 1.101,0.627 -2.551,0.961 -3.462,1.772 6.662,-3.26 21.08,-2.521 30.442,1.803 10.867,5.083 23.07,20.093 23.554,34.217 l 0.546,0.142 c -0.273,5.613 0.868,12.109 -1.113,18.077 l 1.327,-2.808"
         id="path148"
         inkscape:connector-curvature="0"
         style="fill:#ffffff" /><path
         d="m 424.697,560.933 -0.375,1.859 c 1.743,2.369 3.129,4.938 5.354,6.783 -1.602,-3.119 -2.788,-4.41 -4.979,-8.642"
         id="path150"
         inkscape:connector-curvature="0"
         style="fill:#ffffff" /><path
         d="m 428.815,560.775 c -0.917,-1.025 -1.473,-2.247 -2.086,-3.467 0.587,2.155 1.787,3.992 2.9,5.887 l -0.814,-2.42"
         id="path152"
         inkscape:connector-curvature="0"
         style="fill:#ffffff" /><path
         d="m 501.772,544.917 -0.386,0.98 c -0.708,5.078 -2.256,10.101 -4.628,14.755 2.614,-4.914 4.299,-10.286 5.014,-15.735"
         id="path154"
         inkscape:connector-curvature="0"
         style="fill:#ffffff" /><path
         d="m 444.122,473.474 c 1.802,-0.659 4.408,-0.357 6.316,-0.79 -2.486,0.213 -4.956,0.338 -7.391,0.639 l 1.075,0.151"
         id="path156"
         inkscape:connector-curvature="0"
         style="fill:#ffffff" /><path
         d="m 381.133,506.971 c 0.414,3.827 -2.879,5.31 0.725,2.78 1.939,-4.352 -0.748,-1.196 -0.725,-2.78"
         id="path158"
         inkscape:connector-curvature="0"
         style="fill:#ffffff" /><path
         d="m 376.892,524.684 c 0.831,-2.55 0.99,-4.079 1.306,-5.56 -2.302,2.937 -1.065,3.562 -1.306,5.56"
         id="path160"
         inkscape:connector-curvature="0"
         style="fill:#ffffff" /></g></g><g
     id="debian_1_"
     transform="matrix(0.56,0,0,0.56,667.07982,313.86655)"><g
       id="g163"><path
         d="m 1377.396,705.108 c -0.1,0.109 -0.1,17.337 -0.318,21.835 -0.212,3.637 -0.537,11.448 -8.241,11.448 -7.922,0 -9.849,-9.098 -10.488,-13.057 -0.75,-4.386 -0.75,-8.03 -0.75,-9.629 0,-5.138 0.32,-19.482 12.415,-19.482 3.641,0 5.674,1.072 7.279,1.925 l 0.103,6.96 z m -31.035,12.633 c 0,30.179 16.055,30.179 18.408,30.179 6.634,0 10.918,-3.64 12.736,-9.951 l 0.216,9.521 c 2.032,-0.104 4.071,-0.318 7.387,-0.318 1.179,0 2.134,0 2.998,0.106 0.856,0 1.712,0.104 2.676,0.212 -1.714,-3.422 -2.998,-11.124 -2.998,-27.827 0,-16.266 0,-43.771 1.394,-52.122 -3.852,1.823 -7.175,3.001 -14.452,3.641 2.894,3.105 2.894,4.711 2.894,18.83 -2.031,-0.637 -4.604,-1.388 -8.99,-1.388 -19.165,0.004 -22.269,16.696 -22.269,29.117"
         id="path165"
         inkscape:connector-curvature="0"
         style="fill:#ffffff" /><path
         d="m 1404.402,712.277 c 0.106,-8.882 1.931,-16.802 9.527,-16.802 8.352,0 8.986,9.199 8.775,16.802 l -18.302,0 z m 28.897,1.074 c 0,-12.522 -2.458,-24.831 -18.296,-24.831 -21.833,0 -21.833,24.192 -21.833,29.325 0,21.729 9.737,30.287 26.11,30.287 7.275,0 10.81,-1.063 12.738,-1.605 -0.103,-3.854 0.427,-6.313 1.072,-9.629 -2.249,1.395 -5.139,3.213 -11.563,3.213 -16.696,0 -16.911,-15.203 -16.911,-20.445 l 28.474,0 0.209,-6.315"
         id="path167"
         inkscape:connector-curvature="0"
         style="fill:#ffffff" /><path
         d="m 1468.118,717.952 c 0,9.951 -1.818,23.332 -14.233,23.332 -1.716,0 -3.854,-0.323 -5.243,-0.645 -0.217,-3.854 -0.217,-10.488 -0.217,-18.194 0,-9.203 0.96,-14.012 1.714,-16.375 2.247,-7.595 7.276,-7.7 8.24,-7.7 8.135,0 9.739,11.235 9.739,19.582 z m -30.716,11.666 c 0,7.92 0,12.414 -1.284,15.84 4.389,1.714 9.846,2.674 16.378,2.674 4.171,0 16.268,0 22.795,-13.375 3.105,-6.208 4.175,-14.558 4.175,-20.873 0,-3.856 -0.429,-12.308 -3.533,-17.66 -2.995,-5.027 -7.814,-7.596 -12.948,-7.596 -10.273,0 -13.267,8.561 -14.871,12.948 0,-5.455 0.103,-24.506 0.956,-34.246 -6.954,3.212 -11.239,3.741 -15.838,4.172 4.176,1.712 4.176,8.78 4.176,31.789 l 0,26.327"
         id="path169"
         inkscape:connector-curvature="0"
         style="fill:#ffffff" /><path
         d="m 1500.039,747.49 c -2.143,-0.318 -3.645,-0.536 -6.745,-0.536 -3.422,0 -5.779,0.218 -8.24,0.536 1.071,-2.032 1.498,-2.997 1.819,-9.949 0.427,-9.526 0.535,-35.004 -0.213,-40.355 -0.539,-4.068 -1.497,-4.71 -2.996,-5.776 8.774,-0.859 11.232,-1.497 15.303,-3.424 -0.853,4.705 -0.967,7.069 -0.967,14.236 -0.212,36.923 -0.319,40.88 2.039,45.268"
         id="path171"
         inkscape:connector-curvature="0"
         style="fill:#ffffff" /><path
         d="m 1534.313,717.199 c -0.216,6.744 -0.322,11.455 -2.145,15.201 -2.25,4.817 -5.995,6.208 -8.774,6.208 -6.429,0 -7.815,-5.347 -7.815,-10.591 0,-10.06 8.994,-10.813 13.054,-10.813 l 5.683,0 0,-0.005 0,0 z m -29.437,13.169 c 0,6.741 2.034,13.48 8.03,16.376 2.676,1.176 5.35,1.176 6.208,1.176 9.847,0 13.161,-7.28 15.198,-11.773 -0.105,4.709 0,7.596 0.318,11.344 1.928,-0.104 3.854,-0.319 7.07,-0.319 1.818,0 3.526,0.215 5.346,0.319 -1.178,-1.816 -1.819,-2.89 -2.142,-7.063 -0.214,-4.064 -0.214,-8.135 -0.214,-13.806 l 0.105,-21.834 c 0,-8.141 -2.141,-16.164 -18.197,-16.164 -10.591,0 -16.801,3.211 -19.905,4.817 1.286,2.354 2.362,4.386 3.321,8.992 4.18,-3.642 9.634,-5.569 15.194,-5.569 8.89,0 8.89,5.894 8.89,14.236 -2.033,-0.104 -3.745,-0.316 -6.64,-0.316 -13.591,-10e-4 -22.582,5.237 -22.582,19.584"
         id="path173"
         inkscape:connector-curvature="0"
         style="fill:#ffffff" /><path
         d="m 1595.958,736.895 c 0.106,3.641 0.106,7.493 1.603,10.598 -2.359,-0.217 -3.748,-0.537 -8.136,-0.537 -2.569,0 -3.956,0.222 -5.994,0.537 0.426,-1.393 0.644,-1.922 0.86,-3.745 0.319,-2.458 0.538,-10.705 0.538,-13.596 l 0,-11.559 c 0,-5.03 0,-12.311 -0.329,-14.874 -0.215,-1.817 -0.742,-6.744 -6.957,-6.744 -6.1,0 -8.131,4.492 -8.883,8.132 -0.854,3.745 -0.854,7.813 -0.854,23.653 0.101,13.699 0.101,14.98 1.174,18.729 -1.818,-0.212 -4.066,-0.422 -7.272,-0.422 -2.571,0 -4.287,0.1 -6.418,0.422 0.749,-1.713 1.177,-2.569 1.39,-8.56 0.219,-5.891 0.646,-34.787 -0.324,-41.634 -0.532,-4.177 -1.606,-5.138 -2.779,-6.211 8.673,-0.429 11.449,-1.817 14.129,-3.21 l 0,11.341 c 1.282,-3.318 3.958,-10.706 14.662,-10.706 13.381,0 13.483,9.74 13.593,16.162 l 0,32.224"
         id="path175"
         inkscape:connector-curvature="0"
         style="fill:#ffffff" /><path
         d="m 1500.942,672.839 -8.865,8.859 -8.86,-8.859 8.86,-8.86 8.865,8.86"
         id="path177"
         inkscape:connector-curvature="0"
         style="fill:#ffffff" /></g><g
       id="_x39_"><g
         id="g180"><g
           id="g182"><path
             d="m 1656.528,731.804 c -15.672,0.463 -29.283,-13.272 -29.283,-28.159 0,-16.486 11.933,-30.965 29.761,-30.965 17.818,0 28.814,14.479 28.814,36.729 0,19.177 -6.425,32.582 -15.012,40.899 -6.698,6.566 -15.953,10.587 -25.334,11.664 -4.286,0.668 -8.037,0.803 -10.854,0.668 0,0 40.028,-12.034 41.287,-44.961 0.277,-7.366 5.366,-36.688 -19.838,-36.017 -10.047,0.262 -17.161,8.846 -17.161,21.178 0,10.853 3.335,18.546 14.336,21.241 7.688,1.884 12.511,-1.096 18.206,-15.015 0,0.002 2.518,22.227 -14.922,22.738 z"
             id="path184"
             inkscape:connector-curvature="0"
             style="fill:#ffffff" /></g></g></g></g></svg>
